<?xml version="1.0"?>
<svg xmlns:rdf="http://www.w3.org/1999/02/22-rdf-syntax-ns#" xmlns="http://www.w3.org/2000/svg" xmlns:cc="http://creativecommons.org/ns#" xmlns:xlink="http://www.w3.org/1999/xlink" xmlns:dc="http://purl.org/dc/elements/1.1/" id="svg2" viewBox="0 0 128 128" version="1.0">
  <defs id="defs4">
    <linearGradient id="linearGradient2338">
      <stop id="stop2340" stop-color="#b1b1b1" offset="0"/>
      <stop id="stop2342" stop-color="#e4e4e4" offset="1"/>
    </linearGradient>
    <linearGradient id="linearGradient2320">
      <stop id="stop2322" stop-color="#6a3c1d" offset="0"/>
      <stop id="stop2324" stop-color="#8f5127" offset="1"/>
    </linearGradient>
    <linearGradient id="linearGradient2508" x1="17.062" xlink:href="#linearGradient2338" gradientUnits="userSpaceOnUse" y1="81.461" gradientTransform="translate(2.7676)" x2="31.678" y2="98.951"/>
    <linearGradient id="linearGradient2546" x1="18.062" xlink:href="#linearGradient2338" gradientUnits="userSpaceOnUse" y1="55.812" gradientTransform="translate(2.7676)" x2="28.25" y2="60.5"/>
    <linearGradient id="linearGradient2548" x1="21.625" xlink:href="#linearGradient2338" gradientUnits="userSpaceOnUse" y1="64.75" gradientTransform="translate(2.7676)" x2="27.5" y2="58.938"/>
    <linearGradient id="linearGradient2550" x1="15.438" xlink:href="#linearGradient2338" gradientUnits="userSpaceOnUse" y1="62.938" gradientTransform="translate(2.7676)" x2="16.25" y2="60.188"/>
    <linearGradient id="linearGradient2552" x1="17.875" xlink:href="#linearGradient2338" gradientUnits="userSpaceOnUse" y1="65.344" gradientTransform="translate(2.7676)" x2="20.062" y2="63.656"/>
    <linearGradient id="linearGradient2554" x1="21.625" xlink:href="#linearGradient2338" gradientUnits="userSpaceOnUse" y1="66.98" gradientTransform="translate(2.7676)" x2="20.875" y2="64.75"/>
    <linearGradient id="linearGradient2556" x1="23.375" xlink:href="#linearGradient2338" gradientUnits="userSpaceOnUse" y1="64.031" gradientTransform="translate(2.7676)" x2="24.438" y2="66.031"/>
    <linearGradient id="linearGradient2558" x1="27.438" xlink:href="#linearGradient2338" gradientUnits="userSpaceOnUse" y1="63.781" gradientTransform="translate(2.7676)" x2="26" y2="60.781"/>
    <linearGradient id="linearGradient2560" x1="31.625" xlink:href="#linearGradient2338" gradientUnits="userSpaceOnUse" y1="65.562" gradientTransform="translate(2.7676)" x2="30.875" y2="61.812"/>
    <linearGradient id="linearGradient2562" x1="32.062" xlink:href="#linearGradient2338" gradientUnits="userSpaceOnUse" y1="59.844" gradientTransform="translate(2.7676)" x2="34.375" y2="60.406"/>
    <linearGradient id="linearGradient2564" x1="33.75" xlink:href="#linearGradient2338" gradientUnits="userSpaceOnUse" y1="58.781" gradientTransform="translate(2.7676)" x2="30.875" y2="55.406"/>
    <linearGradient id="linearGradient2566" x1="28.625" xlink:href="#linearGradient2338" gradientUnits="userSpaceOnUse" y1="57.562" gradientTransform="translate(2.7676)" x2="28.219" y2="55.438"/>
    <linearGradient id="linearGradient2568" x1="23.969" xlink:href="#linearGradient2338" gradientUnits="userSpaceOnUse" y1="54.688" gradientTransform="translate(2.7676)" x2="23.969" y2="52.219"/>
    <linearGradient id="linearGradient2570" x1="20.562" xlink:href="#linearGradient2338" gradientUnits="userSpaceOnUse" y1="53.812" gradientTransform="translate(2.7676)" x2="22.125" y2="55.312"/>
    <linearGradient id="linearGradient2572" x1="19.562" xlink:href="#linearGradient2338" gradientUnits="userSpaceOnUse" y1="57.312" gradientTransform="translate(2.7676)" x2="20.438" y2="55"/>
    <linearGradient id="linearGradient2574" x1="15" xlink:href="#linearGradient2338" gradientUnits="userSpaceOnUse" y1="57.125" gradientTransform="translate(2.7676)" x2="17.188" y2="53.562"/>
    <linearGradient id="linearGradient2576" x1="12.75" xlink:href="#linearGradient2338" gradientUnits="userSpaceOnUse" y1="57.094" gradientTransform="translate(2.7676)" x2="14.625" y2="58.656"/>
    <linearGradient id="linearGradient2578" x1="12.562" xlink:href="#linearGradient2338" gradientUnits="userSpaceOnUse" y1="61.031" gradientTransform="translate(2.7676)" x2="14.625" y2="59"/>
    <linearGradient id="linearGradient2580" x1="20.875" xlink:href="#linearGradient2338" gradientUnits="userSpaceOnUse" y1="65.562" gradientTransform="translate(2.7676)" x2="28" y2="72.625"/>
    <linearGradient id="linearGradient3227" x1="17.062" xlink:href="#linearGradient2338" gradientUnits="userSpaceOnUse" y1="81.461" gradientTransform="translate(88.224 -28.447)" x2="31.678" y2="98.951"/>
    <linearGradient id="linearGradient3229" x1="20.875" xlink:href="#linearGradient2338" gradientUnits="userSpaceOnUse" y1="65.562" gradientTransform="translate(88.224 -28.447)" x2="28" y2="72.625"/>
    <linearGradient id="linearGradient3231" x1="12.562" xlink:href="#linearGradient2338" gradientUnits="userSpaceOnUse" y1="61.031" gradientTransform="translate(88.224 -28.447)" x2="14.625" y2="59"/>
    <linearGradient id="linearGradient3233" x1="12.75" xlink:href="#linearGradient2338" gradientUnits="userSpaceOnUse" y1="57.094" gradientTransform="translate(88.224 -28.447)" x2="14.625" y2="58.656"/>
    <linearGradient id="linearGradient3235" x1="15" xlink:href="#linearGradient2338" gradientUnits="userSpaceOnUse" y1="57.125" gradientTransform="translate(88.224 -28.447)" x2="17.188" y2="53.562"/>
    <linearGradient id="linearGradient3237" x1="19.562" xlink:href="#linearGradient2338" gradientUnits="userSpaceOnUse" y1="57.312" gradientTransform="translate(88.224 -28.447)" x2="20.438" y2="55"/>
    <linearGradient id="linearGradient3239" x1="20.562" xlink:href="#linearGradient2338" gradientUnits="userSpaceOnUse" y1="53.812" gradientTransform="translate(88.224 -28.447)" x2="22.125" y2="55.312"/>
    <linearGradient id="linearGradient3241" x1="23.969" xlink:href="#linearGradient2338" gradientUnits="userSpaceOnUse" y1="54.688" gradientTransform="translate(88.224 -28.447)" x2="23.969" y2="52.219"/>
    <linearGradient id="linearGradient3243" x1="28.625" xlink:href="#linearGradient2338" gradientUnits="userSpaceOnUse" y1="57.562" gradientTransform="translate(88.224 -28.447)" x2="28.219" y2="55.438"/>
    <linearGradient id="linearGradient3245" x1="33.75" xlink:href="#linearGradient2338" gradientUnits="userSpaceOnUse" y1="58.781" gradientTransform="translate(88.224 -28.447)" x2="30.875" y2="55.406"/>
    <linearGradient id="linearGradient3247" x1="32.062" xlink:href="#linearGradient2338" gradientUnits="userSpaceOnUse" y1="59.844" gradientTransform="translate(88.224 -28.447)" x2="34.375" y2="60.406"/>
    <linearGradient id="linearGradient3249" x1="31.625" xlink:href="#linearGradient2338" gradientUnits="userSpaceOnUse" y1="65.562" gradientTransform="translate(88.224 -28.447)" x2="30.875" y2="61.812"/>
    <linearGradient id="linearGradient3251" x1="27.438" xlink:href="#linearGradient2338" gradientUnits="userSpaceOnUse" y1="63.781" gradientTransform="translate(88.224 -28.447)" x2="26" y2="60.781"/>
    <linearGradient id="linearGradient3253" x1="23.375" xlink:href="#linearGradient2338" gradientUnits="userSpaceOnUse" y1="64.031" gradientTransform="translate(88.224 -28.447)" x2="24.438" y2="66.031"/>
    <linearGradient id="linearGradient3255" x1="21.625" xlink:href="#linearGradient2338" gradientUnits="userSpaceOnUse" y1="66.98" gradientTransform="translate(88.224 -28.447)" x2="20.875" y2="64.75"/>
    <linearGradient id="linearGradient3257" x1="17.875" xlink:href="#linearGradient2338" gradientUnits="userSpaceOnUse" y1="65.344" gradientTransform="translate(88.224 -28.447)" x2="20.062" y2="63.656"/>
    <linearGradient id="linearGradient3259" x1="15.438" xlink:href="#linearGradient2338" gradientUnits="userSpaceOnUse" y1="62.938" gradientTransform="translate(88.224 -28.447)" x2="16.25" y2="60.188"/>
    <linearGradient id="linearGradient3261" x1="21.625" xlink:href="#linearGradient2338" gradientUnits="userSpaceOnUse" y1="64.75" gradientTransform="translate(88.224 -28.447)" x2="27.5" y2="58.938"/>
    <linearGradient id="linearGradient3263" x1="18.062" xlink:href="#linearGradient2338" gradientUnits="userSpaceOnUse" y1="55.812" gradientTransform="translate(88.224 -28.447)" x2="28.25" y2="60.5"/>
    <linearGradient id="linearGradient3269" x1="44.527" xlink:href="#linearGradient2338" gradientUnits="userSpaceOnUse" y1="104.48" gradientTransform="translate(2.7676)" x2="97.831" y2="61.624"/>
    <linearGradient id="linearGradient3273" x1="80.043" xlink:href="#linearGradient2338" gradientUnits="userSpaceOnUse" y1="74.192" gradientTransform="translate(2.7676)" x2="83.907" y2="89.032"/>
    <linearGradient id="linearGradient3281" x1="68.495" xlink:href="#linearGradient2320" gradientUnits="userSpaceOnUse" y1="77.265" gradientTransform="translate(2.7676)" x2="68.81" y2="78.319"/>
    <linearGradient id="linearGradient3285" x1="68.583" xlink:href="#linearGradient2320" gradientUnits="userSpaceOnUse" y1="77.616" gradientTransform="translate(2.8115 3.4248)" x2="68.81" y2="78.319"/>
    <linearGradient id="linearGradient3289" x1="68.539" xlink:href="#linearGradient2320" gradientUnits="userSpaceOnUse" y1="77.441" gradientTransform="translate(2.8554 7.6838)" x2="68.81" y2="78.319"/>
    <linearGradient id="linearGradient3293" x1="68.495" xlink:href="#linearGradient2320" gradientUnits="userSpaceOnUse" y1="77.66" gradientTransform="translate(2.9432 11.679)" x2="68.81" y2="78.626"/>
    <linearGradient id="linearGradient3297" x1="68.539" xlink:href="#linearGradient2320" gradientUnits="userSpaceOnUse" y1="77.573" gradientTransform="translate(3.0749 15.675)" x2="68.81" y2="78.319"/>
    <linearGradient id="linearGradient3301" x1="59.055" xlink:href="#linearGradient2320" gradientUnits="userSpaceOnUse" y1="89.449" gradientTransform="translate(2.7676)" x2="59.516" y2="89.449"/>
    <linearGradient id="linearGradient3305" x1="59.055" xlink:href="#linearGradient2320" gradientUnits="userSpaceOnUse" y1="89.449" gradientTransform="translate(8.739 -2.2393)" x2="59.516" y2="89.449"/>
    <linearGradient id="linearGradient3309" x1="59.055" xlink:href="#linearGradient2320" gradientUnits="userSpaceOnUse" y1="89.449" gradientTransform="translate(14.491 -4.4785)" x2="59.516" y2="89.449"/>
    <linearGradient id="linearGradient3313" x1="59.055" xlink:href="#linearGradient2320" gradientUnits="userSpaceOnUse" y1="89.449" gradientTransform="translate(18.969 -5.664)" x2="59.516" y2="89.449"/>
    <linearGradient id="linearGradient3317" x1="59.055" xlink:href="#linearGradient2320" gradientUnits="userSpaceOnUse" y1="89.449" gradientTransform="translate(24.326 -7.4642)" x2="59.516" y2="89.449"/>
    <linearGradient id="linearGradient3321" x1="66.91" xlink:href="#linearGradient2338" gradientUnits="userSpaceOnUse" y1="63.766" gradientTransform="translate(2.7676)" x2="68.015" y2="66.86"/>
    <linearGradient id="linearGradient3367" x1="97.758" xlink:href="#linearGradient2338" gradientUnits="userSpaceOnUse" y1="53.489" gradientTransform="translate(2.7676)" x2="100.41" y2="50.395"/>
    <linearGradient id="linearGradient3369" x1="97.581" xlink:href="#linearGradient2338" gradientUnits="userSpaceOnUse" y1="54.24" gradientTransform="translate(2.7676)" x2="98.818" y2="56.229"/>
    <linearGradient id="linearGradient3371" x1="94.045" xlink:href="#linearGradient2338" gradientUnits="userSpaceOnUse" y1="56.229" gradientTransform="translate(2.7676)" x2="95.901" y2="54.019"/>
    <linearGradient id="linearGradient3373" x1="88.742" xlink:href="#linearGradient2338" gradientUnits="userSpaceOnUse" y1="56.847" gradientTransform="translate(2.7676)" x2="92.277" y2="53.135"/>
    <linearGradient id="linearGradient3375" x1="87.858" xlink:href="#linearGradient2338" gradientUnits="userSpaceOnUse" y1="57.024" gradientTransform="translate(2.7676)" x2="89.184" y2="58.704"/>
    <linearGradient id="linearGradient3377" x1="85.118" xlink:href="#linearGradient2338" gradientUnits="userSpaceOnUse" y1="58.615" gradientTransform="translate(2.7676)" x2="85.825" y2="56.582"/>
    <linearGradient id="linearGradient3379" x1="80.61" xlink:href="#linearGradient2338" gradientUnits="userSpaceOnUse" y1="59.234" gradientTransform="translate(2.7676)" x2="82.466" y2="56.317"/>
    <linearGradient id="linearGradient3381" x1="79.063" xlink:href="#linearGradient2338" gradientUnits="userSpaceOnUse" y1="59.853" gradientTransform="translate(2.7676)" x2="80.433" y2="61.886"/>
    <linearGradient id="linearGradient3383" x1="76.191" xlink:href="#linearGradient2338" gradientUnits="userSpaceOnUse" y1="63.035" gradientTransform="translate(2.7676)" x2="77.34" y2="60.56"/>
    <linearGradient id="linearGradient3385" x1="70.711" xlink:href="#linearGradient2338" gradientUnits="userSpaceOnUse" y1="61.974" gradientTransform="translate(2.7676)" x2="72.523" y2="59.322"/>
    <linearGradient id="linearGradient3387" x1="70.578" xlink:href="#linearGradient2338" gradientUnits="userSpaceOnUse" y1="62.548" gradientTransform="translate(2.7676)" x2="72.037" y2="64.36"/>
    <linearGradient id="linearGradient3389" x1="67.087" xlink:href="#linearGradient2338" gradientUnits="userSpaceOnUse" y1="64.051" gradientTransform="translate(2.7676)" x2="67.971" y2="63.035"/>
    <linearGradient id="linearGradient3391" x1="63.374" xlink:href="#linearGradient2338" gradientUnits="userSpaceOnUse" y1="64.36" gradientTransform="translate(2.7676)" x2="63.993" y2="61.797"/>
    <linearGradient id="linearGradient3393" x1="61.916" xlink:href="#linearGradient2338" gradientUnits="userSpaceOnUse" y1="64.891" gradientTransform="translate(2.7676)" x2="63.374" y2="66.57"/>
    <linearGradient id="linearGradient3395" x1="57.894" xlink:href="#linearGradient2338" gradientUnits="userSpaceOnUse" y1="66.791" gradientTransform="translate(2.7676)" x2="60.634" y2="65.421"/>
    <linearGradient id="linearGradient3397" x1="54.005" xlink:href="#linearGradient2338" gradientUnits="userSpaceOnUse" y1="67.056" gradientTransform="translate(2.7676)" x2="54.624" y2="64.802"/>
    <linearGradient id="linearGradient3399" x1="52.635" xlink:href="#linearGradient2338" gradientUnits="userSpaceOnUse" y1="67.94" gradientTransform="translate(2.7676)" x2="54.094" y2="69.575"/>
    <linearGradient id="linearGradient3401" x1="47.906" xlink:href="#linearGradient2338" gradientUnits="userSpaceOnUse" y1="69.708" gradientTransform="translate(2.7676)" x2="50.912" y2="68.338"/>
    <linearGradient id="linearGradient3403" x1="43.134" xlink:href="#linearGradient2338" gradientUnits="userSpaceOnUse" y1="69.929" gradientTransform="translate(2.7676)" x2="46.757" y2="67.366"/>
    <linearGradient id="linearGradient3405" x1="42.515" xlink:href="#linearGradient2338" gradientUnits="userSpaceOnUse" y1="70.68" gradientTransform="translate(2.7676)" x2="43.487" y2="72.006"/>
    <linearGradient id="linearGradient3407" x1="38.891" xlink:href="#linearGradient2338" gradientUnits="userSpaceOnUse" y1="73.288" gradientTransform="translate(2.7676)" x2="40.393" y2="70.901"/>
    <linearGradient id="linearGradient3409" x1="33.322" xlink:href="#linearGradient2338" gradientUnits="userSpaceOnUse" y1="71.962" gradientTransform="translate(2.7676)" x2="35.223" y2="70.194"/>
    <filter id="filter3624">
      <feGaussianBlur id="feGaussianBlur3626" stdDeviation="1.6110465"/>
    </filter>
  </defs>
  <g id="layer2" fill-rule="evenodd">
    <path id="path3411" filter="url(#filter3624)" fill-opacity=".73059" d="m98.996 48.055c1.794 0.817 2.494 2.739 0.697 0.567-3.007-0.767 3.137 2.942-0.669 1.116-2.073 1.061-0.501 1.303-2.128 0.239-0.454-2.683-9.301 2.435-2.999 1.044-0.748 1.161 0.292 2.558-0.693 0.734-4.538-1.545-0.004 3.51-1.725 2.938-1.3 2.729 3.391 3.933 3.889 6.209 0.392 2.092 2.01 4.415-1.809 5.301 3.058 0.208-1.765 0.029 0.368 1.568 1.684 1.275-5.108-1.349-6.798 0.193-2.858 0.537-3.256 1.935-4.021 2.862-2.698-1.377-9.51 0.986-6.893 1.126-2.589-0.532-0.214 1.606-2.507 2.038 1.328 1.425-2.451-1.199-3.369 0.704-2.809 0.526 5.798-1.348 0.528-1.511-2.777 0.297-4.882 1.233-4.97 2.773-2.33-0.274-7.745-0.207-7.662 0.92 2.27 1.099 8.752-1.375 3.19 0.241-1.782 0.152-5.783-0.409-2.646 1.135 4.114 0.287-2.998 0.042-4.233 0.392-4.98-0.946-5.884 2.031-5.224 1.222-3.609 0.825 5.167 2.141-0.515 1.239-3.873 0.407-7.875 2.356-11.409 1.72 0.345 1.517 3.641 1.113-0.081 1.076-2.178 0.453-7.326 2.462-7.18 1.791 2.376 0.146 6.652-1.976 1.545-1.681-4.596 1.52 0.829-2.154-1.433-3.457-0.392-2.032-1.669-6.998-6.575-5.136 1.553 2.001-4.363 0.954-0.041 1.177 0.033-1.563-5.468-0.557-3.271-1.84-1.733-0.798-8.54-0.528-4.788 1.341 1.211 1.303-3.09-2.968-1.382 0.004 2.227 1.751 1.578 0.32-1.062 0.466-1.281 1.516 0.554 0.683-1.352-0.023 0.521 0.363-2.1952-1.638-3.795-0.003-3.2306 0.837-0.6877 1.763 0.7827 1.496-0.6205 1.766 0.4897 1.305-1.0963 0.106-4.1294-0.382 0.5392 3.202-1.2913 3.378-1.1644 3.114 4.7289 4.152 4.1419 7.098 1.607 7.424 3.215 14.852 4.822 22.272 5.607 2.12 13.273 2.41 18.969 0.11 4.215-1.61 4.933-4.48 10.347-5.22 4.912-1.6 7.374-4.27 12.375-5.77-1.951-2.177 4.535-2.398 5.805-0.631-0.767-1.798 4.462-3.922 5.774-1.965-0.496-1.832 4.284-3.318 5.993-2.007-0.585-2.08 3.348-2.124 4.336-1.411 0.033-1.804 4.173-2.91 5.42-1.456-0.423-2.63 3.814-1.905 5.837-3.846 6.311-1.441 9.526-6.011 16.532-5.175 5.28 0.045 11.08-1.418 13.84-4.09-2.84-8.167-3.1-13.859-6.05-22.017 2.91-2.207-0.19-4.995-0.55-7.41-0.59-2.163-7.03-2.454-5.04 0.208-4.47-0.661 1.7 0.419-0.71-1.039-2.03-0.432-4.33-0.098-2.58-0.994-1.75-1.196-4.46-0.01-6.644-0.122zm-53.82 33.602c-2.115-1.661-10.629 1.285-4.23 1.074l4.23-1.074zm56.654-32.912c1.4-0.04-3.222 0.597 0 0zm-2.07 2.06l-1.035 0.192 1.035-0.192zm11.37-0.823c0.75 0.431 0.22 1.02 0 0zm-9.26 1.116c2.45-0.329-4.19 1.026 0 0zm2.94-0.265l1.11-0.051-1.11 0.051zm4.32 0.358c1.2 0.183 1.59 0.616 0 0zm-11.449 1.264c-0.65 0.552-2.781 1.32-0.823 0.362l0.823-0.362zm13.909-1.203c0.61 0.894-0.32 1.144 0 0zm-17.646 2.12c-1.709 0.585-2.024 0.501 0 0zm16.236-1.601c1.16 0.962 0.45 0.744 0 0zm-14.979 1.863l0.905 0.189-0.905-0.189zm16.019-0.91c0.3 0.993-1.66 0.909 0.11 0.215l-0.11-0.215zm-17.846 1.885c2.401 1.396 8.196-1.581 4.073 0.658-1.205-0.571-2.919 0.011-4.073-0.658zm4.444 0.287l-0.353 0.063 0.353-0.063zm5.822-1.31c1.01 0.903 1.68 1.308 0.15 0.236-0.11 1.628 0.04 1.006-0.15-0.236zm-3.39 1.903c4.77-0.379-5.476 0.937 0.02 1.27-3.958 0.408-2.059-0.402-0.02-1.27zm3.52-0.226c0.31 0.307-0.72-0.007 0 0zm0.37 0.354c0.92 0.69 0.27 1.544 0 0zm-2.42 4.317c3.49-0.167 4.03 0.13 0 0zm-5.399 6.747c-0.058 0.26-0.583-0.108 0 0zm-79.564 8.742c1.406-0.04-3.218 0.597 0 0zm74.705-7.237l-0.61 0.214 0.61-0.214zm0.009 0.156c0.359 1.223 0.303 2.176 0 0zm4.975 0.251c-1.708 0.538-2.468 0.64 0 0zm-9.768 1.247c2.827 1.854-6.48 2.835-0.295 1.452 1.091-0.228-0.162-0.997 0.295-1.452zm-71.987 7.643l-1.034 0.192 1.034-0.192zm11.373-0.823c0.747 0.43 0.214 1.02 0 0zm-9.263 1.116c2.452-0.329-4.19 1.026 0 0zm65.7-6.777c0.53 0.338 1.247 1.237 0.34 0.359l-0.34-0.359zm-62.763 6.512l1.112-0.051-1.112 0.051zm57.835-5.256l0.049 0.027-0.049-0.027zm-53.507 5.614c1.197 0.182 1.583 0.616 0 0zm-11.454 1.263c-0.65 0.552-2.7811 1.32-0.823 0.363l0.823-0.363zm13.906-1.203c0.609 0.895-0.313 1.145 0 0zm-17.643 2.12c-1.7089 0.586-2.0245 0.502 0 0zm16.231-1.6c1.162 0.962 0.452 0.744 0 0zm-14.974 1.863l0.905 0.188-0.905-0.188zm66.137-6.665c4.764 0.266-4.571 1.625 0.919 0.565 1.594-0.261-0.503-0.62-0.919-0.565zm-50.12 5.755c0.299 0.993-1.66 0.909 0.112 0.215l-0.112-0.215zm-17.843 1.885c2.4004 1.396 8.1994-1.581 4.0724 0.658-1.205-0.571-2.9188 0.01-4.0724-0.658zm4.4434 0.287l-0.352 0.063 0.352-0.063zm5.826-1.31c1.004 0.902 1.677 1.308 0.147 0.236-0.108 1.628 0.041 1.006-0.147-0.236zm49.481-4.156c4.584 0.293-6.088 1.561-0.931 0.764 1.173-0.24 3.956-0.587 0.931-0.764zm-52.876 6.059c4.775-0.379-5.4748 0.937 0.026 1.27-3.963 0.408-2.064-0.402-0.026-1.27zm3.522-0.227c0.306 0.308-0.717-0.006 0 0zm0.369 0.355c1.01 0.856 0.031 1.395 0 0zm36.198-3.391c-1.851 0.654-6.204 2.568-2.442 0.638 0.957 0.028 1.614-0.448 2.442-0.638zm-7.325 3.587c-1.417 0.434-2.667 0.665 0 0zm-7.113 1.305c1.016 1.672-9.338 2.525-2.546 1.207 0.889-0.271 3.312-0.312 2.546-1.207zm-24.049 2.802c3.085-0.195 5.112 0.177 0 0zm34.715-3.493c-6.65 2.037-13.301 4.074-19.951 6.111 1.085 3.029 2.964 8.213 3.555 9.903-1.564-4.139-3.128-8.278-4.693-12.418-0.107 2.35 2.197 2.698 5.1 1.258 5.33-1.618 10.659-3.236 15.989-4.854zm25.356-2.603c5.588-0.73-1.091 3.561-1.365 0.367-1.954 0.304-0.294 3.257-3.972 2.427 0.216-2.183-3.065-1.555-1.476 0.267-1.257 2.078-7.484 1.41-3.546-0.659 3.105-1.25 6.69-1.984 10.359-2.402zm2.74 1.583c2.141 2.329-6.258 2.524-1.788 0.439 0.549-0.22 1.225-0.24 1.788-0.439zm-15.429 1.812c2.481 2.534-8.762 3.913-2.831 1.259 0.875-0.471 1.852-0.868 2.831-1.259zm10.801-0.449c2.156 2.324-6.267 2.529-1.821 0.444 0.561-0.22 1.248-0.243 1.821-0.444zm-4.633 1.343c2.431 2.337-7.847 3.175-3.023 0.882 1.008-0.294 2.015-0.588 3.023-0.882zm9.854-0.567c2.731 2.299-5.258 3.772-2.63 0.714 0.939-0.15 1.739-0.498 2.63-0.714zm-21.799 2.864c-1.632 1.299-2.376 1.734 0.495 1.478-1.132 3.936-5.116-0.116-0.495-1.478zm6.252-0.627c2.403 2.095-7.689 3.585-3.669 1.077l3.669-1.077zm10.92-0.874c2.79 2.36-5.092 3.896-2.618 0.758 0.872-0.253 1.745-0.506 2.618-0.758zm-4.567 1.336c3.411 2.836-7.564 4.358-3.378 0.939 1.086-0.365 2.379-0.479 3.378-0.939zm9.926-0.064c2.673 2.189-5.196 3.658-2.607 0.731 0.95-0.128 1.719-0.515 2.607-0.731zm-15.646 1.756c3.355 2.517-6.872 4.921-4.28 1.279 1.345-0.507 2.901-0.793 4.28-1.279zm11.062-0.358c2.678 2.203-5.157 3.676-2.603 0.729 0.949-0.127 1.716-0.514 2.603-0.729zm-19.752 2.318c0.636 1.087 3.854-1.154 3.317 1.07-0.002 2.065-4.249 1.766-3.145-0.42l-0.172-0.65zm15.201-0.924c3.145 2.598-7.448 4.07-3.408 1.034 1.106-0.379 2.304-0.653 3.408-1.034zm9.83-0.29c3.028 2.29-5.629 3.349-2.308 0.735 0.769-0.245 1.539-0.49 2.308-0.735zm-15.534 2.039c3.118 2.417-7.232 4.423-3.843 1.167 1.184-0.496 2.666-0.663 3.843-1.167zm10.966-0.584c2.63 2.435-5.993 2.913-1.903 0.442 0.743 0.046 1.272-0.289 1.903-0.442zm-16.89 2.395c2.522 1.719-5.205 3.939 0.615 2.944 2.036 1.818-4.109 2.48-2.707-0.028-0.244-2.085-2.026-2.159 2.092-2.916zm12.382-0.966c2.657 2.053-6.846 3.902-3.55 1.137 1.183-0.379 2.366-0.758 3.55-1.137zm-5.688 1.806c2.61 2.135-7.386 3.694-3.503 1.115 1.168-0.371 2.335-0.743 3.503-1.115z"/>
    <path id="path2506" d="m15.61 110.39l1.407-40.487 2.568 1.284 6.055 1.345 4.036-0.306 3.425-0.917 2.385-1.345 2.323 40.726-3.485 2.63-5.627 1.72-4.831-0.25-4.281-1.53-3.975-2.87z" fill="url(#linearGradient2508)"/>
    <path id="path2510" fill="url(#linearGradient2580)" d="m14.768 61.562l-0.063 1.063 0.125 5.25 2.813 2.563 3.062 1.187 7.063 1 4.687-0.813 3.063-1.75 1.687-1.937-0.062-5.687-0.75 1.062-2 1.938-0.438-2.5-6.812 1.312-0.188 2.812-6.562-0.562 0.062-3-3.125-0.75-1.625-1.562-0.25 1.187-0.687-0.813z"/>
    <path id="path2512" d="m15.33 62.062l-0.312-0.937 0.375-2.125 2.125 0.625 0.25 0.563-1.938 0.5-0.5 1.374z" fill="url(#linearGradient2578)"/>
    <path id="path2514" d="m17.393 59.625l-2.125-0.5-0.063-2.563 2.188 0.75v2.313z" fill="url(#linearGradient2576)"/>
    <path id="path2516" d="m17.518 57.125l-2-0.75 0.562-1.063 3.625-1.75 1.75 1.563-1.75 0.5-1.375 0.875-0.812 0.625z" fill="url(#linearGradient2574)"/>
    <path id="path2518" d="m21.768 55.812l1.75-0.5 1.125 1.376-0.5 0.374-2.25 0.25-0.125-1.5z" fill="url(#linearGradient2572)"/>
    <path id="path2520" d="m23.455 55.25l-0.125-2.562 1.25 1.75 0.313 2.25-1.438-1.438z" fill="url(#linearGradient2570)"/>
    <path id="path2522" d="m23.58 52.625l1.188 1.875 1.25-0.312 3.875 0.5-1.063-1.938-4.5-0.062-0.437-0.063h-0.313z" fill="url(#linearGradient2568)"/>
    <path id="path2524" d="m29.955 55.625l1-0.187 1.188 0.5-0.063 1.624-2.25-1.062 0.125-0.875z" fill="url(#linearGradient2566)"/>
    <path id="path2526" d="m32.393 55.125l1.75-0.687 1.5 1.25 1 1.562 0.5 2h-2.875l0.312-0.938-0.562-1.187-1.625-2z" fill="url(#linearGradient2564)"/>
    <path id="path2528" d="m34.393 59.062v2.25l2.75 0.438-0.188-2.562-2.562-0.126z" fill="url(#linearGradient2562)"/>
    <path id="path2530" d="m34.455 61.312l-0.812 0.688 0.312 0.875 0.375 2.687 1.375-1.25 1.125-1.312 0.375-1.312-2.75-0.376z" fill="url(#linearGradient2560)"/>
    <path id="path2532" d="m32.83 60.312l1.063 2.5-4.313 1.188-2.375 0.125-0.687-2 2.187-0.25 2.625-0.813 1.5-0.75z" fill="url(#linearGradient2558)"/>
    <path id="path2534" d="m26.518 62.312l0.687 1.876-0.25 2.812-0.812-2.125 0.375-2.563z" fill="url(#linearGradient2556)"/>
    <path id="path2536" fill="url(#linearGradient2554)" d="m26.268 65l0.437 1.938c-2.229 0.177-4.228-0.223-6.125-0.876l2.188-1.312 1.625 0.312 1.875-0.062z"/>
    <path id="path2538" d="m20.268 66l2.562-1.312-0.25-2.376-2.062 1.126-0.25 2.562z" fill="url(#linearGradient2552)"/>
    <path id="path2540" fill="url(#linearGradient2550)" d="m20.768 63.312l-1.813-0.25-1.437-0.437-1.375-0.813-0.438-1 2.25-0.624 0.875 0.874 2.25 0.938 1.25 0.312-1.937 1.063 0.375-0.063z"/>
    <path id="path2542" d="m19.205 60.75l2.875-1.875 3.188-0.813 2.062-0.187 2.25 0.313 1.938 0.624 2.312 1.75 0.563 1-0.813 0.563-0.625-1.75-3.062 1.313-3.438 0.5-0.312 2.75-0.688 0.187-2.062-0.313-0.625-0.187-0.313-2.25-2-0.563-1.625-0.812 0.375-0.25z" fill="url(#linearGradient2548)"/>
    <path id="path2544" fill="url(#linearGradient2546)" d="m18.893 61l-1.438-0.812 0.125-2.75 1.5-1.688 2.563-0.625 0.062 2.125h1.438l1.75-0.5-0.188-2.25 2.25-0.312 3 0.687 0.063 1.813 2.187 1-0.062-2.5 1.187 0.874 0.938 1.438 0.187 1.625-0.187 1.937-1.75-1.624-3.5-1.438-3.563-0.062-2.75 0.812-2.625 1.188-1.187 1.062z"/>
    <path id="path2584" fill-opacity=".15686" d="m15.33 62.062l-0.312-0.937 0.375-2.125 2.125 0.625 0.25 0.563-1.938 0.5-0.5 1.374z"/>
    <path id="path2586" fill-opacity=".15686" d="m17.393 59.625l-2.125-0.5-0.063-2.563 2.188 0.75v2.313z"/>
    <path id="path2588" fill-opacity=".15686" d="m23.455 55.25l-0.125-2.562 1.25 1.75 0.313 2.25-1.438-1.438z"/>
    <path id="path2590" fill-opacity=".15686" d="m34.393 59.062v2.25l2.75 0.438-0.188-2.562-2.562-0.126z"/>
    <path id="path2592" fill-opacity=".15686" d="m18.893 61l-1.438-0.812 0.125-2.75 1.5-1.688 2.563-0.625 0.062 2.125h1.438l1.75-0.5-0.188-2.25 2.25-0.312 3 0.687 0.063 1.813 2.187 1-0.062-2.5 1.187 0.874 0.938 1.438 0.187 1.625-0.187 1.937-1.75-1.624-3.5-1.438-3.563-0.062-2.75 0.812-2.625 1.188-1.187 1.062z"/>
    <path id="path2582" fill-opacity=".15686" d="m14.768 61.562l-0.063 1.063 0.125 5.25 2.813 2.563 3.062 1.187 7.063 1 4.687-0.813 3.063-1.75 1.687-1.937-0.062-5.687-0.75 1.062-2 1.938-0.438-2.5-6.687 1.312-0.313 2.812-6.562-0.562 0.062-3-3.125-0.75-1.625-1.562-0.25 1.187-0.687-0.813z"/>
    <path id="path3172" fill="#d59163" d="m29.705 89.812l4.813-1.25-0.438-2.25-0.937-2.437-1.563-2.375-1.187 2.125-0.75 2.375v1.625l0.062 2.187z"/>
    <path id="path3174" d="m101.07 81.94l1.4-40.485 2.57 1.285 6.06 1.345 4.03-0.306 3.43-0.917 2.38-1.346 2.33 40.73-3.49 2.629-5.63 1.713-4.83-0.245-4.28-1.529-3.97-2.874z" fill="url(#linearGradient3227)"/>
    <path id="path3176" fill="url(#linearGradient3229)" d="m100.22 33.115l-0.06 1.063 0.13 5.25 2.81 2.562 3.06 1.188 7.06 1 4.69-0.813 3.06-1.75 1.69-1.937-0.06-5.688-0.75 1.063-2 1.937-0.44-2.5-6.81 1.313-0.19 2.812-6.56-0.562 0.06-3-3.12-0.75-1.63-1.563-0.25 1.188-0.69-0.813z"/>
    <path id="path3178" d="m100.79 33.615l-0.32-0.937 0.38-2.125 2.12 0.625 0.25 0.562-1.93 0.5-0.5 1.375z" fill="url(#linearGradient3231)"/>
    <path id="path3180" d="m102.85 31.178l-2.13-0.5-0.06-2.563 2.19 0.75v2.313z" fill="url(#linearGradient3233)"/>
    <path id="path3182" d="m102.97 28.678l-2-0.75 0.57-1.063 3.62-1.75 1.75 1.563-1.75 0.5-1.37 0.875-0.82 0.625z" fill="url(#linearGradient3235)"/>
    <path id="path3184" d="m107.22 27.365l1.75-0.5 1.13 1.375-0.5 0.375-2.25 0.25-0.13-1.5z" fill="url(#linearGradient3237)"/>
    <path id="path3186" d="m108.91 26.803l-0.12-2.563 1.25 1.75 0.31 2.25-1.44-1.437z" fill="url(#linearGradient3239)"/>
    <path id="path3188" d="m109.04 24.178l1.18 1.875 1.25-0.313 3.88 0.5-1.06-1.937-4.5-0.063-0.44-0.062h-0.31z" fill="url(#linearGradient3241)"/>
    <path id="path3190" d="m115.41 27.178l1-0.188 1.19 0.5-0.06 1.625-2.25-1.062 0.12-0.875z" fill="url(#linearGradient3243)"/>
    <path id="path3192" d="m117.85 26.678l1.75-0.688 1.5 1.25 1 1.563 0.5 2h-2.88l0.32-0.938-0.57-1.187-1.62-2z" fill="url(#linearGradient3245)"/>
    <path id="path3194" d="m119.85 30.615v2.25l2.75 0.438-0.19-2.563-2.56-0.125z" fill="url(#linearGradient3247)"/>
    <path id="path3196" d="m119.91 32.865l-0.81 0.688 0.31 0.875 0.38 2.687 1.37-1.25 1.13-1.312 0.37-1.313-2.75-0.375z" fill="url(#linearGradient3249)"/>
    <path id="path3198" d="m118.29 31.865l1.06 2.5-4.31 1.188-2.38 0.125-0.69-2 2.19-0.25 2.63-0.813 1.5-0.75z" fill="url(#linearGradient3251)"/>
    <path id="path3200" d="m111.97 33.865l0.69 1.875-0.25 2.813-0.81-2.125 0.37-2.563z" fill="url(#linearGradient3253)"/>
    <path id="path3202" fill="url(#linearGradient3255)" d="m111.72 36.553l0.44 1.937c-2.23 0.178-4.23-0.222-6.12-0.875l2.18-1.312 1.63 0.312 1.87-0.062z"/>
    <path id="path3204" d="m105.72 37.553l2.57-1.313-0.25-2.375-2.07 1.125-0.25 2.563z" fill="url(#linearGradient3257)"/>
    <path id="path3206" fill="url(#linearGradient3259)" d="m106.22 34.865l-1.81-0.25-1.44-0.437-1.37-0.813-0.44-1 2.25-0.625 0.88 0.875 2.25 0.938 1.25 0.312-1.94 1.063 0.37-0.063z"/>
    <path id="path3208" d="m104.66 32.303l2.88-1.875 3.18-0.813 2.07-0.187 2.25 0.312 1.93 0.625 2.32 1.75 0.56 1-0.81 0.563-0.63-1.75-3.06 1.312-3.44 0.5-0.31 2.75-0.69 0.188-2.06-0.313-0.63-0.187-0.31-2.25-2-0.563-1.62-0.812 0.37-0.25z" fill="url(#linearGradient3261)"/>
    <path id="path3210" fill="url(#linearGradient3263)" d="m104.35 32.553l-1.44-0.813 0.13-2.75 1.5-1.687 2.56-0.625 0.06 2.125h1.44l1.75-0.5-0.19-2.25 2.25-0.313 3 0.688 0.06 1.812 2.19 1-0.06-2.5 1.19 0.875 0.93 1.438 0.19 1.625-0.19 1.937-1.75-1.625-3.5-1.437-3.56-0.063-2.75 0.813-2.62 1.187-1.19 1.063z"/>
    <path id="path3212" fill-opacity=".15686" d="m100.79 33.615l-0.32-0.937 0.38-2.125 2.12 0.625 0.25 0.562-1.93 0.5-0.5 1.375z"/>
    <path id="path3214" fill-opacity=".15686" d="m102.85 31.178l-2.13-0.5-0.06-2.563 2.19 0.75v2.313z"/>
    <path id="path3216" fill-opacity=".15686" d="m108.91 26.803l-0.12-2.563 1.25 1.75 0.31 2.25-1.44-1.437z"/>
    <path id="path3218" fill-opacity=".15686" d="m119.85 30.615v2.25l2.75 0.438-0.19-2.563-2.56-0.125z"/>
    <path id="path3221" fill-opacity=".15686" d="m104.35 32.553l-1.44-0.813 0.13-2.75 1.5-1.687 2.56-0.625 0.06 2.125h1.44l1.75-0.5-0.19-2.25 2.25-0.313 3 0.688 0.06 1.812 2.19 1-0.06-2.5 1.19 0.875 0.93 1.438 0.19 1.625-0.19 1.937-1.75-1.625-3.5-1.437-3.56-0.063-2.75 0.813-2.62 1.187-1.19 1.063z"/>
    <path id="path3223" fill-opacity=".15686" d="m100.22 33.115l-0.06 1.063 0.13 5.25 2.81 2.562 3.06 1.188 7.06 1 4.69-0.813 3.06-1.75 1.69-1.937-0.06-5.688-0.75 1.063-2 1.937-0.44-2.5-6.69 1.313-0.31 2.812-6.56-0.562 0.06-3-3.12-0.75-1.63-1.563-0.25 1.188-0.69-0.813z"/>
    <path id="path3225" fill="#d59163" d="m114.6 61.388l4.81-1.25-0.43-2.25-0.94-2.438-1.56-2.375-1.19 2.125-0.75 2.375v1.625l0.06 2.188z"/>
    <path id="path3266" d="m58.83 101.88l-21.25 7.43-1.437-30.748 25.312-8.124 44.435-14 0.07 28.624-18.317 6.626-0.063-18.626-8.125-1-6.687 0.938-7.875 3.812-5.938 4.876-0.125 20.192z" fill="url(#linearGradient3269)"/>
    <path id="path3271" d="m82.371 72.194c0.571 0.088 5.401 0.79 5.401 0.79l-0.176 18.573-5.225-2.195v-17.168z" fill="url(#linearGradient3273)"/>
    <path id="path3275" fill-opacity=".15686" d="m82.371 72.194c0.571 0.088 5.401 0.79 5.401 0.79l-0.176 18.573-5.225-2.195v-17.168z"/>
    <path id="path3277" fill-opacity=".12549" fill="#fff" d="m56.293 102.73v-21.673l3.291-3.415 4.595-3.478 4.471-2.111 4.222-1.366 5.65-0.931 3.416-0.125 5.402 0.435 2.794 0.745-0.124 19.746-2.422 1.056v-18.628l-6.458-0.87-5.278 0.186-3.974 1.242-6.457 2.733-6.086 5.029-0.496 0.683 0.062 19.992-2.608 0.75z"/>
    <path id="path3279" d="m59.408 82.029l26.256-7.859 0.396-0.308s0.043-0.263-0.088-0.439c-0.132-0.175-0.264-0.483-0.264-0.483l-24.324 6.982-2.108 1.8 0.132 0.307z" fill="url(#linearGradient3281)"/>
    <path id="path3283" fill="url(#linearGradient3285)" d="m58.969 85.761l26.739-8.167 0.395-0.307s0.044-0.263-0.087-0.439c-0.132-0.176-0.352-0.527-0.352-0.527l-26.739 8.079 0.044 1.361z"/>
    <path id="path3287" fill="url(#linearGradient3289)" d="m58.969 90.459l26.783-8.606 0.395-0.307s0.22-0.351 0.088-0.527c-0.132-0.175-0.439-0.527-0.439-0.527l-26.959 8.914 0.132 1.053z"/>
    <path id="path3291" fill="url(#linearGradient3293)" d="m59.101 94.938l26.739-9.089 0.439-0.219s0.22-0.308 0.044-0.659c-0.098-0.196-0.307-0.395-0.307-0.395l-27.003 8.957 0.088 1.405z"/>
    <path id="path3295" fill="url(#linearGradient3297)" d="m58.881 98.582l27.091-8.737 0.395-0.308s0.219-0.351 0.088-0.527c-0.132-0.175-0.571-0.395-0.571-0.395l-27.091 8.562 0.088 1.405z"/>
    <path id="path3299" d="m61.515 79.307l0.088 20.505 0.395 0.268 0.439-0.137 0.615-0.79-0.439-20.329-1.098 0.483z" fill="url(#linearGradient3301)"/>
    <path id="path3303" fill="url(#linearGradient3305)" d="m67.399 75.619l0.176 21.953 0.395 0.264 0.439-0.132 0.483-0.571-0.176-22.305-1.317 0.791z"/>
    <path id="path3307" fill="url(#linearGradient3309)" d="m73.107 73.379l0.219 21.954 0.396 0.395 0.702-0.088 0.351-0.922-0.263-21.822-1.405 0.483z"/>
    <path id="path3311" fill="url(#linearGradient3313)" d="m77.717 72.457l0.088 21.691 0.395 0.263 0.439-0.132 0.615-0.79-0.044-21.119-1.493 0.087z"/>
    <path id="path3315" fill="url(#linearGradient3317)" d="m83.03 72.106l0.132 20.241 0.395 0.264 0.615-0.044 0.439-0.878-0.088-19.407-1.493-0.176z"/>
    <path id="path3319" d="m35.648 73.376l4.596-1.591 0.442 2.21 5.657-1.326-0.442-2.475 5.127-1.149 0.265 2.033 5.48-1.591-0.089-1.945 4.331-1.325 0.354 1.944 4.596-1.503v-2.209l3.978-0.884 0.265 1.502 4.508-0.53-0.354-2.298 4.331-1.326 0.354 1.856 4.154-0.618-0.177-2.917 4.773-1.238 1.061 2.033 3.447-0.972-0.265-2.386 4.861-1.68-0.177 2.652 4.686-1.149 0.09-3.005s4.33-2.122 4.33-1.768c0 0.353 0.09 4.773 0.09 4.773l-49.766 15.645-20.064 6.364-0.442-5.127z" fill="url(#linearGradient3321)"/>
    <path id="path3323" fill="url(#linearGradient3409)" d="m35.736 73.111l-0.265-2.033 2.387-0.884 2.651 1.326-4.773 1.591z"/>
    <path id="path3325" fill="url(#linearGradient3407)" d="m40.156 71.785l3.093-0.884 2.917 1.414-5.48 1.503-0.53-2.033z"/>
    <path id="path3327" d="m43.249 70.636v-1.856l2.74 1.414 0.266 2.387-3.006-1.945z" fill="url(#linearGradient3405)"/>
    <path id="path3329" d="m43.603 68.603l4.861-1.237 2.21 1.414-4.773 1.149-2.298-1.326z" fill="url(#linearGradient3403)"/>
    <path id="path3331" d="m50.674 68.78l3.182-0.442 2.828 1.326-5.656 1.414-0.354-2.298z" fill="url(#linearGradient3401)"/>
    <path id="path3333" d="m53.944 66.305l0.177 2.033 2.74 1.237-0.353-2.121-2.564-1.149z" fill="url(#linearGradient3399)"/>
    <path id="path3335" d="m53.944 65.863l4.597-1.061 2.298 1.238-4.243 1.502-2.652-1.679z" fill="url(#linearGradient3397)"/>
    <path id="path3337" d="m60.662 65.863l2.917-0.442 2.563 1.326-4.773 1.414-0.707-2.298z" fill="url(#linearGradient3395)"/>
    <path id="path3339" d="m63.225 63.211l0.354 2.122 2.563 1.237-0.177-2.21-2.74-1.149z" fill="url(#linearGradient3393)"/>
    <path id="path3341" d="m63.402 63.035l4.331-1.238 2.386 1.503-3.889 1.06-2.828-1.325z" fill="url(#linearGradient3391)"/>
    <path id="path3343" d="m69.854 63.211l2.122-0.176 2.651 1.414-4.419 0.618-0.354-1.856z" fill="url(#linearGradient3389)"/>
    <path id="path3345" d="m71.887 63.123l0.177-2.387 2.387 1.061 0.353 2.563-2.917-1.237z" fill="url(#linearGradient3387)"/>
    <path id="path3347" d="m71.976 60.736l4.507-1.414 2.122 1.326-3.889 1.326-2.74-1.238z" fill="url(#linearGradient3385)"/>
    <path id="path3349" fill="url(#linearGradient3383)" d="m78.958 60.56l1.768 0.176 2.21 1.238-3.624 0.795-0.354-2.209z"/>
    <path id="path3351" d="m80.461 57.82v2.916l2.74 1.15-0.177-2.741-2.563-1.325z" fill="url(#linearGradient3381)"/>
    <path id="path3353" d="m80.549 57.82l2.564 1.414 5.038-1.326-2.74-1.591-4.862 1.503z" fill="url(#linearGradient3379)"/>
    <path id="path3355" d="m87.886 57.908l1.767-0.442 2.475 1.414-3.447 0.884-0.795-1.856z" fill="url(#linearGradient3377)"/>
    <path id="path3357" d="m89.565 57.554l-0.265-2.209 2.651 1.237-0.088 2.122-2.298-1.15z" fill="url(#linearGradient3375)"/>
    <path id="path3359" d="m89.3 55.522l5.657-2.387 2.386 1.679-5.392 2.033-2.651-1.325z" fill="url(#linearGradient3373)"/>
    <path id="path3361" d="m96.901 54.726l2.21 0.265 2.739 1.326-5.037 1.414 0.088-3.005z" fill="url(#linearGradient3371)"/>
    <path id="path3363" fill="url(#linearGradient3369)" d="m99.111 54.814l0.177-2.563 2.302 1.238-0.18 2.74-2.299-1.415z"/>
    <path id="path3365" d="m98.934 51.809l4.686-1.414 2.3 1.414-4.51 1.68-2.476-1.68z" fill="url(#linearGradient3367)"/>
  </g>
  <g id="layer1">
    <path id="path2312" fill-rule="evenodd" d="m111.55 24.031c-0.95 0.007-1.89 0.055-2.84 0.094l0.12 2.625c-0.47 0.283-1.1 0.246-1.62 0.406l-0.04-0.531-1.9-1.781c-1.46 0.754-3.01 1.051-4.91 3.156l0.19 2.469c-0.806 2.871-0.56 6.081-0.38 9.031 0.44 0.915 1.23 1.537 2.04 2.125l-0.29 9.156-3.309 0.938 0.125 2.875-1.343-0.25-2.594-1.469-5.969 2.375 0.281 2.062-1.125 0.282-2.468-1.375-5.594 1.469 0.437 2.781h-1.312l-0.281-0.031-2.375-1.469-4.907 1.593 0.313 2.126-1.719 0.281-2.5-1.375-4.531 1.187 0.312 2.438-2.343 0.656-2.563-1.313-4.719 1.376 0.063 2.093-2.75 0.625v-0.031l-0.188 0.063-2.437-1.438-5.375 1.281 0.094 2.157-2.344 0.75-0.375-0.344-2.375-1.282-2.156 0.594-0.032-0.5c0.682-0.548 1.249-1.19 1.594-1.937 0.072-3.285-0.105-5.836-0.156-8.75-0.027-1.033-0.376-2.087-1-3.031-0.797-1.079-1.546-1.347-2.281-1.907l-2.032 0.719v0.719c-0.641-0.344-1.164-0.299-1.75-0.313l-0.125-0.562-1.156-2.156c-0.945-0.149-1.891-0.194-2.844-0.188-0.952 0.006-1.893 0.055-2.843 0.094l0.125 2.625c-0.475 0.283-1.099 0.246-1.625 0.406l-0.032-0.531-1.906-1.782c-1.455 0.755-3.01 1.052-4.906 3.157l0.187 2.469c-0.805 2.871-0.559 6.08-0.375 9.031 0.432 0.915 1.23 1.536 2.032 2.125l-1.375 40.496c6.144 6.81 17.688 5.62 22.562 0.35l-0.062-1.41 21.343-7.62-0.031-3.191 2.313-0.75v1.937c0.491 0.534 1.203 0.364 1.593-0.625l-0.031-1.781 4.438-1.469 0.031 1.75c0.689 0.592 0.902 0.587 1.562-0.75v-1.5l3.969-1.281v1.438c0.545 0.554 1.741 0.396 1.813-0.876v-1.124l2.687-0.876c-0.002 0.27 0.002 1.348 0 1.532 0.414 0.394 0.988 0.531 1.75-0.813v-1.312l3.656-1.157v1.563c1.728 0.567 1.61-0.434 1.688-0.656v-1.344l2.844 1.281 17.902-6.5c6.21 2.79 14.14 1.2 17.97-2.937l-2.09-41.031c0.68-0.549 1.25-1.191 1.59-1.938 0.07-3.285-0.1-5.836-0.15-8.75-0.03-1.033-0.38-2.087-1-3.031-0.8-1.079-1.55-1.346-2.28-1.907l-2.04 0.719v0.719c-0.64-0.344-1.16-0.299-1.75-0.312l-0.12-0.563-1.16-2.156c-0.94-0.148-1.89-0.194-2.84-0.188zm-0.81 0.438c0.36-0.011 0.7 0.003 1.12 0 0.83-0.006 1.58 0.036 2.38 0.219l0.68 1.25c-1.47-0.291-2.74-0.714-4.65-0.219l-0.66-1.125c0.4-0.08 0.77-0.115 1.13-0.125zm-1.72 0.187l0.84 1.25 0.28 1.875-0.97-1.219-0.15-1.906zm-3.88 0.688l1.19 1.125c-1.43 0.396-2.42 0.775-3.41 2.187l-1.65-0.906c1.03-1.29 2.21-1.746 3.87-2.406zm7 0.687c1.07 0.021 2.02 0.279 3.03 0.469l0.13 1.75c0.88 0.296 2.01 1.26 2.5 1.219l-0.19-2.625c0.81 0.563 1.49 1.328 1.81 1.937 0.36 0.656 0.46 1.318 0.22 2.063l-0.06 1.344c-2.2-2.601-5.43-3.29-8.69-2.907-2.37 0.393-4.88 1.154-6.59 2.938l-1.09-0.688-0.07-0.25-0.09-2c0.88-1.443 2.24-1.963 3.78-2.406l0.22 2.031c0.72 0.023 1.52 0.044 3.41-0.562l-0.22-2.094c0.62-0.203 1.26-0.189 1.9-0.219zm7.25 0.469c0.74 0.541 1.42 0.72 1.97 1.375 0.54 0.643 0.9 1.558 0.91 2.656l-2.13-0.062c0.17-0.734-0.08-1.16-0.43-1.813-0.36-0.651-0.72-1.344-1.5-1.906l1.18-0.25zm-10.43 0.562l0.81 1.157c-0.74 0.293-1.36 0.565-2.28 0.469l-0.03-1.219c0.63 0.022 0.95-0.078 1.5-0.407zm7 0.25c0.49-0.011 0.97 0.126 1.46 0.438l0.04 1.219c-0.52-0.345-1.2-0.811-1.82-0.969l0.03-0.656c0.1-0.009 0.19-0.029 0.29-0.032zm-15.16 0.876l1.87 0.906 0.07 1.937c-0.57-0.116-1.1-0.166-1.82-0.656l-0.12-2.187zm11.37 1.5c2.86-0.049 5.41 0.567 7.25 2.937 0.02 0.298-0.1 0.401-0.28 0.594l-0.78-1.531c-2.03 0.983-4.12 1.865-6.59 1.874l-0.28 2.876c-1.11-0.007-1.85 0.092-3.07-0.376l-0.25-2.343c-1.53-0.28-2.76-0.683-3.5-1.157 1.67-1.681 4.01-2.426 6.29-2.812 0.41-0.03 0.81-0.056 1.21-0.062zm10.19 1.156l-0.03 2.25-2.44-0.406 0.1-1.75 2.37-0.094zm-21.4 0.187l1.78 0.407 0.12 0.25-1.84 0.468-0.28 1.282c-0.1-0.672-0.01-1.733 0.22-2.407zm2.34 1.031c0.71 0.86 1.89 1.4 4 1.844l-1.5 0.75c-1.52-0.504-3.05 0.02-4.22-2l1.72-0.594zm14.91 0.094l0.68 1.906c-2.19 0.623-3.83 1.383-6.15 1.313l-0.44-1.437c1.89-0.176 3.79-0.667 5.91-1.782zm1.75 1.032l2.43 0.25c-0.21 1.465-1.38 2.412-2.5 3.218l-0.28-2.375-0.25-0.562c0.34-0.147 0.47-0.216 0.6-0.531zm-18.79 0.187c1.07 1.44 2.9 1.353 4.5 1.937l-0.06 2.657c1.37 0.437 2.51 0.73 7 0.843l0.1-2.718c2.46 0.058 4.33-0.894 6.53-1.5l0.4 2.844c1.26-0.814 2.17-1.386 2.82-2.75 0.14 1.708 0.01 2.67-0.13 4.437-2.27 3.674-6.81 4.605-10.75 4.656-3.85-0.198-8.33-0.912-10.72-4.343-0.17-2.141-0.81-4.331-0.37-5.907l0.43 1.063 0.25-1.219zm10.72 0.75l0.47 1.594-0.19 2.343-0.34-1.687 0.06-2.25zm-3.97 0.063l0.07 1.843-1.88 1.125 0.1-1.812 1.71-1.156zm0.41 2.218c1.28 0.487 2.1 0.427 3.22 0.438l0.25 1.406c-1.92 0.083-3.65-0.04-5.41-0.75l1.94-1.094zm-5.5 5.5c2.71 1.56 5.56 2.174 8.63 2.313 3.25 0.02 6.42-0.354 9.18-2.188 0.86 6.903 1.86 33.222 2.28 40.188-6.84 5.155-12.69 4.649-16.75 2.843l-0.06-28.437v-5l-2.56-1.313-1.16 0.313c0.13-3.266 0.28-7.162 0.44-8.719zm0.38 8.813l2.31 0.969-4.19 1.374-1.937-0.968 3.817-1.375zm2.46 1.281v4.344l-69.371 21.781-0.25-4.781 4.031-1.438 0.281 2.25 6.157-1.5-0.282-2.281 4.594-1.063 0.125 2.063 6.094-1.687-0.25-2.094 3.969-1.25 0.187 2.125 5.375-1.531-0.062-2.219 3.656-1.157 0.219 1.844 4.812-0.75-0.219-2.5 3.907-1.062 0.375 1.937 4.312-0.781-0.062-2.688 4.468-1.25 0.594 1.907 4.063-1 0.031-2.407 3.969-1.656 0.406 2.906 5.061-1.437 0.06-3.125 3.75-1.5zm-6.371 0.562l1.971 0.938 0.09 2.188-2.124-1.094 0.063-2.032zm17.031 0.25c-1.37 2.52-2.32 3.814-2.06 8.844l5.4-1.312c-0.47-1.557-0.7-2.679-1.12-4.25-0.51-1.582-1.14-2.037-2.22-3.282zm-91.031 0.126c0.359-0.011 0.708 0.002 1.125 0 0.833-0.006 1.582 0.036 2.375 0.218l0.687 1.25c-1.477-0.29-2.744-0.713-4.656-0.218l-0.656-1.126c0.397-0.079 0.766-0.114 1.125-0.124zm-1.719 0.187l0.844 1.25 0.281 1.875-0.969-1.219-0.156-1.906zm92.81 0.375c0.79 0.751 1.34 1.672 1.69 2.781 0.37 1.152 0.62 2.434 0.97 3.688l-4.28 1.125c0.11-2.829 0.25-5.542 1.62-7.594zm-22.31 0.031l2.656 1.219-4.843 1.719-2.032-1.063 4.219-1.875zm-74.375 0.281l1.188 1.126c-1.429 0.396-2.421 0.775-3.407 2.187l-1.656-0.906c1.033-1.29 2.214-1.746 3.875-2.407zm7 0.688c1.069 0.02 2.016 0.278 3.031 0.469l0.125 1.75c0.877 0.295 2.016 1.26 2.5 1.219l-0.187-2.626c0.807 0.564 1.484 1.329 1.812 1.938 0.354 0.656 0.455 1.318 0.219 2.062l-0.062 1.344c-2.2-2.6-5.43-3.289-8.688-2.906-2.369 0.393-4.886 1.154-6.594 2.938l-1.093-0.688-0.063-0.25-0.094-2c0.878-1.443 2.238-1.963 3.782-2.406l0.218 2.031c0.717 0.023 1.517 0.043 3.407-0.563l-0.219-2.093c0.621-0.203 1.266-0.189 1.906-0.219zm70.563 0.375l1.968 0.375 2.034 0.938-4.127 1.187 0.125-2.5zm-63.313 0.094c0.741 0.541 1.419 0.72 1.969 1.375 0.54 0.643 0.894 1.558 0.906 2.656l-2.125-0.062c0.165-0.734-0.085-1.16-0.437-1.813-0.352-0.651-0.718-1.344-1.5-1.906l1.187-0.25zm-10.437 0.562l0.812 1.157c-0.734 0.292-1.356 0.564-2.281 0.468l-0.031-1.218c0.634 0.022 0.959-0.078 1.5-0.407zm7 0.25c0.494-0.011 0.974 0.125 1.468 0.438l0.032 1.219c-0.512-0.345-1.196-0.811-1.813-0.969l0.031-0.657c0.093-0.008 0.189-0.029 0.282-0.031zm59.281 0.125l1.656 0.782 0.25 1.718-1.937-1.031 0.031-1.469zm-74.438 0.75l1.875 0.906 0.063 1.938c-0.567-0.116-1.097-0.166-1.813-0.656l-0.125-2.188zm90.309 0.063l-0.03 28.125-15.529 5.562 0.032-19.781c-2.613-0.633-6.005-1.101-8.938-1.094-8.798 0.022-18.383 3.245-25 11.438l0.094 21.501-18.438 6.59-1.562-30.529 69.371-21.812zm-20.559 0.219l2 0.937-4.093 1.063-1.782-0.907 3.875-1.093zm4.532 0.906l2.093 1.031-2.812 0.594-0.625-1.469 1.344-0.156zm-62.907 0.312c2.853-0.048 5.404 0.568 7.25 2.938 0.019 0.298-0.104 0.401-0.281 0.594l-0.781-1.532c-2.032 0.984-4.119 1.866-6.594 1.875l-0.281 2.875c-1.108-0.006-1.851 0.093-3.063-0.375l-0.25-2.343c-1.536-0.281-2.76-0.683-3.5-1.157 1.666-1.681 4.008-2.426 6.282-2.812 0.419-0.031 0.811-0.056 1.218-0.063zm53.907 0.094l1.937 0.906 0.375 2.563-2.25-1.157-0.062-2.312zm-43.719 1.062l-0.031 2.25-2.438-0.406 0.094-1.75 2.375-0.094zm-21.406 0.188l1.781 0.406 0.125 0.25-1.844 0.469-0.281 1.281c-0.1-0.671-0.007-1.732 0.219-2.406zm60.5 0.219l1.906 0.969-3.313 1.093-2.125-1.093 3.532-0.969zm-58.157 0.812c0.708 0.859 1.888 1.4 4 1.844l-1.5 0.75c-1.522-0.504-3.044 0.02-4.218-2l1.718-0.594zm14.907 0.094l0.687 1.906c-2.191 0.622-3.837 1.383-6.156 1.313l-0.438-1.438c1.894-0.175 3.787-0.666 5.907-1.781zm47.531 0.281l2.187 1.032-2.843 0.593-0.438-1.531 1.094-0.094zm-8.156 0.125l1.968 0.938 0.313 2.093-2.125-1-0.156-2.031zm-37.625 0.625l2.437 0.25c-0.217 1.466-1.378 2.412-2.5 3.219l-0.281-2.375-0.25-0.562c0.338-0.147 0.471-0.216 0.594-0.532zm-18.782 0.188c1.066 1.44 2.9 1.352 4.5 1.937l-0.062 2.657c1.369 0.436 2.506 0.73 7 0.843l0.094-2.719c2.46 0.059 4.333-0.893 6.531-1.5l0.406 2.844c1.254-0.813 2.167-1.386 2.813-2.75 0.14 1.708 0.014 2.671-0.125 4.438-2.272 3.674-6.811 4.604-10.75 4.656-3.851-0.198-8.33-0.912-10.719-4.344-0.171-2.14-0.81-4.33-0.375-5.906l0.437 1.062 0.25-1.218zm51.563 0.344l2.156 0.968-3.719 0.969-1.75-0.875 3.313-1.062zm-40.844 0.406l0.469 1.594-0.188 2.343-0.343-1.687 0.062-2.25zm-3.969 0.062l0.063 1.844-1.875 1.125 0.094-1.813 1.718-1.156zm47.813 0.563l1.344 0.062 2.156 1.031-3.031 0.532-0.469-1.625zm-6.656 0.375l2.093 1 0.219 1.75-2.25-1.188-0.062-1.562zm-40.75 1.281c1.28 0.487 2.1 0.427 3.218 0.437l0.25 1.407c-1.919 0.083-3.653-0.041-5.406-0.75l1.938-1.094zm35.25 0.094l2.218 1.187-3.843 1.125-2.157-1.125 3.782-1.187zm5.343 0.656l2.219 1.031-4.312 1.156-0.282-1.718 2.375-0.469zm-9.25 1l2.125 1.031 0.063 1.625-2-1.062-0.188-1.594zm-6.031 1.313l2.094 0.874-4.438 1.032-1.843-0.938 4.187-0.968zm5.5 0.5l2.25 1.062-4.531 1.125-0.313-1.75 2.594-0.437zm-10.062 0.812l2.031 0.969 0.094 1.687-1.938-1.031-0.187-1.625zm38 0.531c2.947 0.004 5.748 0.393 8.25 1.094l-0.125 19.656-1.75 0.625 0.031-18.718c-2.582-0.489-5.44-0.81-7.969-0.75-7.586 0.179-14.899 3.039-21.656 9.968l-0.031 20.064-1.844 0.66-0.125-21.192c6.32-8.065 16.375-11.418 25.219-11.407zm-64.25 0.594c2.706 1.559 5.556 2.174 8.625 2.313 3.259 0.02 6.421-0.354 9.187-2.188 0.858 6.902 1.862 33.22 2.281 40.19-10.268 7.73-18.356 2.83-21.406-0.28 0.287-6.9 0.645-33.397 1.313-40.035zm20.062 0.156l2.375 0.907-3.844 1.187-0.062-1.406 1.531-0.688zm5.969 0.531l2.406 1.219-4.875 1.157-0.25-1.813 2.719-0.563zm36.375 1.438c0.921-0.013 1.536 0.017 2.469 0.094v1.156l-2.907 0.844v-2.063c0.148-0.004 0.29-0.029 0.438-0.031zm-0.781 0.031l-0.063 20.907c-0.493 0.928-0.766 0.869-1.031 0.656l0.031-21.5c0.355-0.03 0.706-0.047 1.063-0.063zm-1.344 0.094c-0.004 0.842 0.003 1.536 0 2.469l-3.031 0.906-0.032-2.906c1.012-0.218 2.039-0.373 3.063-0.469zm4.937 0c0.095 0.009 0.214 0.021 0.313 0.031v0.906l-0.313 0.094v-1.031zm0.594 0.063c0.337 0.036 0.672 0.108 1.031 0.156l0.094 19.187c-0.301 0.834-0.862 0.288-1.156 0.25l0.031-19.593zm1.406 0.187c0.152 0.021 0.285 0.039 0.438 0.063l-0.438 0.124v-0.187zm0.969 0.219c0.242 0.292 0.529 0.561-0.031 0.968l-0.938 0.282v-0.969l0.969-0.281zm-11.219 0.031l0.313 21.687c-0.177 1.213-0.829 0.505-1.219 0.532l-0.25-21.906c0.389-0.108 0.765-0.225 1.156-0.313zm11.657 0c0.376 0.068 0.785 0.11 1.125 0.187l0.281 17.876-2.125-0.876 0.781-0.25c0.807-0.319 0.747-1.529-0.156-1.656l-1.25 0.406v-2.374l1.437-0.5c0.375-0.018 0.707-1.547-0.156-1.626l-1.312 0.438v-2.312l1.187-0.376c1.035-0.788 0.447-1.801-0.094-1.812l-1.093 0.344v-2.375l1.312-0.407c0.489-0.781 0.321-1.502-0.25-1.656l-1.094 0.313v-1.813l1.219-0.344c0.317-0.425 0.336-0.813 0.188-1.187zm-13.094 0.406l0.031 2.938-3.969 1.187v-2.656c1.297-0.607 2.616-1.089 3.938-1.469zm10 0.344v0.969l-3.563 1.062v-1.031l3.563-1zm0 1.281l0.031 1.844-0.312 0.094-0.032-1.844 0.313-0.094zm-14.313 0.032l0.125 21.656c-0.238 0.598-0.582 0.702-0.937 0.718l-0.219-21.874c0.337-0.181 0.693-0.336 1.031-0.5zm13.657 0.156l-0.032 1.875-2.875 0.843v-1.843l2.907-0.875zm-4.594 0.031c-0.002 0.381-0.03 0.609-0.031 1l-2.969 0.906-0.031-1.031 3.031-0.875zm-10.375 0.469l0.031 2.281-4.5 1.313v-0.594c1.47-1.173 2.957-2.167 4.469-3zm18.312 0.594c0.479 0.469 0.692 0.889 0 1.124l-0.968 0.282-0.032-1.125 1-0.281zm-12.656 0.281v1.062l-3.937 1.188v-1.094l3.937-1.156zm4.688 0c-0.003 0.738 0.002 1.119 0 1.875l-2.938 0.906-0.031-1.906 2.969-0.875zm5.312 0.531v1.125l-3.594 1.094v-1.125l3.594-1.094zm-10 0.844v1.937l-3.937 1.188v-1.938l3.937-1.187zm-5.625 0.281v1.063l-4.469 1.343-0.031-1.125 4.5-1.281zm15.625 0.375v2.438l-0.281 0.093-0.031-2.469 0.312-0.062zm-5.312 0.094c-0.002 0.467 0.001 0.689 0 1.156l-2.938 0.875v-1.125l2.938-0.906zm4.593 0.094l-0.031 2.5-2.844 0.968v-2.594l2.875-0.874zm-19.812 0.25l0.344 19.968c-0.25 0.283-0.449 0.874-0.875 0.656l-0.25-20c0.254-0.221 0.525-0.414 0.781-0.624zm4.906 0.562l0.031 1.938-4.468 1.343-0.032-1.969 4.469-1.312zm-5.969 0.344v1.125l-1.75 0.531c0.565-0.565 1.116-1.116 1.688-1.625l0.062-0.031zm11.625 0.187v1.125l-3.968 1.188v-1.125l3.968-1.188zm4.657 0.063c-0.004 1.072 0.003 1.622 0 2.656l-2.875 0.969-0.063-2.75 2.938-0.875zm8.187 0.218c0.123 0.446 0.475 0.915-0.062 1.25l-1.125 0.376v-1.25l1.187-0.376zm-54.344 0.532c-1.366 2.519-2.347 3.813-2.093 8.844l5.406-1.313c-0.474-1.557-0.67-2.679-1.094-4.25-0.514-1.581-1.143-2.037-2.219-3.281zm29.875 0.406l0.032 2-2.282 0.688v-1.938c0.031-0.032 0.063-0.062 0.094-0.094l2.156-0.656zm21.594 0.031v1.157l-3.625 1.156 0.031-1.125 3.594-1.188zm-9.969 0.219v2.812l-3.937 1.313-0.031-2.937 3.968-1.188zm-41.437 0.031c0.783 0.752 1.333 1.672 1.687 2.781 0.368 1.152 0.622 2.435 0.969 3.688l-4.281 1.125c0.11-2.828 0.252-5.542 1.625-7.594zm35.812 0.157l0.032 1.156-4.5 1.375v-1.157l4.468-1.374zm15.594 1.031l0.031 2.343-0.312 0.126v-2.407l0.281-0.062zm-0.75 0.219v2.406l-2.875 0.937v-2.406l2.875-0.937zm-4.562 0.124c-0.002 0.411-0.03 0.665-0.032 1.063l-2.843 0.906v-1l2.875-0.969zm-10.25 0.126l0.031 3-4.469 1.5-0.031-3.126 4.469-1.374zm-6 0.312v1.156l-2.25 0.688-0.032-1.156 2.282-0.688zm16.218 0.875c-0.003 0.928 0.004 1.674 0 2.5l-2.812 0.937-0.031-2.5 2.843-0.937zm8.313 0c0.23 0.196 0.458 0.929 0.094 1.094l-1.344 0.469-0.031-1.126 1.281-0.437zm-12.906 0.25v0.969l-3.969 1.25v-0.906l3.969-1.313zm-11.625 0.375l0.031 3.188-2.281 0.781v-3.25l2.25-0.719zm21.593 0.344v1.125l-3.656 1.25v-1.125l3.656-1.25zm-9.968 0.5v2.531l-3.938 1.344-0.031-2.625 3.969-1.25zm-5.594 0.625v0.875l-4.469 1.437v-0.781l4.469-1.531zm15.562 0.281v2.344l-0.281-0.094v-2.156l0.281-0.094zm-0.812 0.281v2.219l0.156 0.062-3 0.938v-2.25l2.844-0.969zm-4.563 0.157c-0.001 0.354 0.002 0.765 0 1.093l-2.781 0.938-0.031-1.094 2.812-0.937zm-10.187 0.406l0.031 2.656-4.437 1.5-0.032-2.719 4.438-1.437zm18.25 0.844c1.209 0.306 0.498 0.905 0.187 1.187l-0.937 0.281-0.25-0.094v-1.062l1-0.312zm-24.25 0.062v0.75l-2.25 0.719-0.031-0.719 2.281-0.75zm16.187 0.062c-0.003 0.661-0.028 1.727-0.031 2.25l-2.719 0.876-0.031-2.157 2.781-0.969zm-4.593 0.157l0.031 1.093-3.969 1.344v-1.125l3.938-1.312zm9.968 0.593v1.219l-3.656 1.157v-1.219l3.656-1.157zm-21.562 0.188l0.031 2.781-2.281 0.75v-2.812l2.25-0.719zm11.625 0.594v2.156l-3.969 1.281v-2.062l3.969-1.375zm-5.594 0.5l0.031 1.094-4.468 1.5v-1.094l4.437-1.5zm10.125 0.437c-0.002 0.276 0.002 0.991 0 1.219l-2.719 0.875v-1.187l2.719-0.907zm-10.094 0.969l0.032 2.031-4.469 1.438v-1.969l4.437-1.5zm5.563 0.5l0.031 1.188-3.969 1.281-0.031-1.188 3.969-1.281zm-11.594 0.125v1.063l-2.25 0.781-0.031-1.094 2.281-0.75zm0.031 1.406v1.907l-2.281 0.75v-1.876l2.281-0.781zm6.032 0.25v1.188l-4.438 1.437v-1.187l4.438-1.438zm-6.032 1.969v1.125l-2.281 0.75v-1.156l2.281-0.719z"/>
  </g>
  <metadata>
    <rdf:RDF>
      <cc:Work>
        <dc:format>image/svg+xml</dc:format>
        <dc:type rdf:resource="http://purl.org/dc/dcmitype/StillImage"/>
        <cc:license rdf:resource="http://creativecommons.org/licenses/publicdomain/"/>
        <dc:publisher>
          <cc:Agent rdf:about="http://openclipart.org/">
            <dc:title>Openclipart</dc:title>
          </cc:Agent>
        </dc:publisher>
      </cc:Work>
      <cc:License rdf:about="http://creativecommons.org/licenses/publicdomain/">
        <cc:permits rdf:resource="http://creativecommons.org/ns#Reproduction"/>
        <cc:permits rdf:resource="http://creativecommons.org/ns#Distribution"/>
        <cc:permits rdf:resource="http://creativecommons.org/ns#DerivativeWorks"/>
      </cc:License>
    </rdf:RDF>
  </metadata>
</svg>
