<?xml version="1.0"?>
<svg xmlns:rdf="http://www.w3.org/1999/02/22-rdf-syntax-ns#" xmlns="http://www.w3.org/2000/svg" xmlns:cc="http://creativecommons.org/ns#" xmlns:xlink="http://www.w3.org/1999/xlink" xmlns:dc="http://purl.org/dc/elements/1.1/" id="svg2" viewBox="0 0 128 128" version="1.0">
  <defs id="defs4">
    <linearGradient id="linearGradient3405">
      <stop id="stop3407" stop-color="#4f3e2a" offset="0"/>
      <stop id="stop3409" stop-color="#72593c" offset="1"/>
    </linearGradient>
    <linearGradient id="linearGradient2338">
      <stop id="stop2340" stop-color="#b1b1b1" offset="0"/>
      <stop id="stop2342" stop-color="#e4e4e4" offset="1"/>
    </linearGradient>
    <linearGradient id="linearGradient2685" x1="33.676" xlink:href="#linearGradient2338" gradientUnits="userSpaceOnUse" y1="47.301" gradientTransform="translate(1.5568 -.51892)" x2="52.679" y2="27.149"/>
    <linearGradient id="linearGradient2689" x1="54.889" xlink:href="#linearGradient2338" gradientUnits="userSpaceOnUse" y1="55.522" gradientTransform="translate(1.5568 -.51892)" x2="55.508" y2="58.438"/>
    <linearGradient id="linearGradient2693" x1="38.184" xlink:href="#linearGradient2338" gradientUnits="userSpaceOnUse" y1="58.792" gradientTransform="translate(1.5568 -.51892)" x2="56.303" y2="65.156"/>
    <linearGradient id="linearGradient2697" x1="47.111" xlink:href="#linearGradient2338" gradientUnits="userSpaceOnUse" y1="79.121" gradientTransform="translate(1.5568 -.51892)" x2="46.757" y2="80.801"/>
    <linearGradient id="linearGradient2701" x1="31.625" xlink:href="#linearGradient2338" gradientUnits="userSpaceOnUse" y1="64.562" gradientTransform="translate(1.5568 -.51892)" x2="25.594" y2="68.281"/>
    <linearGradient id="linearGradient2705" x1="38.781" xlink:href="#linearGradient2338" gradientUnits="userSpaceOnUse" y1="65.531" gradientTransform="translate(1.5568 -.51892)" x2="31.5" y2="69"/>
    <linearGradient id="linearGradient2709" x1="45.594" xlink:href="#linearGradient2338" gradientUnits="userSpaceOnUse" y1="66.688" gradientTransform="translate(1.5568 -.51892)" x2="41.188" y2="66.531"/>
    <linearGradient id="linearGradient2713" x1="52.812" xlink:href="#linearGradient2338" gradientUnits="userSpaceOnUse" y1="69.906" gradientTransform="translate(1.5568 -.51892)" x2="48.5" y2="69.844"/>
    <linearGradient id="linearGradient2717" x1="63.625" xlink:href="#linearGradient2338" gradientUnits="userSpaceOnUse" y1="69.562" gradientTransform="translate(1.5568 -.51892)" x2="54.531" y2="75.375"/>
    <linearGradient id="linearGradient3300" x1="75.031" xlink:href="#linearGradient2338" gradientUnits="userSpaceOnUse" y1="65.281" gradientTransform="translate(1.5568 -.51892)" x2="69.594" y2="65.406"/>
    <linearGradient id="linearGradient3304" x1="60.156" xlink:href="#linearGradient2338" gradientUnits="userSpaceOnUse" y1="78.031" gradientTransform="translate(1.5568 -.51892)" x2="65.75" y2="75.25"/>
    <linearGradient id="linearGradient3308" x1="62.156" xlink:href="#linearGradient2338" gradientUnits="userSpaceOnUse" y1="78.438" gradientTransform="translate(1.5568 -.51892)" x2="62.312" y2="79.219"/>
    <linearGradient id="linearGradient3312" x1="50.594" xlink:href="#linearGradient2338" gradientUnits="userSpaceOnUse" y1="84.25" gradientTransform="translate(1.5568 -.51892)" x2="60.656" y2="75.875"/>
    <linearGradient id="linearGradient3316" x1="60.75" xlink:href="#linearGradient2338" gradientUnits="userSpaceOnUse" y1="84.25" gradientTransform="translate(1.5568 -.51892)" x2="60.844" y2="84.781"/>
    <linearGradient id="linearGradient3320" x1="63.406" xlink:href="#linearGradient2338" gradientUnits="userSpaceOnUse" y1="81.938" gradientTransform="translate(1.5568 -.51892)" x2="63.469" y2="82.562"/>
    <linearGradient id="linearGradient3324" x1="53.156" xlink:href="#linearGradient2338" gradientUnits="userSpaceOnUse" y1="82.375" gradientTransform="translate(1.5568 -.51892)" x2="68.938" y2="70.656"/>
    <linearGradient id="linearGradient3328" x1="65.438" xlink:href="#linearGradient2338" gradientUnits="userSpaceOnUse" y1="79.5" gradientTransform="translate(1.5568 -.51892)" x2="65.625" y2="80.344"/>
    <linearGradient id="linearGradient3332" x1="58.188" xlink:href="#linearGradient2338" gradientUnits="userSpaceOnUse" y1="80.375" gradientTransform="translate(1.5568 -.51892)" x2="68.719" y2="73.75"/>
    <linearGradient id="linearGradient3340" x1="106.69" xlink:href="#linearGradient2338" gradientUnits="userSpaceOnUse" y1="54.375" gradientTransform="translate(1.5568 -.51892)" x2="113.69" y2="84.5"/>
    <linearGradient id="linearGradient3344" x1="13" xlink:href="#linearGradient2338" gradientUnits="userSpaceOnUse" y1="58.438" gradientTransform="translate(1.5568 -.51892)" x2="26.5" y2="67.75"/>
    <linearGradient id="linearGradient3355" x1="35.978" xlink:href="#linearGradient2338" gradientUnits="userSpaceOnUse" y1="105.86" gradientTransform="translate(1.5568 -.51892)" x2="103.78" y2="29.232"/>
    <linearGradient id="linearGradient3371" x1="35.895" xlink:href="#linearGradient2338" gradientUnits="userSpaceOnUse" y1="99.473" gradientTransform="translate(1.5568 -.51892)" x2="121.58" y2="109.51"/>
    <linearGradient id="linearGradient3375" x1="78.876" xlink:href="#linearGradient2338" gradientUnits="userSpaceOnUse" y1="93.578" gradientTransform="translate(1.5568 -.51892)" x2="79.741" y2="94.443"/>
    <linearGradient id="linearGradient3379" x1="89.903" xlink:href="#linearGradient2338" gradientUnits="userSpaceOnUse" y1="88.692" gradientTransform="translate(1.5568 -.51892)" x2="90.249" y2="87.957"/>
    <linearGradient id="linearGradient3383" x1="98.119" xlink:href="#linearGradient2338" gradientUnits="userSpaceOnUse" y1="106.85" gradientTransform="translate(1.5568 -.51892)" x2="99.632" y2="107.24"/>
    <linearGradient id="linearGradient3391" x1="76.627" xlink:href="#linearGradient2338" gradientUnits="userSpaceOnUse" y1="102.23" gradientTransform="translate(1.5568 -.51892)" x2="93.405" y2="93.059"/>
    <linearGradient id="linearGradient3395" x1="44.355" xlink:href="#linearGradient3405" gradientUnits="userSpaceOnUse" y1="103.75" gradientTransform="translate(1.5568 -.51892)" x2="88.14" y2="60.851"/>
    <linearGradient id="linearGradient3399" x1="26.737" xlink:href="#linearGradient3405" gradientUnits="userSpaceOnUse" y1="83.452" gradientTransform="translate(1.5568 -.51892)" x2="17.413" y2="91.098"/>
    <linearGradient id="linearGradient3403" x1="31.334" xlink:href="#linearGradient3405" gradientUnits="userSpaceOnUse" y1="89.772" gradientTransform="translate(1.5568 -.51892)" x2="22.672" y2="96.799"/>
    <linearGradient id="linearGradient3407" x1="36.062" xlink:href="#linearGradient3405" gradientUnits="userSpaceOnUse" y1="97.02" gradientTransform="translate(1.5568 -.51892)" x2="27.312" y2="104.4"/>
    <linearGradient id="linearGradient3411" x1="16.926" xlink:href="#linearGradient2338" gradientUnits="userSpaceOnUse" y1="94.501" gradientTransform="translate(1.5568 -.51892)" x2="18.562" y2="93.042"/>
    <linearGradient id="linearGradient3417" x1="13.833" xlink:href="#linearGradient2338" gradientUnits="userSpaceOnUse" y1="89.021" gradientTransform="translate(1.5568 -.51892)" x2="15.601" y2="86.855"/>
    <linearGradient id="linearGradient3421" x1="99.923" xlink:href="#linearGradient2338" gradientUnits="userSpaceOnUse" y1="64.802" gradientTransform="translate(1.5568 -.51892)" x2="102.35" y2="70.459"/>
    <linearGradient id="linearGradient3425" x1="99.923" xlink:href="#linearGradient2338" gradientUnits="userSpaceOnUse" y1="64.802" gradientTransform="translate(7.5672 5.4031)" x2="102.35" y2="70.459"/>
    <linearGradient id="linearGradient3429" x1="99.923" xlink:href="#linearGradient2338" gradientUnits="userSpaceOnUse" y1="64.802" gradientTransform="translate(14.859 11.193)" x2="102.35" y2="70.459"/>
    <linearGradient id="linearGradient3439" x1="98.111" xlink:href="#linearGradient3405" gradientUnits="userSpaceOnUse" y1="65.112" gradientTransform="translate(1.5568 -.51892)" x2="90.642" y2="74.79"/>
    <linearGradient id="linearGradient3443" x1="98.111" xlink:href="#linearGradient3405" gradientUnits="userSpaceOnUse" y1="65.112" gradientTransform="translate(7.302 5.2263)" x2="90.642" y2="74.79"/>
    <linearGradient id="linearGradient3447" x1="98.111" xlink:href="#linearGradient3405" gradientUnits="userSpaceOnUse" y1="65.112" gradientTransform="translate(14.903 11.237)" x2="90.642" y2="74.79"/>
    <filter id="filter3487">
      <feGaussianBlur id="feGaussianBlur3489" stdDeviation="0.8216216"/>
    </filter>
    <filter id="filter3501">
      <feGaussianBlur id="feGaussianBlur3503" stdDeviation="0.61025853"/>
    </filter>
    <filter id="filter3519">
      <feGaussianBlur id="feGaussianBlur3521" stdDeviation="0.99171729"/>
    </filter>
    <filter id="filter3541">
      <feGaussianBlur id="feGaussianBlur3543" stdDeviation="0.67857276"/>
    </filter>
  </defs>
  <g id="layer2" fill-rule="evenodd">
    <path id="path3464" filter="url(#filter3487)" fill-opacity=".66667" d="m37.449 119.35c-25.201-5.21-32.418-18.45-34.768-28.366l-1.3837-21.103c4.2588-14.399 37.074-25.369 53.449-30.097l31.308 14.184-48.605 65.382z"/>
    <path id="path3393" d="m79.163 50.487l2.324 0.305 9.051 2.752 9.542 4.465 5.5 3.363 5.51 4.526 5.19 5.443 2.63 4.28 1.72 3.67 1.46 4.281 0.13 1.345-1.9 13.393-42.258 18.22-5.504-8.68-8.929 0.18-12.537 4.28-41.463-18.587-0.7336-9.295 2.6296-5.015 3.119-5.932 4.892-6.421s3.67-3.731 3.914-3.731c0.245 0 4.403-3.424 4.403-3.424l51.31-9.418z" fill="url(#linearGradient3395)"/>
    <path id="path3505" filter="url(#filter3519)" fill-opacity=".54902" d="m78.312 51.986c27.978 8.741 49.908 29.792 29.878 47.907l16.61-6.364-1.41-26.694-36.416-18.385-9.899 2.122 1.237 1.414z"/>
    <path id="path3389" fill="url(#linearGradient3391)" d="m71.516 107.73l-7.38-23.427 2.386-0.309 6.276-1.326 1.281-0.309 8.441 6.275 5.967 3.934 9.148 6.364 0.442 0.309 1.105 3.359 0.888 4.2 0.26 5.17-0.53 5.48-15.788 3.61-12.496-13.33z"/>
    <path id="path3449" fill-opacity=".15686" d="m71.516 107.73l-7.38-23.427 2.386-0.309 6.276-1.326 1.281-0.309 8.441 6.275 5.967 3.934 9.148 6.364 0.442 0.309 1.105 3.359 0.888 4.2 0.26 5.17-0.53 5.48-15.788 3.61-12.496-13.33z"/>
    <path id="path3523" filter="url(#filter3541)" fill-opacity=".54902" d="m107.13 112.44c-10.081-7.61-15.576-21.263-33.768-18.204-14.088 14.384 0.908 17.174-0.353 27.574l4.066-0.53c-0.855-7.7-7.488-14.59-2.298-23.155 15.844-2.527 18.567 9.315 25.283 16.795l7.07-2.48z"/>
    <path id="path3350" fill="url(#linearGradient3355)" d="m77.557 36.794l0.5 0.75 8.875 2.375 7.187 2.187 8.941 3.75 8.06 4.25 4.62 3.438 4.44 4.687 3.75 5.688 1.81 7.062-0.5 6.125-1.75 5.625-3.25 5.063-3.75 4.25-3.56 3.187 0.38 2-0.13 0.125-0.81-0.75-0.38 1.438-1.18-1.063-1 0.688-3.5 2.125-1.5 0.816 0.5 1.37 1.87-1.06 2.38-1.876 1.68-0.875 1 0.875 0.19-0.5 0.44-1 1.12 1.625-0.06-0.5-0.5-2.313 2.19-1.375 3.81-4 5.56-7.937 2-7-0.06-6.25-1.62-5.313-1.63-3.25-3.5-4.875-3.87-3.75-4.69-4-4.94-3.062-9.936-4.438-13.25-3.5-5.937-0.812zm-51.813 8.687l-2.437 0.688-6.813 4.812-6.5622 6.438-3.3125 5.187-2.0625 6.188-0.25 6.5 1.0625 5 1.8125 4.062 1.4375 2.25 1.1875 1.688 1.9372 2.312 3.813 3.625 6.75 4.688 13.625 6.061 11.25 2.81 1.312 2.57 1.188-1.19 1 2.12 1.5-2.37c8.415 0.54 16.988 0.55 25.75-0.06l0.125-0.63-1.255-1-3.058 0.56-4.312 0.32-4.625-0.13-12.438-1.19-1.75 1.88-0.875-1.13-1.125 0.75-1.5-2.31-5.187-0.94-8.5-2.62-7.938-3.001-5.5-3.188-5.062-3.875-5.2502-6.375-3.1875-7.75-0.4375-5.625 1.4375-6.625 2.5-4.937 3.6247-4.938 4.313-4.437 4.5-3.75 3.312-2.438z"/>
    <path id="path3342" d="m25.744 45.481l-1.875 1.375-5.562 4.438-5.313 5.562-4.1247 6.313-2.1875 5-0.75 4.437 0.6875 5.938 2 5.5 0.4375 0.562 3.8122-8.437 5.375-7.25 3.313-3.813 3.937-3.375 2.563-1.875-0.125-2.562-0.063-5.5-1.875-1.188-0.812-1.937v-1.125l0.687-0.438-0.125-1.625z" fill="url(#linearGradient3344)"/>
    <path id="path3491" filter="url(#filter3501)" fill-opacity=".66667" d="m25.633 70.901l0.884-3.359-1.768-6.54-2.122-10.607v-2.475l2.829-3.005 26.516-4.773s22.274 22.097 21.214 23.335c-1.061 1.237-47.553 7.778-47.553 7.424z"/>
    <path id="path2687" fill="url(#linearGradient2689)" d="m25.51 46.694l4.508 2.917 7.424 3.094 9.016 1.944 4.861 0.442 5.922-0.177 5.569-0.707 3.712-0.884 4.596-1.591 7.337-3.8 2.121-1.68 0.972 0.972-0.088 1.061c0.133 0.737-0.46 1.473-1.149 2.21l-12.64 6.187-9.988 1.856-7.071 0.089-7.248-0.973-8.573-2.475-6.011-3.005-3.27-2.033-0.53-1.679 0.176-1.149 0.354-0.619z"/>
    <path id="path2691" fill="url(#linearGradient2693)" d="m26.482 50.848l7.248 3.889 6.011 1.857 7.689 1.679 8.486 0.442 8.485-1.061 5.126-1.767 6.011-2.387 3.359-1.679-0.442 6.098 0.176 11.668-4.507 2.828-6.541 2.475-7.071 1.503-7.602 0.53-7.513-0.442-9.988-1.856-7.778-3.978 0.531-6.01-0.354-11.932-1.326-1.857z"/>
    <path id="path2695" fill="url(#linearGradient2697)" d="m27.278 70.205l1.944 1.591 3.359 1.68 5.303 1.768 7.69 1.502 5.215 0.089 5.834-0.177 5.833-0.707 7.337-1.856 6.982-3.094 3.713-2.298 1.149 0.884v2.475l-4.066 3.005s-25.456 7.071-26.252 6.717c-0.795-0.353-5.391-0.53-5.391-0.53l-6.099-1.326s-4.773-1.856-6.541-2.386c-1.768-0.531-5.745-3.536-6.629-3.889-0.884-0.354-1.503-1.768-1.503-1.768l0.884-2.298 1.238 0.618z"/>
    <path id="path2699" fill="url(#linearGradient2701)" d="m30.151 71.794l0.218-14.438 0.844-0.937 0.844-0.313 0.656 0.219 1.219 1.562 0.281 1.094-0.094 14.844-3.968-1.563v-0.468z"/>
    <path id="path2703" fill="url(#linearGradient2705)" d="m36.713 74.637s0.188-14.437 0.406-14.625c0.219-0.187 0.188-0.562 0.188-0.562l0.719-0.875 1.187-0.469 1 0.75 0.563 1.031-0.032 15.875-4.031-1.125z"/>
    <path id="path2707" fill="url(#linearGradient2709)" d="m43.963 76.45c0-0.156-0.062-15.188-0.062-15.188l0.281-0.562 1-0.938 0.625-0.187 0.625 0.156 0.937 0.906 0.563 1.25-0.063 14.719-3.906-0.156z"/>
    <path id="path2711" fill="url(#linearGradient2713)" d="m50.869 76.794l-0.031-14.813 0.406-1.281 0.782-0.688 1.031-0.125 1.281 0.719 0.5 1.469-0.125 14.656-3.844 0.063z"/>
    <path id="path2715" fill="url(#linearGradient2717)" d="m59.244 76.231l0.125-10.812 1.125-2.532 2.25-1.531 1.375-0.437s1.688 0.281 2 0.406c0.313 0.125 2.25 1.687 2.25 1.687l0.219 0.969 0.125 10.375-7.594 1.844-1.812 0.312-0.063-0.281z"/>
    <path id="path2719" fill-opacity=".15686" d="m59.244 76.231l0.125-10.812 1.125-2.532 2.25-1.531 1.375-0.437s1.688 0.281 2 0.406c0.313 0.125 2.25 1.687 2.25 1.687l0.219 0.969 0.125 10.375-7.594 1.844-1.812 0.312-0.063-0.281z"/>
    <path id="path3298" fill="url(#linearGradient3300)" d="m75.088 55.606l0.844 0.75 0.187 15.156-3.75 1.563 0.063-15.844 0.5-1.281 0.656-0.594 1.125-0.125 0.375 0.375z"/>
    <path id="path3310" fill="url(#linearGradient3312)" d="m51.869 79.325c-0.125 0-0.843 4.406-0.843 4.406h8.531l6.375-0.719 5.625-1.25 4-1.281 4.5-1.781-4.031-4.281-22.157 4.906h-2z"/>
    <path id="path3314" fill="url(#linearGradient3316)" d="m50.932 83.794l0.125 1.312 8.25-0.281 5.656-0.563 5.188-0.843 4.281-1.219 5.812-1.844-0.25-1.625-1.843 0.781-5 1.907-8.032 1.75-5.875 0.593-4.437 0.032h-3.875z"/>
    <path id="path3318" fill="url(#linearGradient3320)" d="m53.151 82.2v0.812l3.468 0.032 4.625-0.219 4.813-0.719 4.5-1.187 4.781-1.407 2.313-0.75-0.032-1.218-0.687 0.187-3.844 1.563-4.937 1.312-4.438 0.938-3.344 0.437-4.125 0.219h-3.093z"/>
    <path id="path3322" fill="url(#linearGradient3324)" d="m56.057 78.419l-2.25-0.032-0.625 3.844 3.969-0.031 4.468-0.375 6.094-1.063 7.688-2.375 1.968-0.875-3.5-3.343-1 0.562-16.812 3.688z"/>
    <path id="path3326" fill="url(#linearGradient3328)" d="m55.651 80.169l-0.032 1.25h3.063l4.094-0.407 3.937-0.75 7.875-2.75-0.156-1.25-1.156 0.344-4.032 1.5-4.906 1.563-5.406 0.656-3.281-0.156z"/>
    <path id="path3330" fill="url(#linearGradient3332)" d="m56.213 77.325l-0.562 2.812 4.031 0.188 6.687-1.219 8.125-2.875-2.406-2.25-1.031 0.375-6.75 2.469-6.938 0.469-1.156 0.031z"/>
    <path id="path3302" fill="url(#linearGradient3304)" d="m57.463 77.012l-0.125 1.063 1.375-0.031 3.781-0.25 4.938-1.063 4.344-1.531-1.157-1.406-6.968 1.875-6.094 0.812-0.094 0.531z"/>
    <path id="path3306" fill="url(#linearGradient3308)" d="m57.463 78.012l0.063 1.375 1.968-0.187 3.25-0.125 4.313-1.063 4.719-1.531v-1.187l-2.938 1-4.437 1.125-2.969 0.406-3.969 0.187z"/>
    <path id="path3338" fill="url(#linearGradient3340)" d="m122.24 84.856c-0.37-0.437-0.87-3.875-0.87-3.875l-3.75-7.875-7.31-8.187-8.5-6.125-9.566-4.5-6.875-2.375-4.687-1.125 0.812-2.063-0.187-1.5-0.875-2.375-2.438-7.25 2.063 0.563 9.812 2.5 9.938 3.625 10.753 5.437 7.87 6.438 5.31 7.25 1.94 6.187v5l-1.25 5.25-2.19 5z"/>
    <path id="path3357" fill-opacity=".15686" d="m122.24 84.856c-0.37-0.437-0.87-3.875-0.87-3.875l-3.75-7.875-7.31-8.187-8.5-6.125-9.566-4.5-6.875-2.375-4.687-1.125 0.812-2.063-0.187-1.5-0.875-2.375-2.438-7.25 2.063 0.563 9.812 2.5 9.938 3.625 10.753 5.437 7.87 6.438 5.31 7.25 1.94 6.187v5l-1.25 5.25-2.19 5z"/>
    <path id="path3359" fill-opacity=".15686" d="m48.494 108.36l-0.062 1.68 0.187 0.25 0.938-0.93v-1.63l-1.063 0.63z"/>
    <path id="path3361" fill-opacity=".15686" d="m50.619 108.61v2.75l1.438-2.38 0.062-1.69-1.5 1.32z"/>
    <path id="path3363" fill-opacity=".15686" d="m112 98.004l0.04 0.972 0.4-0.044 0.27-1.282-0.27-0.928-0.44 1.282z"/>
    <path id="path3365" fill-opacity=".15686" d="m112.93 95.484l0.35 1.945 0.49 1.547 0.17-0.177-0.31-2.386-0.7-0.929z"/>
    <path id="path3369" d="m4.12 75.376l0.8397 3.536 0.7513 2.342 1.0165 2.342 1.149 1.856 1.9446 2.917 3.4909 3.801 7.867 6.187 10.562 4.903 8.795 3.05 6.673 1.5 1.282 2.57 1.105-1.06 1.149 2.16 0.53-1.19 0.84-1.55 13.435 1.2 12.418-1.02 0.398-6.28 1.414-5.52 1.812-3.889 2.033-2.475 3.845-3.094 4.066 1.061 6.497 3.27 3.937 3.359 3.4 6.538 1.06-0.4 4.6-3.31h0.39l0.84 0.796 0.14 0.044 0.39-1.503 1.02 1.459 0.18-0.31-0.4-2.165 4.24-3.712 4.91-5.746 2.78-5.877 1.72-7.027 0.23 0.972-0.09 7.513-0.49 8.264-1.81 6.718-3.32 5.654-4.9 5-4.02 3.27-10.21 6.54-0.44-1.02-0.93-13.7-1.02-2.96-1.058-1.768-1.945-2.077-3.138-2.386-5.612-2.343-2.387 3.05-2.386 6.854-0.796 4.59 0.265 11.45 0.619 4.55-10.518 1.37-11.225 0.09s-9.016-0.35-9.458-0.62-8.264-1.64-8.264-1.64l-9.723-2.51-10.872-4.91-8.706-6.19-6.8501-7.908-2.3423-4.463-1.4584-5.083-0.2652-5.568-0.3093-5.701-0.0884-2.431 0.3977-1.37z" fill="url(#linearGradient3371)"/>
    <path id="path3373" fill="url(#linearGradient3375)" d="m76.714 107.03c-0.087-0.18 0.216-5.11 0.216-5.11l0.648-4.925 1.903-4.627 3.114-3.503 3.416-3.33 1.427 2.335-2.292 1.557-1.816 1.687-1.86 2.421-1.556 3.2-1.341 4.975-0.649 6.53-1.21-1.21z"/>
    <path id="path3377" fill="url(#linearGradient3379)" d="m86.227 85.622l1.038 2.162 2.638 0.302 2.638 1.038 7.479 4.152s-2.117-2.595-2.55-2.768c-0.432-0.173-2.681-1.773-2.681-1.773l-2.854-1.34-2.897-1.038-2.811-0.735z"/>
    <path id="path3381" d="m94.746 94.789l2.422 2.811 1.167 2.42 1.297 4.63 0.688 4.76-0.26 8.08 2.12 0.39-0.82-14.49s-1.382-3.671-1.684-3.974c-0.303-0.302-1.817-2.335-1.817-2.335l-3.113-2.292z" fill="url(#linearGradient3383)"/>
    <path id="path3385" fill-opacity=".15686" d="m76.714 107.03c-0.087-0.18 0.216-5.11 0.216-5.11l0.648-4.925 1.903-4.627 3.114-3.503 3.416-3.33 1.427 2.335-2.292 1.557-1.816 1.687-1.86 2.421-1.556 3.2-1.341 4.975-0.649 6.53-1.21-1.21z"/>
    <path id="path3387" fill-opacity=".15686" d="m94.746 94.789l2.422 2.811 1.167 2.42 1.297 4.63 0.688 4.76-0.26 8.08 2.12 0.39-0.82-14.49s-1.382-3.671-1.684-3.974c-0.303-0.302-1.817-2.335-1.817-2.335l-3.113-2.292z"/>
    <path id="path3397" fill="url(#linearGradient3399)" d="m16.273 86.734l12.64-3.182 2.696 3.933-13.391 3.801-1.945-4.552z"/>
    <path id="path3401" fill="url(#linearGradient3403)" d="m20.339 93.098l12.375-3.182 2.74 3.933-13.259 3.713-1.856-4.464z"/>
    <path id="path3405" fill="url(#linearGradient3407)" d="m26.659 99.683l11.137-2.784 2.828 3.841-6.364 1.82-3.889-1.02-3.712-1.857z"/>
    <path id="path3409" d="m19.367 93.186l-1.812-0.044-0.707 0.575 1.37 1.193 1.9 1.149-0.751-2.873z" fill="url(#linearGradient3411)"/>
    <path id="path3415" fill="url(#linearGradient3417)" d="m17.467 91.551l-2.166 0.089-0.972-1.017-0.486-3.403 0.132-0.265 1.636-0.177 1.856 4.773z"/>
    <path id="path3419" fill="url(#linearGradient3421)" d="m98.872 65.256l4.688 3.27 1.01-0.354-0.26-3.314-0.53-1.193c-0.42-0.497-1.08-0.748-1.73-1.017l-0.61-0.177-0.89 0.133-1.236 0.928-0.265 0.177-0.177 1.547z"/>
    <path id="path3423" fill="url(#linearGradient3425)" d="m104.88 71.178l4.69 3.27 1.01-0.353-0.26-3.315-0.53-1.193c-0.58-0.574-1.15-0.786-1.73-1.017l-0.61-0.177-0.89 0.133-1.24 0.928-0.26 0.177-0.18 1.547z"/>
    <path id="path3427" fill="url(#linearGradient3429)" d="m112.17 76.967l4.69 3.271 1.02-0.354-0.27-3.315-0.53-1.193c-0.4-0.515-0.97-0.855-1.72-1.016l-0.62-0.177-0.89 0.132-1.23 0.929-0.27 0.176-0.18 1.547z"/>
    <path id="path3431" fill-opacity=".15686" d="m98.872 65.256l4.688 3.27 1.01-0.354-0.26-3.314-0.53-1.193c-0.82-0.616-1.09-0.878-1.73-1.017l-0.61-0.177-0.89 0.133-1.236 0.928-0.265 0.177-0.177 1.547z"/>
    <path id="path3433" fill-opacity=".15686" d="m104.88 71.178l4.69 3.27 1.01-0.353-0.26-3.315-0.53-1.193c-0.65-0.397-1.03-0.912-1.73-1.017l-0.61-0.177-0.89 0.133-1.24 0.928-0.26 0.177-0.18 1.547z"/>
    <path id="path3435" fill-opacity=".15686" d="m112.17 76.967l4.69 3.271 1.02-0.354-0.27-3.315-0.53-1.193c-0.49-0.442-1.12-0.685-1.72-1.016l-0.62-0.177-0.89 0.132-1.23 0.929-0.27 0.176-0.18 1.547z"/>
    <path id="path3437" fill="url(#linearGradient3439)" d="m87.072 70.205l11.093-4.463 4.645 3.359-11.318 5.17-4.42-4.066z"/>
    <path id="path3441" fill="url(#linearGradient3443)" d="m92.818 75.951l11.092-4.464 4.64 3.359-11.313 5.171-4.419-4.066z"/>
    <path id="path3445" fill="url(#linearGradient3447)" d="m100.42 81.961l11.09-4.464 4.64 3.359-11.31 5.171-4.42-4.066z"/>
    <path id="path3451" fill-opacity=".15686" d="m16.273 86.734l12.64-3.182 2.696 3.933-13.391 3.801-1.945-4.552z"/>
    <path id="path3453" fill-opacity=".15686" d="m20.339 93.098l12.375-3.182 2.74 3.933-13.259 3.713-1.856-4.464z"/>
    <path id="path3455" fill-opacity=".15686" d="m26.659 99.683l11.137-2.784 2.828 3.841-6.364 1.82-3.889-1.02-3.712-1.857z"/>
    <path id="path3457" fill-opacity=".15686" d="m87.072 70.205l11.093-4.463 4.645 3.359-11.318 5.17-4.42-4.066z"/>
    <path id="path3459" fill-opacity=".15686" d="m92.818 75.951l11.092-4.464 4.64 3.359-11.313 5.171-4.419-4.066z"/>
    <path id="path3461" fill-opacity=".15686" d="m100.42 81.961l11.09-4.464 4.64 3.359-11.31 5.171-4.42-4.066z"/>
    <path id="path2683" fill="url(#linearGradient2685)" d="m25.598 46.694l0.619-3.093 2.74-7.69 6.718-7.513 7.866-5.038 8.486-1.68 5.126 0.265 6.01 1.415 6.453 3.535 6.541 6.983 2.916 6.099 1.591 5.303 0.265 0.972-1.767 1.061-6.629 3.889-5.834 2.21s-7.071 1.502-7.425 1.502c-0.353 0-9.015 0.354-9.015 0.354l-10.165-1.856-8.132-2.829-6.364-3.889z"/>
  </g>
  <g id="layer1">
    <path id="path2308" d="m53.213 21.262c-13.526 0-24.837 10.025-27.5 23.313-1.271 0.645-2.509 1.328-3.687 2.031-9.891 6.175-18.466 15.177-18.157 27.563-0.7158 3.249-0.031 10.242-0.031 12.937 0 10.321 6.992 19.604 18.188 26.284 11.195 6.68 26.619 10.81 43.625 10.81 6.429 0 12.64-0.59 18.468-1.69l-0.843-14.75c-0.241-4.24 3.189-13.951 4.937-15.216l9.5 6.593c0.563 1.213 0.935 2.453 1.281 3.683 1.486 5.3 0.978 10.96 0.813 14.63l2.723 0.91c1.83-0.87 5.93-3.64 7.59-4.63 11.19-6.68 17.34-16.303 17.34-26.624 0-2.276 0.54-11.054 0-14.031-0.81-12.371-8.92-19.539-18.22-26.469-8.45-5.042-19.308-8.584-31.433-10.031-4.754-9.098-13.97-15.313-24.594-15.313zm0 1c10.429 0 19.806 6.282 24.469 15.375 1.163 2.123 2.177 5.447 2.719 8.125-0.372 0.321-0.765 0.633-1.157 0.938l-0.5-1.094c-1.063-0.026-2.125-0.075-3.187-0.125 0.409-0.616 0.453-1.102 0.437-1.875l-0.781-3.125c-1.576-0.635-2.208-1.975-2.969-3.375l-0.062 0.063c0.666 1.066 0.813 2.694 2.687 3.687 0.325 0.868 0.64 2.093 0.657 2.875 0.012 0.604-0.424 1.128-0.938 1.688-0.062-0.003-0.125 0.001-0.187 0-1.381 0.029-2.829 0.301-4.375 1.218-0.81 0.16-1.594 0.358-2.344 0.625-0.714-0.251-1.464-0.347-2.188-0.468-0.418-2.239-0.67-5.292 0.594-6.938 0.667-1.293 1.659-2.235 2.188-3.594 0.62-1.303 1.483-2.478 0.718-4l-3.937-3.531c-0.644-1.115-1.292-2.035-2.438-2.687-1.251-0.549-2.775-0.137-4.187-0.438l-0.094 0.25c1.404 0.3 3.032 0.163 4.156 0.656 1.125 0.493 1.724 1.57 2.25 2.563l3.813 3.406c0.571 1.19-0.054 2.523-0.594 3.656-0.541 1.136-1.448 2.301-2.187 3.532-1.45 2.186-1.231 4.597-0.813 7.031-0.328-0.068-0.633-0.165-0.937-0.281-1.206-0.461-2.567-1.182-3.438-2.344-0.442-1.313-0.455-2.987-1-4.438-0.557-1.483-1.288-2.94-3.406-4.093l0.031 0.062c1.933 1.053 2.535 2.927 3.031 4.25 0.275 0.733 0.342 1.537 0.438 2.375-0.862-0.548-1.76-0.761-2.656-0.656-1.092 0.128-2.15 0.637-3.219 1.281-2.138 1.288-4.039 3.851-6.469 4.75l0.031 0.219c2.659-0.984 4.813-3.401 6.844-4.625 1.016-0.612 2.114-1.088 2.969-1.188 0.739-0.086 1.778 0.353 2.594 0.938 0.067 0.442 0.161 0.881 0.312 1.312 0.839 1.389 2.301 2.035 3.688 2.75 1.09 0.417 2.004 0.396 2.968 0.657-1.719 0.714-3.375 1.643-5.062 2.593-1.561 0.698-3.284 0.739-4.344 0.532-1.06-0.208-2.147-0.367-3.125-0.938l-0.156 0.063c0.989 0.577 2.026 1.16 3.281 1.406s2.725 0.14 4.438-0.625c2.516-1.904 5.592-2.651 8.562-3.531 2.506-1.449 5.294-0.969 8.094-0.875l0.031 1c-6.872 4.981-16.491 7.634-25.656 7.593-7.214-0.032-14.661-1.77-20.625-4.656-0.16-3.744-1.207-8.556-0.281-11.5 3.14-0.65 5.77-3.283 8.125-5.625 1.232-0.883 2.461-1.254 3.656-1.437 1.623 0.423 2.89 1.162 3.344 1.656 0.489 0.532 0.476 1.552 1.375 2.187 1.97 1.302 2.484 3.845 3.437 6.282-0.88-2.305-0.854-5.189-3.219-6.75-0.699-0.495-0.574-1.427-1.187-2.094-0.483-0.525-1.213-1.041-2.438-1.438 0.434-0.035 0.86-0.057 1.282-0.093 1.926-0.167 4.01-0.473 6.093-0.907 2.225 0.313 4.027 1.939 5.5 3.469l0.157-0.094c-1.5-1.526-2.955-3.475-5.657-3.781-2.031 0.362-4.1 0.414-6.156 0.531-2.068 0.179-4.256 0.66-6.562 2.313-2.068 2.1-4.525 3.648-7.125 4.969 0.635-1.482 0.559-2.203 0.5-3.657 0.264-1.222 1.256-2.216 2-3.187 0.794-0.59 2.15-0.622 3-1.5 0.993-0.99 2.06-1.754 3.343-1.563v-0.156c-1.627-0.427-2.262 0.517-3.531 1.531-0.701 0.725-2.105 0.648-3 1.313s-1.751 1.588-2.25 3.25c0.149 1.551-0.349 2.95-0.875 4.375-0.055 0.026-0.101 0.067-0.156 0.094-0.697 2.128-0.803 4.323-0.75 6.531-1.261-0.804-2.386-1.688-2.594-3.156h-0.156c0.26 1.833 1.413 3.055 2.75 4 0.054 1.284 0.147 2.567 0.219 3.843-1.89-0.995-3.609-2.094-5.094-3.312 2.007-13.574 13.756-24.063 27.281-24.063zm24.938 15c11.827 1.552 22.299 5.288 30.559 10.219 11.01 6.564 18.07 15.565 18.07 25.438 0 4.457-1.48 8.894-4.04 12.968-2.11 3.757-5.53 7.269-9.15 10.157l-0.47-0.813c9.44-7.487 14.53-16.897 12.37-26.937-2.69-12.545-16.46-24.02-47.246-30.844-0.03-0.063-0.063-0.125-0.093-0.188zm0.312 0.688c30.127 6.816 44.007 18.802 46.567 30.687 1.13 5.305-0.01 10.626-2.79 15.594-1.67-9.143-7.74-17.052-16.28-23.062-6.378-4.493-14.141-7.91-22.497-10.032l3.344-2.343h0.156c0.022-0.029 0.041-0.065 0.063-0.094l5.562-1.188 3.25 2.157 0.969 4.875-0.688-5.063 3.313-0.969-0.188-0.125-3.531 0.813-2.937-2.156-5.657 1.5c0.554-0.816 0.987-1.892 1.5-2.813 1.837-0.583 2.261-1.204 3.344-1.812l3.875 1.062 0.094-0.187-3.906-1.157c-1.234 0.301-2.396 1.246-3.469 1.969-0.142 0.18-0.274 0.369-0.406 0.563l-1.657-2.907-0.187-0.062 1.562 3.375c-0.461 0.723-0.882 1.506-1.343 2.219l-3.782 2.156c-0.613-0.15-1.224-0.302-1.843-0.438 0.955-1.724 1.369-3.485-0.157-5.375-0.458-2.529-1.244-4.931-2.281-7.187zm-52.969 7.875l-0.125 0.875c-0.674 0.925-1.313 1.915 0.469 4.375 0.47 0.279 0.937 0.563 1.406 0.844 0.016 2.546 0.494 4.835 0.5 7.656-7.811 5.593-14.728 13.533-18.812 24.062-1.9603-3.905-2.9725-8.249-2.3127-12.75 1.0843-7.397 6.9137-16.725 18.875-25.062zm-1.031 0.344c-11.932 8.349-17.309 16.737-18.438 24.437-1.155 7.883 2.1668 14.955 7.219 20.406 7.284 7.859 19.327 12.328 31.532 14.908 0.736 0.15 1.477 0.3 2.218 0.44 0.459 0.08 0.983 1.39 1.375 2.15l-0.031 1.25c-0.434-0.77-0.903-2.45-1.312-2.53-9.465-1.82-17.972-4.99-24.75-9.03-8.992-5.287-17.54-12.781-17.344-23.156-0.0495-0.688-0.0968-1.42-0.1252-2.125 0-9.873 6.9042-19.218 17.906-25.782 0.562-0.335 1.162-0.647 1.75-0.968zm55.688 0.562c1.975 0.947 1.325 2.472-0.219 3.406-9.556 6.441-19.996 8.633-29.531 8-9.5-0.63-18.084-4.067-23.625-7.656-1.794-1.374-1.83-3.669-0.219-2.812 6.572 4.991 16.281 7.674 26.125 7.718 10.085 0.046 20.312-2.68 27.469-8.656zm0.531 4.125c8.863 1.942 17.016 6.217 24.778 10.875 8.4 5.913 14.96 14.055 16.57 22.906-2.28 3.923-5.13 7.22-9.19 10.469-0.17 0.137 0.45 1.959 0.28 2.094-0.1 0.073-0.35-0.387-0.53-0.625-0.01-0.006 0-0.025 0-0.031-0.07-0.091-0.15-0.123-0.19-0.094-0.19 0.146-0.3 1.168-0.5 1.312-0.18 0.137-1-1.041-1.19-0.906-1.61 1.157-3.7 2.455-5.5 3.464-1.15-2.87-2.81-5.085-4.72-6.808-3.277-4.3-8.785-6.803-14.308-7.968l-0.125-0.188c-1.235 0.988-2.381 2.038-3.469 3.156l-8.5-6.062c1.909-0.558 3.986-1.23 6.344-2.063l-0.188-1.687c0.03-0.014 0.065-0.017 0.094-0.031l-2.969-3.063c1.129-0.646 2.24-1.361 3.344-2.125 2.577-2.013 0.804-5.787-0.625-5.375-0.262 0.206-0.543 0.396-0.812 0.594-0.745-5.405-0.725-11.064 0.031-16.969 0.46-0.29 0.919-0.564 1.375-0.875zm-2.375 1.5l-0.031 17.063c-0.668 0.451-1.358 0.873-2.063 1.281l-0.187-14.25c-0.56-1.282-1.313-1.412-2.532-1.219-0.824 0.47-1.324 1.544-1.312 2.938v14.562c-1.069 0.46-2.163 0.873-3.281 1.25v-10.219c-0.784-2.512-2.755-2.83-5.094-2.906-2.843 0.486-4.236 2.216-4.688 4.938l-0.156 10.406c-1.36 0.168-2.728 0.277-4.094 0.344v-14.594c0.041-1.304-0.955-2.181-2-2.25-1.504 0.1-1.886 0.884-2.25 2.219l0.063 14.687c-0.87-0.023-1.735-0.062-2.594-0.125l-0.094-14.25c0.017-1.413-0.63-1.957-1.687-2.687-1.551-0.183-1.998 0.561-2.5 1.812l0.062 14.656c-1.01-0.157-2.023-0.348-3-0.562l0.063-14.781c0.013-1.466-0.512-1.97-1.688-2.594-0.988-0.148-2.047 0.56-2.312 1.812l-0.281 14.407c-0.831-0.271-1.651-0.56-2.438-0.875l0.094-14.5c-0.058-1.574-0.771-2.102-1.969-2.907-1.003-0.119-2.002 0.541-2.219 1.563v13.875c-0.642-0.367-1.253-0.753-1.843-1.156 0.386-5.895-0.019-11.878-0.032-17.782 5.637 3.164 13.422 5.742 22.032 6.313 8.995 0.596 18.868-1.008 28.031-6.469zm-4 3c0.157 0.061 1.351 1.01 1.531 1.313l0.063 14.468c-0.676 0.363-2.734 1.144-3.438 1.469l0.188-14.562c-0.101-1.342 0.387-2.222 1.656-2.688zm-42.094 0.906c0.885 0.362 1.672 1.824 1.844 2.719l-0.156 14.188c-0.722-0.315-2.918-0.991-3.594-1.344l0.25-14.313c0.123-0.457 1.194-1.305 1.656-1.25zm7 2c0.471 0.071 1.495 1.18 1.406 2.25l-0.062 15c-0.754-0.182-2.992-0.752-3.719-0.968l0.438-14.594c0.132-0.888 1.379-1.45 1.937-1.688zm6.406 1.407c1.365 0.161 2.097 1.518 2.063 2.343l-0.031 14.313c-0.746-0.069-2.798-0.088-3.532-0.188l-0.062-14.718c-0.118-0.794 1.133-1.647 1.562-1.75zm7.188 0.437c0.782 0.003 1.543 0.629 1.75 1.875v14.688c-0.729 0.028-2.771-0.035-3.5-0.032l-0.094-14.718c0.26-1.196 1.062-1.816 1.844-1.813zm-25.125 0.25c-0.108 3.074 0.145 6.028-0.406 9.25-0.366-0.277-0.723-0.582-1.063-0.875-1.027-0.053-2.21 3.531-0.187 5.094 5.88 4.314 14.996 7.708 25.125 8.125l-0.375 1.906c0.041 0.003 0.083-0.002 0.125 0l-0.032 1.438c5.132-0.213 8.89-0.147 13.219-0.688 0.325 1.159 2.43 7.599 4.031 12.531 1.576 4.853 3.275 10.243 3.375 10.563-5.294 0.29-11.765-0.44-19.156-1.16-0.311-0.03-1.279 1.82-1.594 1.78-0.466-0.04-0.536-1.01-1-1.09-0.415-0.07-0.585 0.86-1 0.78-0.542-0.09-1.083-2.21-1.625-2.31-0.628-0.12-1.25-0.24-1.875-0.38-3.507-0.74-7.014-1.63-10.406-2.71l6.063-1.75-2.969-4.191-11.25 2.812c-1.302-0.594-2.569-1.203-3.781-1.875l12.875-3.687-2.938-4.188-12.969 3.219 1.625 3.844c-0.379-0.229-0.757-0.451-1.125-0.688l-0.75-3.312c-1.01 0.063-2.083-0.033-2.843 0.656-1.004-0.834-1.953-1.697-2.813-2.625-1.693-1.827-3.205-3.892-4.4375-6.094 3.9365-10.625 10.514-18.717 18.156-24.375zm36.969 0.938c1.586 0.082 3.016 1.127 3.687 2.593l0.063 10.282c-2.565 0.801-6.17 1.645-8.875 2.031l0.156-10.469c0.119-2.391 2.148-3.855 4.281-4.406 0.231-0.029 0.461-0.043 0.688-0.031zm36.879 1.125c-1.42 0.037-1.979 0.688-2.473 1.156-0.064 0.028-0.122 0.068-0.188 0.094l-0.031 1.656 4.972 3.656v-0.312l0.84-0.344-0.19-2.688c-0.14-0.676-0.15-1.528-0.5-2-0.52-0.408-0.91-0.81-2.43-1.218zm0.06 0.187c0.71 0.376 1.48 0.505 2.09 1.188 0.31 0.539 0.53 1.233 0.6 1.875l0.03 2.437-0.47 0.25 0.06-2.969c-0.02-1.584-1.08-1.709-2-2.281-0.88-0.305-1.46-0.143-1.999 0.094 0.479-0.32 1.039-0.578 1.689-0.594zm-0.63 0.563c0.25 0.005 0.49 0.073 0.78 0.187 1.52 0.606 2.04 1.424 1.94 2.375l-0.28 2.406-4.249-2.843v-1.407c0.56-0.322 1.079-0.733 1.809-0.718zm-2.903 2.406l-11.281 4.656 4.625 4.313 11.779-5.438-5.123-3.531zm0.062 0.375l4.191 3.062-10.878 4.969-3.969-3.562c3.563-1.465 7.11-2.965 10.656-4.469zm9.441 2.312c-1.42 0.038-1.98 0.689-2.47 1.157-0.07 0.028-0.12 0.068-0.19 0.093l-0.03 1.657 4.97 3.656v-0.313l0.84-0.343-0.19-2.688c-0.14-0.676-0.14-1.529-0.5-2-0.52-0.408-0.91-0.811-2.43-1.219zm0.06 0.188c0.71 0.376 1.48 0.504 2.09 1.187 0.31 0.54 0.53 1.233 0.6 1.875l0.03 2.438-0.47 0.25 0.06-2.969c-0.02-1.584-1.08-1.709-2-2.281-0.88-0.305-1.46-0.143-2 0.094 0.48-0.32 1.04-0.578 1.69-0.594zm-0.63 0.562c0.25 0.005 0.49 0.074 0.79 0.188 1.51 0.606 2.03 1.424 1.93 2.375l-0.28 2.406-4.25-2.844v-1.406c0.56-0.323 1.08-0.734 1.81-0.719zm-26.558 0.188c1.209-0.131 1.715 1.88-0.5 3.562-1.063 0.762-2.139 1.472-3.219 2.125l-0.687-0.687-1.313 0.625-0.844-0.75-0.937 0.375-0.625-0.594-0.063 0.031v-0.125l-1.093 0.375-0.094-0.093c3.321-1.187 6.416-2.744 9.125-4.782 0.086-0.028 0.169-0.053 0.25-0.062zm-53.875 1.125c6.202 4.77 15.321 6.72 25.094 6.75 1.882 0.006 3.782-0.068 5.687-0.219l-0.031 0.25-1.219 0.156v0.094l-0.062-0.062-0.188 1.031-2.187-0.031-0.125 0.937-1.782-0.125-0.468 2.281c-9.951-0.388-18.843-3.875-24.5-8.281-1.129-0.317-1.759-2.459-0.219-2.781zm77.533 1.094l-11.283 4.656 4.625 4.312 11.778-5.437-5.12-3.531zm0.06 0.375l4.19 3.062-10.877 4.969-3.969-3.563c3.563-1.464 7.106-2.964 10.656-4.468zm10.66 2.281c-1.42 0.037-1.98 0.689-2.47 1.156-0.07 0.029-0.12 0.068-0.19 0.094l-0.03 1.656 4.97 3.656v-0.312l0.84-0.344-0.19-2.687c-0.14-0.677-0.14-1.529-0.5-2-0.52-0.408-0.91-0.811-2.43-1.219zm-42.972 0.062l2.313 1.969c-4.94 2.019-11.721 4.361-18.188 3.781l0.406-2.312-0.125-0.094 1-0.094-0.156 0.907c0.031-0.002 0.063 0.001 0.094 0l0.062 1.218c4.377-0.129 9.299-0.397 14.719-2.906l0.125-1.219c0.057-0.02 0.099-0.042 0.156-0.062l-0.906-1 0.5-0.188zm-1.312 0.094l0.687 0.969c-4.265 1.548-9.145 2.807-13.594 2.625l0.188-1c4.347-0.377 8.695-1.217 12.719-2.594zm44.344 0.031c0.71 0.376 1.48 0.505 2.09 1.188 0.31 0.539 0.53 1.233 0.6 1.875l0.03 2.437-0.47 0.25 0.06-2.968c-0.02-1.585-1.08-1.71-2-2.282-0.88-0.305-1.46-0.142-2 0.094 0.48-0.32 1.04-0.578 1.69-0.594zm-40.907 0.25l2.906 2.907c-7.748 3.456-16.305 5.07-23.531 4.593l0.719-3.375 1.719-0.093-0.344 1.875c0.031 0.003 0.063-0.004 0.094 0v1.093c7.221 0.03 11.873-0.838 19.156-3.968v-1.25c0.041-0.018 0.083-0.045 0.125-0.063l-1.688-1.594 0.844-0.125zm1.938 0.125l3.843 3.969c-8.951 4.499-20.36 5.483-28.593 4.938l1-4.063 1.343-0.031-0.468 2.969c0.01 0 0.02-0.001 0.031 0l0.031 0.656c8.268 0.176 11.792-0.097 24.594-4.219v-1.219c0.021-0.009 0.041-0.022 0.062-0.031l-2.843-2.594 1-0.375zm38.339 0.188c0.25 0.005 0.49 0.073 0.79 0.187 1.51 0.606 2.03 1.424 1.93 2.375l-0.28 2.407-4.25-2.844v-1.406c0.56-0.323 1.08-0.734 1.81-0.719zm13.04 0.687c0.29 2.856-0.57 9.539-0.57 11.594 0 9.873-5.93 19.564-16.93 26.124-1.08 0.65-5.88 3.84-7.04 4.44-0.63-2.52-0.32-9.92-1.12-14.66-2.072-5.312-5.724-8.352-9.282-10.029-0.097-0.054-0.212-0.102-0.312-0.156-1.196-0.658-2.535-0.944-3.844-1.281-1.924 1.706-5.31 7.774-5.625 15.526-0.27 6.65 0.324 10.2 0.875 15-5.092 0.83-12.06 1.44-17.594 1.44-16.842 0-32.279-4.43-43.281-11-5.712-3.41-10.35-7.49-13.5-12l1-2.123c0.565 0.045 1.322-0.417 1.844-0.437 0.749-0.67 0.635-1.634 1-2.594l0.812-0.656 0.188-0.125-1.282 0.437c-0.357 0.911-0.686 1.834-1.031 2.75-0.272 0.028-0.781-0.022-1.187-0.062l0.156-0.344 0.375-3.5 0.312-1.656-0.062-0.063-0.75 1.438-0.125 3.406-0.9065 1.063-0.8437-3.375-0.1875-2.25-0.1875-0.25v2.5l0.7187 3.968-0.625 0.719c-2.4324-3.855-3.7812-8.002-3.7812-12.312 0-1.897-0.328-6.672-0.25-9.719 1.9809 8.143 8.5797 16.385 17.782 21.875 6.868 4.1 15.359 6.87 24.781 8.78 0.707 0.14 1.091 1.37 1.469 2.28l-1.313 3-3.75 1.85-0.875 2.4 0.188 0.06 0.937-2.43 2.063-0.75 1.25 4.62 0.125-0.06-0.719-4.81 1.094-0.41 1.093-3.25c0.021 0.05 0.042 0.11 0.063 0.16 0.158-0.1 0.922-0.94 1.094-1.13 0.131 0.12 0.868 1.9 1.125 2.13 0.202-0.27 1.108-2.58 1.718-2.5 4.281 0.56 8.723 0.87 13.282 0.87 3.814 0 9.033-0.35 12.656-0.75-0.007-0.19 0.003-0.37 0-0.56 0.162-8.55 1.619-16.66 9.437-20.656 0.615 0.088 1.401 0.258 2.282 0.5l0.406 1.875-1.563 0.75-0.062 0.062 1.875-0.469 0.125-0.781 0.75 1.531 4.094 1.938 2.062 2.812 0.25-0.062-1.656-2.75 2-0.156-2.406-0.282-3.813-1.687-1.031-2.469c4.639 1.514 11.303 5.286 13.813 13.874 2.85-1.21 2.25-1.81 4.72-3.28 0.6-0.36 1.2-0.718 1.78-1.094 0.13-0.086 0.38 0.272 0.62 0.563l0.04 0.25-0.16 1.471 1.25 2.59v0.22l-0.06 0.03 0.09 0.09 0.19 3.97 0.19-3.43 2 2.56 0.15-0.06-2.09-3.29v-0.15l-1.47-2.66 0.16-1.31c0.05 0.033 0.12 0.055 0.15 0.031 0.22-0.147 0.16-1.226 0.38-1.375 0.14-0.098 0.62 0.905 0.97 1.438l0.28 1.156h0.15l1.41 3.37 0.12-0.09-0.9-3.25 2.4 0.06 1.88 2.19 0.09-0.06-1.43-1.94 1.75 0.47-0.07-0.13-1.87-0.59-0.13-0.16-3.09 0.04-0.28-0.754c0.19-0.139-0.47-2.828-0.28-2.969 7.76-5.797 12.55-13.203 13.47-21.125zm-13.94 32.028l-0.03 0.32 0.03-0.04v-0.28zm-41.783-31.996l0.125 0.781c-5.304 1.827-9.432 2.968-13.938 2.781l-0.062-0.844c3.275-0.094 6.422-0.118 13.875-2.718zm2.656 0.937l0.063 0.781c-6.015 2.856-12.258 4.204-18.469 3.813l0.062-0.625c6.567 0.636 13.09-1.733 18.344-3.969zm37.127 0.75l-11.28 4.656 4.62 4.313 11.78-5.438-5.12-3.531zm0.06 0.375l4.19 3.063-10.88 4.968-3.97-3.562c3.57-1.465 7.11-2.964 10.66-4.469zm-33.906 0.094l0.063 0.937c-7.111 2.484-14.839 4.756-24.219 4.282l-0.031-0.5c7.685 0.122 16.437-1.393 24.187-4.719zm2.375 1.187l0.157 1.125c-8.963 3.911-18.985 4.821-28.782 4.938l-0.218-1.094c12.152 0.709 21.541-1.526 28.843-4.969zm-5.937 3.625l8.437 6.219c-1.465 1.533-2.802 3.197-3.968 5-1.24 2.67-1.802 8.539-1.907 13.409-1.393 0.26-3.044 0.46-4.875 0.56-0.088-0.3-1.703-5.73-3.281-10.594-1.61-4.959-3.738-11.587-4-12.531 2.774-0.36 5.818-0.967 9.594-2.063zm-45.031 0.907l-12.969 3.218 2.094 4.907 13.812-3.938-2.937-4.187zm-0.157 0.375l2.344 3.625-12.75 3.562-1.844-4.062c4.085-1.009 8.161-2.075 12.25-3.125zm57.375 2.031l0.969 1.687c-3.103 2.619-9.142 6.618-9.406 20.158l-0.75-0.94c-0.046-5.64 0.656-9.535 2.344-12.499 1.971-2.783 3.059-5.51 6.843-8.406zm0.313 0.125c3.699 0.503 8.717 2.681 11.969 5.875-2.435-1.66-5.066-2.699-7.438-3.406l0.563-0.875-0.125-0.063-0.969 0.5-1.281-1.094-0.188 0.125 0.75 1.063c-0.818-0.216-1.608-0.406-2.312-0.563l-0.969-1.562zm-70.844 0.656l-1.781 0.313-0.125 0.343 0.625 3.438 0.875 1.156 2.594-0.187-2.188-5.063zm-0.094 0.375l1.782 4.5-1.625-0.281v-2.094l-1.219-2 1.062-0.125zm-1.156 0.125l0.969 2.25-0.156 1.656-0.625-0.281-0.5-3.594 0.312-0.031zm18.344 3l2.344 3.594-12.688 3.594c-0.032-0.019-0.062-0.044-0.094-0.063l-1.812-4.031c4.084-1.009 8.16-2.043 12.25-3.094zm55.719 2.313c1.563 0.351 3.519 0.976 5.406 1.968 1.82 1.33 2.92 2.799 3.687 4.313l-9.093-6.281zm-69.907 0.906c0.211 0.01 0.424 0.071 0.657 0.156l0.562 2.188c-0.863-0.58-1.68-1.212-2.469-1.844 0.363-0.328 0.788-0.522 1.25-0.5zm94.536 2.312l0.34 0.657v0.031c0.01 0.511 0.57 2.183 0.41 2.312-0.01 0.005-0.03 0-0.04 0l-0.31-1.125c0.14-0.103-0.3-1.314-0.4-1.875zm-17.067 0.094c2.581 1.866 4.677 4.549 4.937 8.249l0.97 13.66-1.56-0.25c0.17-3.64 0.54-9.35-0.972-14.72-0.67-2.39-1.346-4.767-3.375-6.939zm16.437 1.219l0.19 0.375v0.031c-0.2 0.214-0.09 1.304-0.31 1.469-0.02 0.012-0.05-0.001-0.07 0l-0.15-0.656c0.02 0.007 0.04 0.011 0.06 0 0.18-0.131 0.1-1.087 0.28-1.219zm0.28 0.094c0.2 0.138 0.43 0.357 0.6 0.437l0.25 0.969c-0.23-0.275-0.55-0.775-0.75-1l-0.1-0.406zm-74.873 0.031l2.312 3.595-6.062 1.69c-2.337-0.77-4.612-1.64-6.781-2.598 3.511-0.873 7.013-1.783 10.531-2.687zm73.153 0.094c0.26 0.173 0.7 0.732 0.97 0.937l0.06 0.625c-0.29-0.245-0.7-0.811-0.93-0.906l-0.1-0.656zm-0.22 0.031l0.07 0.719c-0.55 0.399-1.09 0.802-1.63 1.187-1.97 1.174-1.77 1.344-3.47 2.534-0.12-0.39-0.29-0.73-0.43-1.1 1.93-1.155 3.84-2.199 5.46-3.34zm-58.621 10.34c9.766 1.39 19.213 1.14 24.75 0.03l0.782 0.57c-0.001 0.09 0 0.18 0 0.28-3.137 0.3-8.724 0.56-12 0.56-4.664 0-9.169 0.08-13.563-0.53-0.323-0.04-1.049 2.16-1.281 2.59-0.042 0-0.088-0.03-0.125-0.06l0.062-2c0.419-0.22 1-1.49 1.375-1.44zm-2.437 0.41c0.376 0.06 0.488 0.83 0.812 1.03l0.063 1.88c-0.331-0.49-0.494-1.75-0.906-1.82-0.011 0.01-0.021 0.03-0.032 0.03 0.005-0.35 0.049-0.76 0.063-1.12zm-0.094 0.03c-0.051 0.41-0.141 0.88-0.156 1.25-0.276 0.28-0.605 0.75-0.844 0.88-0.047-0.04-0.107-0.09-0.156-0.16l0.062-1.19c0.009 0.02 0.023 0.05 0.032 0.06 0.234-0.34 0.697-0.81 1.062-0.84zm1.156 3.53l1.75 1.78-0.75 6.66h0.25l0.532-3.5c1.172 0.93 3.014 1.44 4.218 2.22l0.125 2.44h0.063l0.062-2.63-4.406-2.44 0.469-3.12-2.313-1.41z"/>
  </g>
  <metadata>
    <rdf:RDF>
      <cc:Work>
        <dc:format>image/svg+xml</dc:format>
        <dc:type rdf:resource="http://purl.org/dc/dcmitype/StillImage"/>
        <cc:license rdf:resource="http://creativecommons.org/licenses/publicdomain/"/>
        <dc:publisher>
          <cc:Agent rdf:about="http://openclipart.org/">
            <dc:title>Openclipart</dc:title>
          </cc:Agent>
        </dc:publisher>
      </cc:Work>
      <cc:License rdf:about="http://creativecommons.org/licenses/publicdomain/">
        <cc:permits rdf:resource="http://creativecommons.org/ns#Reproduction"/>
        <cc:permits rdf:resource="http://creativecommons.org/ns#Distribution"/>
        <cc:permits rdf:resource="http://creativecommons.org/ns#DerivativeWorks"/>
      </cc:License>
    </rdf:RDF>
  </metadata>
</svg>
