<?xml version="1.0"?>
<svg xmlns:rdf="http://www.w3.org/1999/02/22-rdf-syntax-ns#" xmlns="http://www.w3.org/2000/svg" xmlns:cc="http://creativecommons.org/ns#" xmlns:xlink="http://www.w3.org/1999/xlink" xmlns:dc="http://purl.org/dc/elements/1.1/" id="svg2" viewBox="0 0 128 128" version="1.0">
  <defs id="defs4">
    <linearGradient id="linearGradient2338">
      <stop id="stop2340" stop-color="#b1b1b1" offset="0"/>
      <stop id="stop2342" stop-color="#e4e4e4" offset="1"/>
    </linearGradient>
    <linearGradient id="linearGradient2705" x1="89.531" xlink:href="#linearGradient2338" gradientUnits="userSpaceOnUse" x2="95.219" y1="114.97" y2="122.31"/>
    <linearGradient id="linearGradient2709" x1="96.564" xlink:href="#linearGradient2338" gradientUnits="userSpaceOnUse" x2="98.399" y1="113.87" y2="103.48"/>
    <linearGradient id="linearGradient2713" x1="99.01" xlink:href="#linearGradient2338" gradientUnits="userSpaceOnUse" x2="104.21" y1="118.89" y2="108.98"/>
    <linearGradient id="linearGradient2717" x1="62.011" xlink:href="#linearGradient2338" gradientUnits="userSpaceOnUse" x2="106.47" y1="98.707" y2="71.309"/>
    <linearGradient id="linearGradient2721" x1="51.37" xlink:href="#linearGradient2338" gradientUnits="userSpaceOnUse" x2="54.734" y1="84.641" y2="96.016"/>
    <linearGradient id="linearGradient2725" x1="63.173" xlink:href="#linearGradient2338" gradientUnits="userSpaceOnUse" x2="62.99" y1="81.522" y2="80.727"/>
    <linearGradient id="linearGradient2729" x1="76.016" xlink:href="#linearGradient2338" gradientUnits="userSpaceOnUse" x2="76.138" y1="80.788" y2="80.391"/>
    <linearGradient id="linearGradient2733" x1="84.761" xlink:href="#linearGradient2338" gradientUnits="userSpaceOnUse" x2="85.709" y1="77.364" y2="78.587"/>
    <linearGradient id="linearGradient2737" x1="97.726" xlink:href="#linearGradient2338" gradientUnits="userSpaceOnUse" x2="97.909" y1="75.59" y2="74.856"/>
    <linearGradient id="linearGradient2741" x1="113.01" xlink:href="#linearGradient2338" gradientUnits="userSpaceOnUse" x2="113.08" y1="79.504" y2="78.587"/>
    <linearGradient id="linearGradient2745" x1="34.614" xlink:href="#linearGradient2338" gradientUnits="userSpaceOnUse" x2="36.815" y1="95.771" y2="105.07"/>
    <linearGradient id="linearGradient2749" x1="33.391" xlink:href="#linearGradient2338" gradientUnits="userSpaceOnUse" x2="34.186" y1="102.13" y2="102.31"/>
    <linearGradient id="linearGradient2753" x1="38.161" xlink:href="#linearGradient2338" gradientUnits="userSpaceOnUse" x2="38.589" y1="96.78" y2="102.71"/>
    <linearGradient id="linearGradient2757" x1="19.998" xlink:href="#linearGradient2338" gradientUnits="userSpaceOnUse" x2="33.452" y1="83.601" y2="109.65"/>
    <linearGradient id="linearGradient2761" x1="12.904" xlink:href="#linearGradient2338" gradientUnits="userSpaceOnUse" x2="11.925" y1="77.241" y2="78.587"/>
    <linearGradient id="linearGradient2765" x1="26.48" xlink:href="#linearGradient2338" gradientUnits="userSpaceOnUse" x2="26.052" y1="80.544" y2="81.4"/>
    <linearGradient id="linearGradient2769" x1="40.546" xlink:href="#linearGradient2338" gradientUnits="userSpaceOnUse" x2="41.647" y1="100.11" y2="100.05"/>
    <linearGradient id="linearGradient2773" x1="43.909" xlink:href="#linearGradient2338" gradientUnits="userSpaceOnUse" x2="43.237" y1="104.33" y2="104.82"/>
    <linearGradient id="linearGradient2777" x1="39.017" xlink:href="#linearGradient2338" gradientUnits="userSpaceOnUse" x2="53.633" y1="84.947" y2="98.829"/>
    <linearGradient id="linearGradient2781" x1="37.182" xlink:href="#linearGradient2338" gradientUnits="userSpaceOnUse" x2="41.952" y1="64.337" y2="69.413"/>
    <linearGradient id="linearGradient2785" x1="17.49" xlink:href="#linearGradient2338" gradientUnits="userSpaceOnUse" x2="21.16" y1="42.199" y2="47.581"/>
    <linearGradient id="linearGradient2789" x1="28.193" xlink:href="#linearGradient2338" gradientUnits="userSpaceOnUse" x2="32.535" y1="47.459" y2="42.75"/>
    <linearGradient id="linearGradient2793" x1="23.667" xlink:href="#linearGradient2338" gradientUnits="userSpaceOnUse" x2="22.658" y1="43.055" y2="36.084"/>
    <linearGradient id="linearGradient2797" x1="49.413" xlink:href="#linearGradient2338" gradientUnits="userSpaceOnUse" x2="50.086" y1="60.699" y2="56.877"/>
    <linearGradient id="linearGradient2801" x1="43.359" xlink:href="#linearGradient2338" gradientUnits="userSpaceOnUse" x2="45.928" y1="58.895" y2="56.999"/>
    <linearGradient id="linearGradient2805" x1="41.433" xlink:href="#linearGradient2338" gradientUnits="userSpaceOnUse" x2="41.952" y1="59.781" y2="61.616"/>
    <linearGradient id="linearGradient2809" x1="38.834" xlink:href="#linearGradient2338" gradientUnits="userSpaceOnUse" x2="39.506" y1="61.83" y2="59.934"/>
    <linearGradient id="linearGradient2813" x1="35.653" xlink:href="#linearGradient2338" gradientUnits="userSpaceOnUse" x2="37.244" y1="60.913" y2="58.65"/>
    <linearGradient id="linearGradient2817" x1="33.635" xlink:href="#linearGradient2338" gradientUnits="userSpaceOnUse" x2="34.247" y1="58.161" y2="57.182"/>
    <linearGradient id="linearGradient2821" x1="29.538" xlink:href="#linearGradient2338" gradientUnits="userSpaceOnUse" x2="32.412" y1="56.571" y2="56.082"/>
    <linearGradient id="linearGradient2825" x1="30.945" xlink:href="#linearGradient2338" gradientUnits="userSpaceOnUse" x2="31.74" y1="53.513" y2="55.103"/>
    <linearGradient id="linearGradient2829" x1="31.984" xlink:href="#linearGradient2338" gradientUnits="userSpaceOnUse" x2="34.247" y1="52.351" y2="49.293"/>
    <linearGradient id="linearGradient2833" x1="37.61" xlink:href="#linearGradient2338" gradientUnits="userSpaceOnUse" x2="38.344" y1="52.351" y2="51.434"/>
    <linearGradient id="linearGradient2837" x1="38.772" xlink:href="#linearGradient2338" gradientUnits="userSpaceOnUse" x2="38.895" y1="49.844" y2="51.617"/>
    <linearGradient id="linearGradient2841" x1="41.891" xlink:href="#linearGradient2338" gradientUnits="userSpaceOnUse" x2="41.83" y1="49.783" y2="49.11"/>
    <linearGradient id="linearGradient2845" x1="45.622" xlink:href="#linearGradient2338" gradientUnits="userSpaceOnUse" x2="48.068" y1="54.308" y2="53.146"/>
    <linearGradient id="linearGradient2849" x1="39.384" xlink:href="#linearGradient2338" gradientUnits="userSpaceOnUse" x2="43.359" y1="59.445" y2="54.553"/>
    <linearGradient id="linearGradient2853" x1="34.736" xlink:href="#linearGradient2338" gradientUnits="userSpaceOnUse" x2="42.319" y1="54.553" y2="50.516"/>
    <linearGradient id="linearGradient2857" x1="67.76" xlink:href="#linearGradient2338" gradientUnits="userSpaceOnUse" x2="67.638" y1="31.253" y2="26.482"/>
    <linearGradient id="linearGradient2861" x1="69.717" xlink:href="#linearGradient2338" gradientUnits="userSpaceOnUse" x2="73.08" y1="33.271" y2="26.544"/>
    <linearGradient id="linearGradient2865" x1="62.745" xlink:href="#linearGradient2338" gradientUnits="userSpaceOnUse" x2="67.821" y1="31.803" y2="36.023"/>
    <linearGradient id="linearGradient2871" x1="35.898" xlink:href="#linearGradient2338" gradientUnits="userSpaceOnUse" x2="35.776" y1="25.137" y2="25.932"/>
    <linearGradient id="linearGradient2875" x1="45.194" xlink:href="#linearGradient2338" gradientUnits="userSpaceOnUse" x2="43.971" y1="28.134" y2="29.54"/>
    <linearGradient id="linearGradient2879" x1="52.899" xlink:href="#linearGradient2338" gradientUnits="userSpaceOnUse" x2="53.511" y1="34.249" y2="32.659"/>
    <linearGradient id="linearGradient2883" x1="58.954" xlink:href="#linearGradient2338" gradientUnits="userSpaceOnUse" x2="60.116" y1="37.918" y2="36.818"/>
    <linearGradient id="linearGradient2887" x1="64.702" xlink:href="#linearGradient2338" gradientUnits="userSpaceOnUse" x2="64.029" y1="39.875" y2="40.915"/>
    <linearGradient id="linearGradient2893" x1="51.493" xlink:href="#linearGradient2338" gradientUnits="userSpaceOnUse" x2="67.393" y1="35.411" y2="66.6"/>
    <linearGradient id="linearGradient2897" x1="67.148" xlink:href="#linearGradient2338" gradientUnits="userSpaceOnUse" x2="79.502" y1="39.264" y2="62.747"/>
    <linearGradient id="linearGradient2901" x1="74.976" xlink:href="#linearGradient2338" gradientUnits="userSpaceOnUse" x2="74.12" y1="44.156" y2="45.441"/>
    <linearGradient id="linearGradient2905" x1="80.174" xlink:href="#linearGradient2338" gradientUnits="userSpaceOnUse" x2="81.764" y1="54.002" y2="53.635"/>
    <linearGradient id="linearGradient2909" x1="83.477" xlink:href="#linearGradient2338" gradientUnits="userSpaceOnUse" x2="82.498" y1="61.769" y2="62.136"/>
    <linearGradient id="linearGradient2913" x1="61.155" xlink:href="#linearGradient2338" gradientUnits="userSpaceOnUse" x2="61.706" y1="52.901" y2="53.207"/>
    <linearGradient id="linearGradient2917" x1="63.54" xlink:href="#linearGradient2338" gradientUnits="userSpaceOnUse" x2="65.13" y1="45.563" y2="46.236"/>
    <linearGradient id="linearGradient2921" x1="79.685" xlink:href="#linearGradient2338" gradientUnits="userSpaceOnUse" x2="80.174" y1="33.271" y2="34.188"/>
    <linearGradient id="linearGradient2925" x1="75.404" xlink:href="#linearGradient2338" gradientUnits="userSpaceOnUse" x2="92.834" y1="39.264" y2="46.664"/>
    <linearGradient id="linearGradient2929" x1="106.29" xlink:href="#linearGradient2338" gradientUnits="userSpaceOnUse" x2="105.74" y1="25.443" y2="26.238"/>
    <linearGradient id="linearGradient2935" x1="114.12" xlink:href="#linearGradient2338" gradientUnits="userSpaceOnUse" x2="112.89" y1="31.253" y2="31.65"/>
    <linearGradient id="linearGradient2939" x1="114.67" xlink:href="#linearGradient2338" gradientUnits="userSpaceOnUse" x2="115.16" y1="36.695" y2="36.695"/>
    <linearGradient id="linearGradient2943" x1="107.63" xlink:href="#linearGradient2338" gradientUnits="userSpaceOnUse" x2="106.35" y1="30.029" y2="39.57"/>
    <linearGradient id="linearGradient2947" x1="100.78" xlink:href="#linearGradient2338" gradientUnits="userSpaceOnUse" x2="112.22" y1="33.638" y2="46.725"/>
    <linearGradient id="linearGradient2955" x1="99.438" xlink:href="#linearGradient2338" gradientUnits="userSpaceOnUse" x2="98.674" y1="24.159" y2="24.709"/>
    <linearGradient id="linearGradient2959" x1="101.58" xlink:href="#linearGradient2338" gradientUnits="userSpaceOnUse" x2="100.78" y1="27.522" y2="27.706"/>
    <linearGradient id="linearGradient2963" x1="105.98" xlink:href="#linearGradient2338" gradientUnits="userSpaceOnUse" x2="105.68" y1="31.314" y2="32.537"/>
    <linearGradient id="linearGradient2967" x1="111.91" xlink:href="#linearGradient2338" gradientUnits="userSpaceOnUse" x2="110.94" y1="36.084" y2="36.756"/>
    <linearGradient id="linearGradient2971" x1="109.35" xlink:href="#linearGradient2338" gradientUnits="userSpaceOnUse" x2="116.01" y1="46.236" y2="59.873"/>
    <linearGradient id="linearGradient2975" x1="110.94" xlink:href="#linearGradient2338" gradientUnits="userSpaceOnUse" x2="110.17" y1="40.365" y2="40.548"/>
    <linearGradient id="linearGradient2979" x1="115.83" xlink:href="#linearGradient2338" gradientUnits="userSpaceOnUse" x2="114.85" y1="48.009" y2="48.682"/>
    <linearGradient id="linearGradient2983" x1="120.23" xlink:href="#linearGradient2338" gradientUnits="userSpaceOnUse" x2="121.58" y1="58.895" y2="58.711"/>
    <filter id="filter3633">
      <feGaussianBlur id="feGaussianBlur3635" stdDeviation="2.1484375"/>
    </filter>
  </defs>
  <g id="layer2" fill-rule="evenodd">
    <path id="path3608" filter="url(#filter3633)" fill-opacity=".66667" d="m30.094 24.219l-3.813 1.562 37.188 23.531-6.031 6.376 1.531 0.687 8.312-2.25 14.188 11.25-10.375-18.313 18-6.062 14.876 5.875 11.94 11.594 2.59-2.094-21.125-25.406-31.469 7.25-2.437 3.656-33.375-17.656zm36.844 2.75l-6.219 5.906 2.062 1.031 7.438-4.844-3.281-2.093zm-50.126 9.469l-6.5 5.718 6.5 2.094-8.8432 1.938 1.9062 5.874 6.375 6.75 5.375 25.438-16.438-10.219-3.9682 1.031s24.895 22.852 26.625 24.063l0.187-6.75 11.407-2.594 15.062 9.844 59.16-19.719s-11.95-4.491-15.41-5.875c-3.459-1.384-26.281 10.031-26.281 10.031l-7.438-3.624-20.25 1.718-15.906-26.125 0.844-8.125-2.938-6.562-9.469-4.906zm78.657 70.402c-2.202-0.13-12.281 12.85-12.281 12.85l8.312 2.09 12.12-11.25s-6.234-2.59-7.964-3.62c-0.054-0.04-0.116-0.06-0.187-0.07z"/>
    <path id="path2703" fill="url(#linearGradient2705)" d="m85.189 112.28l12.354 4.16 0.489 8.14-2.936-1.11-0.734-1.83-0.978 0.61-0.489-1.28-1.223 0.91-6.422-2.93-0.061-6.67z"/>
    <path id="path2707" fill="url(#linearGradient2709)" d="m85.373 112.28l10.457-10.52 1.346-0.06 1.59-1.04 0.55-1.464 1.344 1.164 0.92-0.736 7.03 2.756-11.129 14.06-12.108-4.16z"/>
    <path id="path2711" fill="url(#linearGradient2713)" d="m97.359 116.5l11.191-14.12 0.55 6.66-11.007 15.41-0.734-7.95z"/>
    <path id="path2715" fill="url(#linearGradient2717)" d="m52.288 105.07l-0.795-18.778 2.324-2.018 18.346-4.281 7.216 2.385 14.372-8.133 12.969 5.014 5.87 0.551 0.67 0.611 0.79-0.428 1.04 1.04 0.19-1.101 4.28 0.489-12.84 4.893-54.432 19.756z"/>
    <path id="path2719" d="m51.432 86.109l-0.062-2.447 0.428-0.489 1.896 1.162-2.262 1.774z" fill="url(#linearGradient2721)"/>
    <path id="path2723" fill="url(#linearGradient2725)" d="m51.982 83.173l1.957 1.285 18.346-4.465-1.162-1.468-19.386 4.342 0.245 0.306z"/>
    <path id="path2727" fill="url(#linearGradient2729)" d="m71.246 78.587l6.543 2.079 1.59 1.529-6.849-2.08-1.284-1.528z"/>
    <path id="path2731" fill="url(#linearGradient2733)" d="m77.789 80.666l14.311-7.828 1.529 1.468-14.188 8.133-1.652-1.773z"/>
    <path id="path2735" fill="url(#linearGradient2737)" d="m91.977 72.899l14.003 4.893 0.67 1.284-13.021-4.893-1.652-1.284z"/>
    <path id="path2739" fill="url(#linearGradient2741)" d="m105.92 77.792l11.74 1.345 1.9 1.223-4.1-0.428-0.37 1.101-1.04-1.101-0.67 0.55-0.92-0.733-5.62-0.429-0.92-1.528z"/>
    <path id="path2743" fill="url(#linearGradient2745)" d="m31.067 92.591l3.73 2.385 2.691 3.425-2.446 0.978-4.403-6.176 0.428-0.612z"/>
    <path id="path2747" fill="url(#linearGradient2749)" d="m32.657 101.4l2.14-1.959 2.752-0.857-2.568 2.386-0.551 2.32-2.874 0.74 1.101-2.63z"/>
    <path id="path2751" d="m36.265 99.93l1.407-1.59-3.119-3.364 4.586 0.612 0.551 2.996-3.425 1.346z" fill="url(#linearGradient2753)"/>
    <path id="path2755" fill="url(#linearGradient2757)" d="m31.067 84.396c-0.612-0.183-12.72-6.421-12.72-6.421l-2.569 1.162-1.101 1.284-7.1549-4.77-4.0363-0.978 28.07 29.417 0.55-1.04 0.734-1.84 2.202-1.831-4.281-6.115c0.251-2.926 0.81-5.791 0.306-8.868z"/>
    <path id="path2759" fill="url(#linearGradient2761)" d="m7.5832 75.407l-4.1585-0.857 2.5685-0.917 3.8528 0.734 6.36 4.77-1.468 1.284-7.1548-5.014z"/>
    <path id="path2763" fill="url(#linearGradient2765)" d="m20.976 76.997l-2.324 0.856 12.476 6.421 0.122-2.263-10.274-5.014z"/>
    <path id="path2767" fill="url(#linearGradient2769)" d="m39.2 95.649l1.04 6.111 2.446 0.68-2.385-6.913-1.101 0.122z"/>
    <path id="path2771" fill="url(#linearGradient2773)" d="m40.301 101.76c0.612 0.55 2.446 0.74 2.446 0.74l5.076 4.34-0.795 3.12-1.957-1.35-4.77-6.85z"/>
    <path id="path2775" fill="url(#linearGradient2777)" d="m31.862 65.927l-1.04 26.603 3.731 2.324 5.626 0.856 2.324 6.54 5.198 4.71-0.55 2.82 5.504-3.12-1.285-22.508-1.284-18.591-2.446 1.651-3.425 0.917-4.036 0.122-3.731-0.489-3.547-1.468-1.039-0.367z"/>
    <path id="path2779" fill="url(#linearGradient2781)" d="m29.66 57.06l-0.183 1.284 0.306 5.321 1.467 1.651 2.508 1.59 1.957 0.734s5.871 0.55 6.666 0.795c0.795 0.244 7.277-2.141 7.277-2.141l2.324-2.69-0.612-4.159-2.262 2.079-0.367-2.813-2.936 0.795-3.914 0.489-0.244 2.691h-2.63l-3.73-0.55v-2.813l-2.814-0.673-1.957-1.773-0.305 1.223-0.551-1.04z"/>
    <path id="path2783" fill="url(#linearGradient2785)" d="m12.231 38.713l14.677 6.666 0.245 3.425-15.289-6.727 0.061-3.241 0.306-0.123z"/>
    <path id="path2787" fill="url(#linearGradient2789)" d="m26.908 45.318l6.36-3.547 0.49 3.608-6.544 3.425-0.306-3.486z"/>
    <path id="path2791" fill="url(#linearGradient2793)" d="m16.634 36.084l-4.403 2.568 14.616 6.666 6.238-3.547-16.451-5.687z"/>
    <path id="path2795" d="m49.23 56.877l-0.917 1.039 0.367 0.795 0.428 2.63 2.14-1.896-2.018-2.568z" fill="url(#linearGradient2797)"/>
    <path id="path2799" fill="url(#linearGradient2801)" d="m47.64 56.143c0.183 0.611 0.978 2.568 0.978 2.568l-4.342 1.101h-2.385l-0.672-1.957 0.978 0.122 3.18-0.856 2.263-0.978z"/>
    <path id="path2803" d="m41.341 62.564l-0.428-1.957 0.122-2.507 0.917 1.895-0.611 2.569z" fill="url(#linearGradient2805)"/>
    <path id="path2807" fill="url(#linearGradient2809)" d="m40.974 60.913l0.306 1.773h-2.508l-2.996-0.489-0.306-0.306 2.018-1.406 1.468 0.428h2.018z"/>
    <path id="path2811" fill="url(#linearGradient2813)" d="m35.225 59.323v2.691l2.447-1.652-0.367-2.14-2.08 1.101z"/>
    <path id="path2815" fill="url(#linearGradient2817)" d="m30.455 56.877l2.202-0.795 1.223 0.978 3.302 1.101-1.957 1.039-2.629-0.55-1.346-0.734-0.795-1.039z"/>
    <path id="path2819" d="m30.088 58.161l-0.55-1.284 0.489-1.896 2.202 0.55 0.183 0.734-1.834 0.673-0.49 1.223z" fill="url(#linearGradient2821)"/>
    <path id="path2823" fill="url(#linearGradient2825)" d="m30.027 52.29l2.263 0.978v2.263l-2.324-0.55 0.061-2.691z"/>
    <path id="path2827" fill="url(#linearGradient2829)" d="m30.088 52.229l2.018 0.978 1.652-1.468 2.324-0.795-1.59-1.651-2.569 1.223-1.835 1.713z"/>
    <path id="path2831" fill="url(#linearGradient2833)" d="m36.326 51.617l1.101-0.122 1.04-0.367 0.978 1.407-1.101 0.366-1.223 0.123-0.55-0.061-0.245-1.346z"/>
    <path id="path2835" fill="url(#linearGradient2837)" d="m38.222 48.559l1.223 1.774 0.122 2.14-1.284-1.406-0.061-2.508z"/>
    <path id="path2839" fill="url(#linearGradient2841)" d="m38.405 48.621l2.569-0.123 2.568 1.407 0.673 1.896-2.385-1.713h-2.324l-1.101-1.467z"/>
    <path id="path2843" fill="url(#linearGradient2845)" d="m44.766 53.146l2.14 0.245 0.734 2.201-3.18-0.856 0.673-0.55-0.367-1.04z"/>
    <path id="path2847" fill="url(#linearGradient2849)" d="m44.949 54.125c-0.245 0-2.935-0.367-2.935-0.367l-2.508 0.244-2.752 0.795-1.651 0.795-1.529 1.346 0.918 0.428 2.752 0.856 0.305 2.324 1.713 0.428 1.651-0.122 0.306-2.752 2.018-0.245 2.446-0.856 2.018-0.795 0.55 1.773 0.673-0.183 0.367-0.734-1.529-1.59-3.363-0.673 0.55-0.672z"/>
    <path id="path2851" fill="url(#linearGradient2853)" d="m32.168 56.02l0.061-2.69 1.834-1.652 2.202-0.672 0.367 2.079 0.917-0.061 2.018-0.489-0.061-2.202 2.018-0.245 2.875 1.774 0.611 2.324-2.385-0.49-3.363 0.306-3.242 0.795-1.345 1.223-0.978 0.795-1.529-0.795z"/>
    <path id="path2855" fill="url(#linearGradient2857)" d="m61.95 30.335l5.81 2.079 5.565-6.971-4.954-1.713-6.421 6.605z"/>
    <path id="path2859" fill="url(#linearGradient2861)" d="m67.821 32.414l5.749-7.032v3.363l-4.587 6.85-0.428-0.612-0.428-0.55-0.306-2.019z"/>
    <path id="path2863" fill="url(#linearGradient2865)" d="m67.882 32.353l-5.993-1.957-0.183 2.997 5.137 2.63 0.55-0.734 0.612 0.306 0.244-0.367-0.367-2.875z"/>
    <path id="path2869" fill="url(#linearGradient2871)" d="m40.424 24.77c-0.612-0.183-9.174 0.245-9.174 0.245l-2.201 0.795 8.745 0.122 2.63-1.162z"/>
    <path id="path2873" fill="url(#linearGradient2875)" d="m40.485 24.892l8.928 6.238-2.629 1.223-8.99-6.36 2.691-1.101z"/>
    <path id="path2877" fill="url(#linearGradient2879)" d="m49.23 31.069l8.684 2.874-2.752 1.223-8.256-2.935 2.324-1.162z"/>
    <path id="path2881" fill="url(#linearGradient2883)" d="m57.853 33.882c0 0.367 5.626 5.688 5.626 5.688l-2.752 1.223-5.626-5.688 2.752-1.223z"/>
    <path id="path2885" fill="url(#linearGradient2887)" d="m61.094 40.915l3.669 0.306 0.306-0.612 1.896-1.039h-3.486l-2.385 1.345z"/>
    <path id="path2891" fill="url(#linearGradient2893)" d="m30.272 26.177l7.583-0.123 8.929 6.36 8.378 2.875 5.81 5.565 3.975 0.122-3.303 9.112-31.494-23.606 0.122-0.305z"/>
    <path id="path2895" fill="url(#linearGradient2897)" d="m69.167 54.675l-0.062-12.109 8.501 5.993 3.302 10.397 1.774 8.439-13.515-12.72z"/>
    <path id="path2899" fill="url(#linearGradient2901)" d="m69.289 42.26l2.507-0.917 8.317 6.177-2.874 0.856-8.378-5.932 0.428-0.184z"/>
    <path id="path2903" fill="url(#linearGradient2905)" d="m77.484 48.376l2.813-0.856 3.302 10.274-2.752 0.917-3.363-10.335z"/>
    <path id="path2907" fill="url(#linearGradient2909)" d="m80.969 58.833l2.63-1.1 1.468 9.051-2.385 0.795-1.713-8.746z"/>
    <path id="path2911" fill="url(#linearGradient2913)" d="m63.907 51.801l-2.446-1.407-3.119 5.993 1.712 1.162 3.853-5.748z"/>
    <path id="path2915" fill="url(#linearGradient2917)" d="m64.824 40.793l-3.302 9.785 2.263 1.1 1.773-2.874 1.652-6.91-2.386-1.101z"/>
    <path id="path2919" fill="url(#linearGradient2921)" d="m64.886 40.67l30.088-15.288 1.773 1.039-29.537 15.534-2.324-1.285z"/>
    <path id="path2923" fill="url(#linearGradient2925)" d="m60.36 57.243l5.015-8.255 1.896-7.094 29.476-15.534-0.672 19.447-14.861 4.771-1.162-3.242-8.072-6.115-3.18 1.162 0.428 12.231-8.868 2.629z"/>
    <path id="path2927" fill="url(#linearGradient2929)" d="m98.888 21.773l3.302 2.814 3.67 1.834 5.2 3.547 2.38-0.856-5.81-3.73-4.16-1.346-3.18-2.691-1.402 0.428z"/>
    <path id="path2933" fill="url(#linearGradient2935)" d="m113.38 29.234l2.63 3.975-2.51 0.857-2.32-4.159 2.2-0.673z"/>
    <path id="path2937" fill="url(#linearGradient2939)" d="m113.75 34.188l0.79 4.036 1.17 0.856 0.24-5.993-2.2 1.101z"/>
    <path id="path2941" fill="url(#linearGradient2943)" d="m98.888 21.712l3.242 3.119 3.61 1.468 5.44 3.669 2.57 4.159 0.79 4.22-1.46-0.918-1.78-4.22-8.56-4.036-0.61-3.853-3.487-2.201-0.489-0.367 0.795-0.245-0.061-0.795z"/>
    <path id="path2945" fill="url(#linearGradient2947)" d="m94.974 22.324c0.612 0.428 5.196 3.73 5.196 3.73l0.37 4.159 8.68 3.975 0.31 0.856 1.41 3.669 0.12-0.366 4.65 1.039 0.36 5.504-1.04 0.551-7.52 2.996-3.61 0.367-4.278-1.101-3.608-1.896 0.55-19.569-1.773-1.04 0.183-2.874z"/>
    <path id="path2953" fill="url(#linearGradient2955)" d="m95.219 22.507l1.651-0.428 5.26 2.997-2.202 0.611-4.709-3.18z"/>
    <path id="path2957" fill="url(#linearGradient2959)" d="m100.11 25.871l0.43 4.403 2.14-1.407-0.49-3.73-2.08 0.734z"/>
    <path id="path2961" fill="url(#linearGradient2963)" d="m100.84 30.091l1.84-0.857 8.81 4.098-2.45 0.734-8.2-3.975z"/>
    <path id="path2965" fill="url(#linearGradient2967)" d="m108.98 34.066l2.32-0.734 1.71 3.853 2.57 1.834-4.95-0.917-0.92-3.302-0.73-0.734z"/>
    <path id="path3602" fill-opacity=".15686" d="m94.974 22.324c0.612 0.428 5.196 3.73 5.196 3.73l0.37 4.159 8.68 3.975 0.31 0.856 1.41 3.669 0.12-0.366 4.65 1.039 0.36 5.504-1.04 0.551-7.52 2.996-3.61 0.367-4.278-1.101-3.608-1.896 0.55-19.569-1.773-1.04 0.183-2.874z"/>
    <path id="path2969" fill="url(#linearGradient2971)" d="m107.45 35.961v12.293l12.48 15.472-0.8-8.929-9.3-10.885-2.01-7.278-0.37-0.673z"/>
    <path id="path2973" fill="url(#linearGradient2975)" d="m107.39 35.717l2.14-0.795 3.42 8.562-2.81 0.856-2.38-7.278-0.37-1.345z"/>
    <path id="path2977" fill="url(#linearGradient2979)" d="m110.32 44.34l2.51-1.101 9.17 10.702-2.87 1.101-8.81-10.702z"/>
    <path id="path2981" fill="url(#linearGradient2983)" d="m119.31 54.858l0.55 9.051 0.55 0.367 2.21-1.345-0.68-9.051-2.63 0.978z"/>
    <path id="path2985" fill-opacity=".15686" d="m85.189 112.28l12.354 4.16 0.489 8.14-2.936-1.11-0.734-1.83-0.978 0.61-0.489-1.28-1.223 0.91-6.422-2.93-0.061-6.67z"/>
    <path id="path2987" fill-opacity=".15686" d="m51.432 86.109l-0.062-2.447 0.428-0.489 1.896 1.162-2.262 1.774z"/>
    <path id="path2989" fill-opacity=".15686" d="m77.789 80.666l14.311-7.828 1.529 1.468-14.188 8.133-1.652-1.773z"/>
    <path id="path2991" fill-opacity=".15686" d="m32.657 101.4l2.14-1.959 2.752-0.857-2.568 2.386-0.551 2.32-2.874 0.74 1.101-2.63z"/>
    <path id="path2993" fill-opacity=".15686" d="m36.265 99.93l1.407-1.59-3.119-3.364 4.586 0.612 0.551 2.996-3.425 1.346z"/>
    <path id="path2995" fill-opacity=".15686" d="m31.067 84.396c-0.612-0.183-12.72-6.421-12.72-6.421l-2.569 1.162-1.101 1.284-7.1549-4.77-4.0363-0.978 28.07 29.417 0.55-1.04 0.734-1.84 2.202-1.831-4.281-6.115c0.251-2.926 0.81-5.791 0.306-8.868z"/>
    <path id="path2997" fill-opacity=".15686" d="m39.2 95.649l1.04 6.111 2.446 0.68-2.385-6.913-1.101 0.122z"/>
    <path id="path2999" fill-opacity=".15686" d="m40.301 101.76c0.612 0.55 2.446 0.74 2.446 0.74l5.076 4.34-0.795 3.12-1.957-1.35-4.77-6.85z"/>
    <path id="path3578" fill-opacity=".15686" d="m41.341 62.564l-0.428-1.957 0.122-2.507 0.917 1.895-0.611 2.569z"/>
    <path id="path3580" fill-opacity=".15686" d="m30.027 52.29l2.263 0.978v2.263l-2.324-0.55 0.061-2.691z"/>
    <path id="path3582" fill-opacity=".15686" d="m38.222 48.559l1.223 1.774 0.122 2.14-1.284-1.406-0.061-2.508z"/>
    <path id="path3584" fill-opacity=".15686" d="m32.168 56.02l0.061-2.69 1.834-1.652 2.202-0.672 0.367 2.079 0.917-0.061 2.018-0.489-0.061-2.202 2.018-0.245 2.875 1.774 0.611 2.324-2.385-0.49-3.363 0.306-3.242 0.795-1.345 1.223-0.978 0.795-1.529-0.795z"/>
    <path id="path3586" fill-opacity=".15686" d="m12.231 38.713l14.677 6.666 0.245 3.425-15.289-6.727 0.061-3.241 0.306-0.123z"/>
    <path id="path3588" fill-opacity=".15686" d="m67.882 32.353l-5.993-1.957-0.183 2.997 5.137 2.63 0.55-0.734 0.612 0.306 0.244-0.367-0.367-2.875z"/>
    <path id="path3590" fill-opacity=".15686" d="m61.094 40.915l3.669 0.306 0.306-0.612 1.896-1.039h-3.486l-2.385 1.345z"/>
    <path id="path3592" fill-opacity=".15686" d="m30.272 26.177l7.583-0.123 8.929 6.36 8.378 2.875 5.81 5.565 3.975 0.122-3.303 9.112-31.494-23.606 0.122-0.305z"/>
    <path id="path3594" fill-opacity=".15686" d="m69.167 54.675l-0.062-12.109 8.501 5.993 3.302 10.397 1.774 8.439-13.515-12.72z"/>
    <path id="path3596" fill-opacity=".15686" d="m63.907 51.801l-2.446-1.407-3.119 5.993 1.712 1.162 3.853-5.748z"/>
    <path id="path3598" fill-opacity=".15686" d="m64.824 40.793l-3.302 9.785 2.263 1.1 1.773-2.874 1.652-6.91-2.386-1.101z"/>
    <path id="path3600" fill-opacity=".15686" d="m98.888 21.712l3.242 3.119 3.61 1.468 5.44 3.669 2.57 4.159 0.79 4.22-1.46-0.918-1.78-4.22-8.56-4.036-0.61-3.853-3.487-2.201-0.489-0.367 0.795-0.245-0.061-0.795z"/>
    <path id="path3604" fill-opacity=".15686" d="m107.45 35.961v12.293l12.48 15.472-0.8-8.929-9.3-10.885-2.01-7.278-0.37-0.673z"/>
  </g>
  <g id="layer1">
    <path id="path2312" fill-rule="evenodd" d="m100.5 21.094l-1.75 0.375-0.031 0.969-0.625 0.031-1.25-0.594-2 0.437-0.188 3.032-27.656 14.062h-3.406l-5.688-5.718-8.718-2.813-8.563-6.219-9.187 0.125-2.657 0.938 32.531 24.5-3.25 6.343 1.782 1.219 9.062-2.875 13.844 12.875 2.375-0.906-1.469-9.406-2.25-6.75 14.25-4.688c3.436 2.566 7.864 3.299 11.904 2.719l12.63 15.656 2.5-1.406-0.44-9.062-7.09-8.313c0.4-0.325 0.78-0.662 1.12-1.031l-0.31-5.563c0-1.394 0.15-4.155 0.31-5.875l-2.9-4.218c-1.99-0.77-3.23-2.149-5-3.25-0.2-0.133-0.42-0.238-0.66-0.344-1.25-0.486-2.68-0.846-4-1.25l-3.22-3zm-0.19 0.5c0.16 0.118 1.39 1.33 2.78 2.406l-0.97 0.438-2.932-2.563 1.122-0.281zm-1.279 0.594l2.439 2.218-2.782-1.406 0.374-0.469-0.031-0.343zm-2.187 0.124l4.626 2.813-1.28 0.469-4.784-3.032 1.438-0.25zm-1.813 0.282l4.938 3.625 0.311 3.969-2.874 2.343-0.5 4.75 1.282 3.063-1.407 2.25 0.219 0.062 1.375-1.687 2.465 1.375-0.03 3.156 0.13-0.125 0.4-2.625h1.6l0.06-0.062-1.56-0.5-2.721-1.782-1.25-3.094 0.375-3.718 1.812 3.281 3.724 0.813 0.06-0.126-3.502-0.781-1.75-4-0.282 0.125 2.874-2.312 8.53 4.062-2.03 0.875-0.16 12.688c-3.67 0.767-7.384-0.423-10.682-2.438l0.406-19.531-1.906-1.062c0.024-0.879 0.069-1.715 0.093-2.594zm-26.719 0.906l-6.651 6.721-0.067 3.31c1.52 0.954 3.686 2.003 5.277 2.536 0.161 0.054 0.351-0.538 0.624-0.486 0.319 0.06 0.503 0.416 0.616 0.446 0.044-0.187 0.038-1.187 0.339-1.16 0.183 0.017 0.414 0.91 0.465 0.837 1.421-2.031 3.264-4.77 4.804-6.892l-0.094-3.372-5.313-1.94zm0.157 0.375l4.5 1.625-5.25 6.625-1.344-0.5 0.063-0.031-0.626-2.688 3.094-2.094 1.688-0.062v-0.062l-1.621-0.205-0.848-2.014-0.015 0.067 0.578 2.058-3.219 1.968 0.343 2.844-3.656-1.375 5.652-5.582 0.661-0.574zm35.031 0.25c0.93 0.728 2.36 1.131 3.56 1.469l-1.25 0.687-3.34-1.625c0.29-0.341 0.81-0.477 1.03-0.531zm-63.594 0.875l-2.156 0.75h-8.25l1.969-0.594 8.437-0.156zm62.564 0.062l2.84 1.344 5.41 3.532 2.69 4.312 0.93 3.688-0.84-0.594-2.06-4.25-8.56-4.125-0.44-3.625 0.18-0.063-0.15-0.219zm-61.939 0.063l8.469 6-2.156 0.969-8.75-6.032 2.437-0.937zm61.309 0.437l0.41 3.438-1.63 0.75-0.21-3.688 1.43-0.5zm-6.746 0.063l1.25 0.75-29.188 15.375-1.937-1.062 29.875-15.063zm-21.782 0.187v3c-1.558 2.129-3.041 4.375-4.531 6.563 0.114-0.9-0.025-1.949 0.125-2.75l1.782-0.625 0.624-3.156-0.124-0.063-0.719 2.844-1.844 0.813c-0.253 0.418-0.351 0.938-0.375 1.468l-0.125-1.594 5.187-6.5zm34.468 0c0.17 0.068 0.32 0.164 0.47 0.25 1.07 1.154 3.19 2.068 4.59 3.063l-1.81 0.531-4.87-3.156 1.62-0.688zm-70.374 0.5l9 6-0.375 2.969-0.781 0.969 1.156-0.562 3.344 2.437 0.125-0.125-3.344-2.625 0.625-2.75 7.782 2.781 5.906 5.656 3.718 0.219-3.093 8.5-30.688-23.406 6.625-0.063zm59.094 0.407l-0.719 18.969-14.469 4.687-1.031-3.063-8.406-6.187-3.063 1.094 0.094 12.25-8.187 2.687 3.062-5.062 1.907-0.156 1.874 1.624-0.531 0.907h0.063l0.937-0.938-1.969-1.812 1.907-2.657-0.75-1.312h-0.188l0.469 1.156-1.938 2.5-1.406 0.063 1.5-2.469 1.719-6.844 29.125-15.437zm16.75 2.656l2.19 3.687-1.75 0.626-2.25-3.594 1.81-0.719zm-10.75 0.125l8.19 3.812-1.6 0.563-8.15-3.687 1.56-0.688zm-40.438 1.125l3.344 1.156-0.812 0.625v0.032l-1.375 0.374-0.125 0.063 1.656-0.063 0.625 1.626 1.594 1.031-5.031-2.188 0.124-2.656zm-12.718 0.719l7.687 2.656-2.219 0.875-7.5-2.563 2.032-0.968zm16.531 0.594l1.937 0.656 0.25 2.906-2.312-1.375-0.656-1.625v-0.125l0.781-0.437zm45.185 1.531l1.66 4-1.91 0.687-0.9-3.125 0.15-0.062-0.28-0.25-0.5-0.563 1.78-0.687zm4.56 0.187l-0.24 5-0.85-0.594-0.62-3.687 1.71-0.719zm-57.901 0.656l5.406 5.126-2.187 1.062-5.438-5.188 2.219-1zm51.561 0.938l3.19 8.062-2.25 0.75-2.63-8.218 1.69-0.594zm-92.561 0.812l-4.841 2.611-0.135 3.572 15.459 6.827 6.5-3.639-0.358-3.714-16.625-5.657zm0.156 0.344l15.844 5.344-4.281 2.438-1.469-0.844 0.562-2.75-2.906-0.656-0.481 0.254c-0.398-0.346-2.264-1.007-3.144-1.317l-0.25-0.063c1.251 0.857 1.634 0.767 2.938 1.407l-2.907 0.843-0.062 0.063 3.719-0.875 2.607 0.625-0.764 2.781 1.531 0.875-0.968 0.563-12.375-5.532 1.187-0.218v-0.094l1.906-0.188-0.062-0.187-1.781-0.187 0.125-1.188-0.25-0.125-0.094 1.375-2.031 0.375-0.875-0.406 4.281-2.313zm91.035 0.782l1.81 7.124 6.31 7.657 3.16 3.469 0.4 7.562-11.81-14.938 0.13-10.874zm5.09 0.562l1.5 0.938-3.06-0.469 1.56-0.469zm-1.84 0.781l4.4 1.031c0.09 1.755 0.19 3.772 0.25 4.782-0.37 0.281-0.73 0.533-1.09 0.781l-1.84-2.156-1.72-4.438zm-99.035 0.469l1.094 0.469 0.625 1.656v-0.063l0.062-1.281 12.75 5.688 0.156 3.062-14.716-6.464 0.029-3.067zm54.125 0.781l-1.406 0.719-0.125 0.344-3.094-0.094 2.031-0.906 2.594-0.063zm-1.156 1.157l1.718 1.031-1.5 6.75-1.624 2.75-1.938-1.094 3.344-9.437zm6.718 0.593l7.782 5.813-2.219 0.781-8.031-5.75 2.468-0.844zm-38.624 0.407l0.374 3.218-6.218 3.469-0.188-3.375 0.906-0.5 0.594 1.125-0.656 1-0.062 0.125 1.156-0.812 0.75 0.124-0.063-0.124-0.656-0.438-0.469-1.312 4.532-2.5zm36 0.968l8.093 5.563 3.313 9.969c-0.699 0.031-1.527 0.053-2.188 0l-0.406-2.657-0.094-0.031-0.375-3-0.125-0.031 0.125 2.875-2.562-1-0.157 0.062 2.657 1.438c0.144 0.678 0.24 1.482 0.406 2.187l-1 1.375 0.063 0.219 1.25-1.031c0.701 0.446 1.736 0.283 2.593 0.281l1.438 7.594-12.688-12.094-0.343-11.719zm43.592 0.532l8.69 10.5-2.16 0.781-2.93-3.125-5.79-7.094 2.19-1.062zm-32.874 4.406l3.469 9.781-2.375 0.813-3.25-9.938 2.156-0.656zm-39.062 0.468c-0.953 0.007-1.894 0.055-2.844 0.094l0.125 2.625c-0.474 0.283-1.098 0.247-1.625 0.407l-0.031-0.532-1.907-1.781c-1.455 0.755-3.01 1.051-4.906 3.156l0.188 2.469c-0.805 2.871-0.559 6.081-0.375 9.031 0.431 0.916 1.23 1.537 2.031 2.125l-0.5 15.813-10.031-4.907-2.75 0.938c-0.687 0.487-1.442 0.713-2.063 1.125l-6.3122-4.687-4.0938-0.657-2.5 1.063 28.281 29.716 2.907-1 0.812-2.47 0.781-0.68c0.465-0.422 2.391-1.079 3.5-1.254l0.563 2.714 4.875 7 1.687 1.16c0.125 0.14 0.244 0.28 0.375 0.41 2.247-0.75 4.24-1.91 5.657-3.44l-0.063-1.41 67.315-24.84-2.28-1.438-11.75-1.343-13.941-4.938-14.219 7.657-6.75-2-19.031 4.156-0.469 0.531-0.906-17.406c0.682-0.549 1.061-1.097 1.406-1.844l0.031-1.031-0.5-3.5-2.312-2.813-0.219-0.219-1.188-1.156-0.937-1.906-2-0.281-0.406-1.125h0.031l-1.031-2.219c-0.548-0.351-1.847-0.999-2.625-1.313zm0.187 0.407l1.969 1.031 0.594 1.469-1.813-1.281-0.75-1.219zm-1 0.031c0.23-0.007 0.477-0.002 0.719 0l0.531 1.031c-0.526 0-1.084 0.055-1.719 0.219l-0.656-1.125c0.398-0.079 0.766-0.114 1.125-0.125zm-1.719 0.188l0.844 1.25 0.282 1.874-0.969-1.218-0.157-1.906zm-3.874 0.687l1.187 1.125c-1.428 0.397-2.42 0.776-3.406 2.188l-1.657-0.907c1.033-1.29 2.214-1.746 3.876-2.406zm7 0.687c0.128 0.003 0.249 0.023 0.374 0.032l2.063 1.468 0.031 0.032-1.344 0.625-1.343-1.188 0.062 0.125 1.063 1.625 1.875-0.656 0.469 1.469c-1.423-0.388-2.962-0.462-4.5-0.282-2.37 0.393-4.887 1.154-6.594 2.938l-1.094-0.688-0.062-0.25-0.094-2c0.877-1.443 2.238-1.963 3.781-2.406l0.219 2.032c0.716 0.023 1.517 0.043 3.406-0.563l-0.219-2.094c0.621-0.203 1.266-0.189 1.907-0.219zm20.218 0.313l1.782 1.094-3.438 5.656-1.531-1.031 3.187-5.719zm-23.406 0.719l0.812 1.156c-0.734 0.293-1.355 0.565-2.281 0.469l-0.031-1.219c0.635 0.023 0.959-0.077 1.5-0.406zm-8.156 1.125l1.875 0.906 0.062 1.937c-0.566-0.115-1.096-0.166-1.812-0.656l-0.125-2.187zm14.937 0.969l1.594 0.124 0.687 1.532-2.531-0.344 0.531-0.5-0.281-0.812zm-3.562 0.531c1.138-0.019 2.234 0.082 3.25 0.343l-0.5 0.688 3.156 0.562c0.482 0.369 0.928 0.81 1.344 1.344 0.018 0.299-0.104 0.402-0.281 0.594l-0.782-1.531c-2.032 0.984-4.118 1.865-6.594 1.875l-0.281 2.875c-1.107-0.007-1.851 0.093-3.062-0.375l-0.25-2.344c-1.536-0.28-2.76-0.683-3.5-1.156 1.666-1.681 4.007-2.427 6.281-2.813 0.419-0.03 0.811-0.055 1.219-0.062zm80.281 0.062l0.59 8.719-2.15 1.188-0.78-8.907 2.34-1zm-91.5 1.281l1.781 0.407 0.125 0.25-1.844 0.469-0.281 1.281c-0.099-0.672-0.007-1.733 0.219-2.407zm2.344 1.032c0.707 0.859 1.887 1.399 4 1.844l-1.5 0.75c-1.523-0.505-3.044 0.019-4.219-2l1.719-0.594zm14.906 0.094l0.688 1.906c-2.192 0.622-3.838 1.383-6.157 1.312l-0.437-1.437c1.894-0.175 3.787-0.667 5.906-1.781zm1.75 1.031l1.719 1.875c-0.486 0.621-1.142 1.134-1.781 1.594l-0.282-2.376-0.25-0.562c0.338-0.147 0.472-0.216 0.594-0.531zm-18.781 0.187c1.065 1.441 2.899 1.353 4.5 1.938l-0.063 2.156-0.937 1.25-1.375 0.219 0.125 0.219 1.375 0.124 1 2 0.187-0.093-0.843-2.25 0.906-0.844c1.137 0.34 2.466 0.575 5.906 0.687l1.062 1.719 1.657-0.375 3.781 1.5-0.031-0.125-3.063-1.687 2-1.438 1.532 1.032 0.031-0.094-1.188-1.219-0.625-1.25-0.25-0.031 0.563 1.25c-0.804 0.435-1.729 0.971-2.531 1.5l-0.126-0.063-1.406 0.438-0.75-1.5v-0.031l0.094-2.313c2.46 0.058 4.334-0.894 6.531-1.5l0.407 2.844c0.926-0.601 1.666-1.059 2.25-1.813l0.468 3.219c-0.003 0.088-0.022 0.171-0.031 0.281-2.271 3.675-6.811 4.605-10.75 4.656-3.85-0.198-8.329-0.911-10.719-4.343-0.17-2.141-0.81-4.331-0.375-5.907l0.438 1.063 0.25-1.219zm52.719 0.344l1.593 8.688-1.937 0.687-1.688-8.469 2.032-0.906zm-42 0.406l0.468 1.594-0.187 2.344-0.344-1.688 0.063-2.25zm-3.969 0.063l0.062 1.843-1.875 1.126 0.094-1.813 1.719-1.156zm0.406 2.219c1.28 0.486 2.1 0.426 3.219 0.437l0.25 1.406c-1.92 0.084-3.654-0.04-5.406-0.75l1.937-1.093zm-5.5 5.5c2.707 1.559 5.556 2.174 8.625 2.312 3.259 0.02 6.421-0.354 9.188-2.188 0.857 6.903 1.862 33.222 2.281 40.188-1.704 1.28-3.336 2.19-4.907 2.84l0.532-2.72-0.125-0.09 0.562-3.09 2.531-3.1-0.187-0.12-2.187 2.31-1.469-4.78-0.031 0.125 1.062 5.035 0.094-0.03-0.25 0.28-0.563 2.96-4.531-3.93-2.219-6.378 0.094 0.063 6-4.594c0.243-0.995-0.57-2.753-0.5-4 1.367-1.782 2.413-3.739 3.469-5.719l-1.719-5.562-0.094-0.062 1.563 5.687c-0.893 1.655-2.295 3.033-3.25 4.656l0.031-2.75-2.563-1.281 0.626-3.562-0.032-0.032-0.968 3.375-2.719-0.469 0.093 0.157 2.5 0.781-0.062 0.156 2.906 1.032c-0.082 1.018-0.228 2.27-0.218 3.374-0.482 1.265 0.195 2.606 0.562 3.844l-6.188 4.438-4.562-0.313 0.344-3.875 2.125-2.281 3.156-1.125-0.125-0.219-3.25 1.157-1.594 1.562 0.25-2.875 1.688-0.313v-0.031l-1.938 0.063-0.656 3.906-0.906 3.625-3.125-2 2.125-2.313-1.188-2.218-0.187 0.031 1.031 2.063-2.219 1.906c0.247-10.145 0.662-21.605 1.094-25.906zm59.781 6.906l1.469 1.187-13.875 7.875-1.5-1.312 13.906-7.75zm0.406 0.031l13.528 4.906 0.69 0.969-12.749-4.906-1.469-0.969zm-86.281 0.75l3.375 0.469-2.0624 1-3.4376-0.75 2.125-0.719zm87.781 0.5l12.628 4.937-2.94 1.782-0.31 0.562-3.971-0.656 0.031 0.094 3.53 1.218-1.56 2.782-4.282 2.562 0.156 0.125 4.346-2.343 2.4-3.969 3.07-1.969 0.34 0.125 5.16 0.375c0.28-0.087 0.65 0.574 0.93 0.594l0.6-0.344 1.25 0.969 0.25-1 3.59 0.25-66.436 24.411-0.938-18.599 0.063 0.031 2.187-1.843 18.438-4.25 6.906 2.437 0.5 2.719-1.844 3.125 0.094 0.031 2.344-2.906 2.25 0.594 0.062-0.031-2.375-0.876-0.5-2.812 14.031-8.125zm-83.968 0.187l6.0002 4.563c-0.444 0.327-0.842 0.689-1.156 1.187l-6.938-4.75 2.0938-1zm-5.8438 0.25l3.125 0.876 7.344 5.062 0.437 3.688 2.344 1.031 0.062-0.094-1.906-1.156-0.468-3.719c0.811-1.084 2.305-1.777 3.374-2.469 4.183 2.419 8.25 4.383 12.594 6.469l-0.281 8.875 4.063 5.969-1.907 1.656-2.187-2.188h-0.438l0.188-0.156-1.063-2.844 0.031 0.188 0.532 2.781-2.094-0.031-0.156 0.031 2.718 0.469 2.063 2.34-0.563 1.85-27.812-28.628zm16.812 2.376l10.188 5.187-0.062 1.594c-4.276-1.773-7.777-4.067-11.907-6.031l1.781-0.75zm85.308 0.812l11.41 1.312 1.53 0.75-3.94-0.281-0.09 1-1.09-1.093-0.5 0.656-0.88-0.75-5.5-0.375-0.94-1.219zm-35.182 0.75l1.031 1.125-18.25 4.219-1.75-1.032 18.969-4.312zm0.531 0.094l6.156 1.937 1.125 1.031-6.188-1.843-1.093-1.125zm-19.657 4.437l1.563 0.938-1.75 1.531-0.094-1.969 0.281-0.5zm-20.75 9.438l3.313 2.343 2.813 3.282-2.188 0.812c-1.279-1.93-3.193-4.508-4.25-6.125l0.312-0.312zm3.813 2.469l3.969 0.5 0.562 2.656c-0.891-0.044-1.439 0.39-2.218 0.844l0.843-0.75-3.156-3.25zm4.687 0.562l0.344 0.031 2.219 6.379-1.563-0.63-1-5.78zm59.813 3.188c-0.416 0.253-0.361 1.482-0.844 1.722-0.476 0.23-0.933 0.17-1.343 0.62-0.329 0.36-1.203-0.01-1.532 0.31l-10.663 10.75 0.288 7.22 6.344 2.72 1.031-0.97 0.656 1 1.032-0.34 0.625 1.75 3.251 1.1c3.37-5.34 7.44-10.5 10.97-15.91l-0.35-6.6-7.31-2.779-0.72 0.559-1.435-1.152zm-62.531 0.093l-1.844 1.659-2.031 0.69 2.25-1.88 1.625-0.469zm62.75 0.5l0.936 0.779-0.44 1.31 0.07 0.04-1.254 1.06 0.156 0.03 1.658-0.75 1.84 1.19 0.06-0.07-2.06-1.59 0.72-1.47-0.12 0.03c0.06-0.133 0.13-0.23 0.25-0.184l6.78 2.404-10.971 13.88-3.875-1.35 2.531-0.93 0.844-3.29 3.591-1.18 1.88-2-0.13-0.19-1.9 1.78-3.004 0.81 1.094-1.43-1.969 1.68 0.094 0.03-0.844 3.32-2.969 0.87-1.812-2.81 0.969-2.5-0.188-0.12-0.906 1.81-1.687-0.41-1 1.22 0.187 0.22 0.75-0.81 1.437 0.43-0.124 0.22 1.624 2.75-6.031-2.12 9.969-9.97 1.125-0.31-0.5 1.81 0.187-0.06 0.907-1.94 1.406-1 0.719-1.189zm-64.75 1.629l-0.625 1.87-2.157 0.75 0.782-1.87 2-0.75zm6 0.87l1.656 0.72 4.844 4.25-0.406 2.75-1.594-1.13-4.5-6.59zm67.626 0.78l0.47 6.13c-3.23 5.32-7.26 9.81-10.752 14.94l-0.469-7.16-0.063-0.03 10.814-13.88zm-23.001 9.75l6.719 2.35 0.031 0.06-0.625 1.65-1.406 0.07-1.75-2.41-0.126 0.22 1.188 2.25-1.281 1.5 0.062 0.06 1.563-1.12 1.781-0.07 2.063 1.47-1.188 2.32-0.656 0.78-5.844-2.5-0.531-6.63zm7.187 2.53l4.594 1.6 0.469 7.59c-0.812-0.35-2.154-0.93-2.813-1.28l-0.375-1.81-1.093 0.65-0.219-0.5 0.062 0.04 1-2.54 1.688-0.75-0.031-0.12-1.969 0.25-2.094-1.28 0.781-1.85z"/>
  </g>
  <metadata>
    <rdf:RDF>
      <cc:Work>
        <dc:format>image/svg+xml</dc:format>
        <dc:type rdf:resource="http://purl.org/dc/dcmitype/StillImage"/>
        <cc:license rdf:resource="http://creativecommons.org/licenses/publicdomain/"/>
        <dc:publisher>
          <cc:Agent rdf:about="http://openclipart.org/">
            <dc:title>Openclipart</dc:title>
          </cc:Agent>
        </dc:publisher>
      </cc:Work>
      <cc:License rdf:about="http://creativecommons.org/licenses/publicdomain/">
        <cc:permits rdf:resource="http://creativecommons.org/ns#Reproduction"/>
        <cc:permits rdf:resource="http://creativecommons.org/ns#Distribution"/>
        <cc:permits rdf:resource="http://creativecommons.org/ns#DerivativeWorks"/>
      </cc:License>
    </rdf:RDF>
  </metadata>
</svg>
