<?xml version="1.0" encoding="UTF-8" standalone="no"?>
<!-- Created with Inkscape (http://www.inkscape.org/) -->
<svg xmlns:inkscape="http://www.inkscape.org/namespaces/inkscape" xmlns:rdf="http://www.w3.org/1999/02/22-rdf-syntax-ns#" xmlns="http://www.w3.org/2000/svg" xmlns:xlink="http://www.w3.org/1999/xlink" xmlns:ns1="http://sozi.baierouge.fr" xmlns:cc="http://creativecommons.org/ns#" xmlns:sodipodi="http://sodipodi.sourceforge.net/DTD/sodipodi-0.dtd" xmlns:dc="http://purl.org/dc/elements/1.1/" id="svg2" xml:space="preserve" viewBox="0 0 45.2 47.965" version="1.1" inkscape:version="0.91 r13725">
  <defs id="defs6">
    <radialGradient id="radialGradient26" gradientUnits="userSpaceOnUse" cy="6.9502" cx="42.75" gradientTransform="matrix(.8 0 0 .8 -.48 27.239)" r="5.6125">
      <stop id="stop28" style="stop-color:#b3a983" offset="0"/>
      <stop id="stop30" style="stop-color:#8c7f53" offset="1"/>
    </radialGradient>
    <radialGradient id="radialGradient44" gradientUnits="userSpaceOnUse" cy="5.5498" cx="22.65" gradientTransform="matrix(.8 0 0 .7508 -.48 29.753)" r="39.225">
      <stop id="stop46" style="stop-color:#f7f2dc" offset="0"/>
      <stop id="stop48" style="stop-color:#d6caa3" offset="1"/>
    </radialGradient>
    <linearGradient id="linearGradient84" y2="-16.304" gradientUnits="userSpaceOnUse" x2="37.369" gradientTransform="matrix(.01648 -.79984 -.79984 -.01648 -.48030 38.359)" y1="-16.304" x1="24.616">
      <stop id="stop86" style="stop-color:#adb53d" offset="0"/>
      <stop id="stop88" style="stop-color:#69701e" offset="1"/>
    </linearGradient>
    <linearGradient id="linearGradient104" y2="-16.319" gradientUnits="userSpaceOnUse" x2="36.356" gradientTransform="matrix(.01648 -.79984 -.79984 -.01648 -.47971 38.359)" y1="-16.319" x1="26.028">
      <stop id="stop106" style="stop-color:#c8d146" offset="0"/>
      <stop id="stop108" style="stop-color:#7d8523" offset="1"/>
    </linearGradient>
    <linearGradient id="linearGradient122" y2="-16.128" gradientUnits="userSpaceOnUse" x2="36.056" gradientTransform="matrix(.01664 -.79984 -.79984 -.01664 -.4802 38.359)" y1="-16.128" x1="26.429">
      <stop id="stop124" style="stop-color:#cfe065" offset="0"/>
      <stop id="stop126" style="stop-color:#d8e063" offset="1"/>
    </linearGradient>
    <linearGradient id="linearGradient140" y2="-16.078" gradientUnits="userSpaceOnUse" x2="35.755" gradientTransform="matrix(.01664 -.79984 -.79984 -.01664 -.48028 38.36)" y1="-16.078" x1="26.728">
      <stop id="stop142" style="stop-color:#c8d146" offset="0"/>
      <stop id="stop144" style="stop-color:#7d8523" offset="1"/>
    </linearGradient>
    <linearGradient id="linearGradient160" y2="-19.235" gradientUnits="userSpaceOnUse" x2="36.95" gradientTransform="matrix(-.02688 -.79952 -.79952 .02688 -.48030 38.359)" y1="-19.235" x1="33.598">
      <stop id="stop162" style="stop-color:#c8d146" offset="0"/>
      <stop id="stop164" style="stop-color:#7d8523" offset="1"/>
    </linearGradient>
    <linearGradient id="linearGradient180" y2="-21.23" gradientUnits="userSpaceOnUse" x2="41.668" gradientTransform="matrix(-.05264 -.79824 -.79824 .05264 -.47962 38.359)" y1="-21.23" x1="37.108">
      <stop id="stop182" style="stop-color:#f7f2dc" offset="0"/>
      <stop id="stop184" style="stop-color:#d6caa3" offset="1"/>
    </linearGradient>
    <linearGradient id="linearGradient202" y2="-19.51" gradientUnits="userSpaceOnUse" x2="42.015" gradientTransform="matrix(-.02528 -.7996 -.7996 .02528 -.48069 38.359)" y1="-19.51" x1="37.263">
      <stop id="stop204" style="stop-color:#8c897c" offset="0"/>
      <stop id="stop206" style="stop-color:#d6caa3" offset="1"/>
    </linearGradient>
    <linearGradient id="linearGradient220" y2="-15.156" gradientUnits="userSpaceOnUse" x2="46.647" gradientTransform="matrix(-.02632 -.7996 -.7996 .02632 -.47923 38.359)" y1="-15.156" x1="36.767">
      <stop id="stop222" style="stop-color:#c8d146" offset="0"/>
      <stop id="stop224" style="stop-color:#7d8523" offset="1"/>
    </linearGradient>
  </defs>
  <g id="g10" transform="matrix(1.25 0 0 -1.25 0 47.965)">
    <g id="g12">
      <path id="path14" style="fill-rule:evenodd;fill:#b3a383" d="m29.762 33.4c-0.242-0.934-0.27-1.989-0.082-3.161-0.215-0.082-0.469-0.148-0.758-0.199-0.453 2.641 0.066 4.746 1.558 6.321 0.481 0.503 1.012 0.918 1.598 1.238l0.762 0.32c0.453 0 0.719-0.027 0.801-0.078 0.851-0.137 1.464-0.535 1.839-1.203 0.426-0.719 0.653-1.934 0.68-3.641h-0.199c-0.055-0.023-0.106-0.039-0.16-0.039l-0.039 0.039c-0.028 2.457-0.668 3.91-1.922 4.364-0.371 0.105-0.774 0.093-1.199-0.043l-0.36-0.2c-0.347-0.238-0.668-0.504-0.961-0.8-0.8-0.825-1.32-1.797-1.558-2.918zm3-16.68c-0.028 0.531-0.082 1.066-0.16 1.598-0.082 0.589-0.188 1.175-0.321 1.761l-0.121 0.52c-0.238 0.855-0.519 1.719-0.84 2.601-0.215 0.504-0.414 0.957-0.601 1.36h0.043c-0.43 0.984-0.696 1.64-0.801 1.961-0.027 0.051-0.055 0.105-0.082 0.16l-0.641 1.918-0.039 0.082-0.039 0.238c-0.906 0.106-1.707 0.281-2.398 0.52-0.215 0.027-0.387 0.093-0.524 0.199 0.16 0 0.364 0.016 0.602 0.043 0.105 0.023 0.254 0.051 0.441 0.078 0.746-0.187 1.574-0.305 2.481-0.359l0.078-0.039 0.199-0.84c0.215-0.801 0.535-1.696 0.961-2.68 0.242-0.562 0.602-1.402 1.082-2.523 0.824-2.106 1.305-4.227 1.438-6.36-0.266-0.078-0.52-0.16-0.758-0.238zm-2.922-0.84c1.254-0.242 2.332-0.469 3.238-0.683 0.055-0.024 0.11-0.067 0.16-0.118 0.082-0.082 0.149-0.121 0.203-0.121 0-0.133 0.012-0.426 0.039-0.879v-0.961c-0.16 0.028-0.269 0.039-0.32 0.039-0.082 0-0.238 0.043-0.48 0.122 0.054 0.718 0.082 1.293 0.082 1.718-0.883 0.215-1.977 0.453-3.282 0.723 0.079 0.055 0.2 0.105 0.36 0.16zm1.558-2.562c0.11-0.051 0.243-0.133 0.403-0.239 0.187-0.132 0.48-0.32 0.879-0.558 0.054-0.028 0.16-0.121 0.32-0.282 0.16-0.16 0.281-0.265 0.359-0.32-0.238-2.453-0.613-4.441-1.121-5.961-0.371-1.011-0.785-1.773-1.238-2.277l-0.039-0.082c-0.133-0.215-0.348-0.387-0.641-0.52-0.48-0.238-1.039-0.304-1.679-0.199-0.082 0-0.161 0.012-0.243 0.039-0.16 0.055-0.343 0.106-0.558 0.16-0.133 0.055-0.254 0.106-0.36 0.16-0.64 0.293-1.226 0.68-1.761 1.161-0.266 0.214-0.492 0.464-0.68 0.757-0.078 0.188-0.16 0.387-0.238 0.602-0.106 0.426-0.149 0.867-0.121 1.32l0.082 0.481 0.398 0.16 0.039-0.922c0.106-0.691 0.387-1.293 0.84-1.801 0.563-0.613 1.293-1.05 2.199-1.316 0.508-0.133 0.95-0.176 1.321-0.121 0.054 0.105 0.187 0.148 0.402 0.121 0.051 0.027 0.105 0.051 0.16 0.078l1 1.68c0.156 0.375 0.305 0.789 0.438 1.242l1 5.199c0 0.16 0.015 0.309 0.039 0.442-0.614 0.347-1.172 0.613-1.68 0.8-0.106 0-0.184 0.039-0.238 0.117 0.105 0 0.238 0.028 0.398 0.083 0.082-0.004 0.188-0.004 0.32-0.004z" inkscape:connector-curvature="0"/>
      <g id="g16">
        <g id="g18">
          <g id="g24">
            <path id="path32" style="fill-rule:evenodd;fill:url(#radialGradient26)" d="m35.801 32.958c-1.149 0.106-3.16 0.254-6.039 0.442 0.238 1.121 0.758 2.093 1.558 2.918 0.293 0.296 0.614 0.562 0.961 0.8l0.36 0.2c0.425 0.136 0.824 0.148 1.199 0.043 1.254-0.454 1.894-1.907 1.918-4.364l0.043-0.039z" inkscape:connector-curvature="0"/>
          </g>
        </g>
      </g>
      <g id="g34">
        <g id="g36">
          <g id="g42">
            <path id="path50" style="fill-rule:evenodd;fill:url(#radialGradient44)" d="m28.922 30.04c-0.055-0.027-0.094-0.043-0.121-0.043-0.403-0.078-0.867-0.156-1.403-0.238h-0.117c-0.187-0.027-0.336-0.055-0.441-0.078-0.238-0.027-0.438-0.043-0.598-0.043 0.133-0.106 0.305-0.172 0.52-0.199 0.691-0.239 1.492-0.414 2.398-0.52l0.039-0.238c-0.476 0-1.293 0.066-2.437 0.199l-1.801 0.238c-0.16-0.187-0.371-0.48-0.641-0.879-0.265-0.347-0.508-0.625-0.718-0.839-0.215-0.266-0.469-0.508-0.762-0.719-0.078-0.109-0.133-0.16-0.16-0.16 0.054-0.348 0.254-0.723 0.601-1.121 0.188-0.243 0.481-0.575 0.879-1 0.242-0.266 0.508-0.586 0.801-0.961 0.078-0.055 0.105-0.133 0.078-0.239 0.082-0.027 0.266-0.043 0.563-0.043 0.132 0 0.293 0.016 0.476 0.043h1.363c0.157-0.027 0.317 0.028 0.481 0.161 0.211 0.132 0.359 0.226 0.437 0.277 0.852 0.535 1.586 0.84 2.2 0.922h0.16c0.187-0.403 0.386-0.856 0.601-1.36 0.321-0.882 0.602-1.746 0.84-2.601h-0.039l-0.082 0.082c-0.184 0-0.453-0.027-0.801-0.082h-1.199c-0.027-0.133-0.453-0.254-1.281-0.36l-2.199-0.121c-0.051 0-0.239-0.011-0.559-0.039-0.906 0-1.441-0.015-1.602-0.039 0.27-0.16 0.696-0.375 1.282-0.64 0.508-0.293 0.867-0.602 1.082-0.922 0.211-0.321 0.383-0.547 0.519-0.68 0.051-0.078 0.106-0.172 0.16-0.277 0-0.055 0.024-0.121 0.079-0.203 0.054-0.051 0.175-0.094 0.359-0.118 0.855-0.242 1.48-0.535 1.883-0.882 0.133 0.054 0.238 0.148 0.316 0.281l2.52 1.719c0.082-0.532 0.136-1.067 0.16-1.598-0.106-0.027-0.211-0.055-0.317-0.082-0.453-0.133-0.8-0.227-1.043-0.281-0.343-0.106-0.652-0.2-0.918-0.278-0.242-0.054-0.453-0.121-0.64-0.199-0.16-0.055-0.281-0.109-0.36-0.16 1.305-0.27 2.399-0.508 3.282-0.723 0-0.425-0.028-1-0.082-1.718v-0.082c-0.586 0.082-1.012 0.121-1.282 0.121h-0.32c-0.156-0.051-0.293-0.079-0.398-0.079 0.054-0.082 0.132-0.121 0.242-0.121 0.504-0.187 1.066-0.453 1.68-0.8-0.028-0.133-0.043-0.282-0.043-0.438-0.079 0.024-0.133 0.024-0.161 0l-0.238-0.16c-0.16-0.082-0.332-0.176-0.519-0.281-0.082-0.055-0.121-0.094-0.121-0.121-0.028-0.024-0.04-0.067-0.04-0.118 0-0.054 0.04-0.16 0.122-0.32 0.05-0.082 0.105-0.16 0.16-0.242 0.023-0.027 0.093-0.145 0.199-0.359 0.105-0.215 0.144-0.332 0.117-0.36-0.023-0.055-0.09-0.094-0.199-0.121-0.266-0.078-0.465-0.133-0.598-0.16-0.187-0.024-0.359 0-0.519 0.082-0.27 0.105-0.469 0.187-0.602 0.238-0.32 0.188-0.531 0.309-0.64 0.364l-0.36 0.078c-0.16 0.054-0.254 0.093-0.281 0.121-0.559-0.11-1.106-0.149-1.641-0.121-0.773 0-1.57-0.078-2.398-0.239-0.133-0.027-0.215-0.054-0.238-0.082 0-0.027-0.043-0.093-0.122-0.199-0.375-0.719-0.601-1.293-0.679-1.719-0.028-0.136-0.039-0.269-0.039-0.402-0.828 0.027-1.735 0.055-2.723 0.082-0.105 0.238-0.227 0.492-0.359 0.758-0.078 0.242-0.2 0.441-0.36 0.601-0.054 0.028-0.105 0.051-0.16 0.082-0.082-0.027-0.172-0.027-0.281 0l-1.52 0.118h-0.718l-0.442 0.281c-0.16 0.078-0.371 0.183-0.64 0.316 0.082 0 0.16 0.016 0.242 0.043 0.238 0.078 0.387 0.133 0.437 0.157 0.16 0.054 0.297 0.136 0.403 0.242l0.078 0.039c0.027 0.027 0.043 0.066 0.043 0.121-0.028 0.133-0.11 0.254-0.242 0.359-0.106 0.133-0.188 0.227-0.239 0.281-0.082 0.079-0.148 0.172-0.203 0.282 0.453-0.321 1.375-0.028 2.762 0.879l-0.039-0.082c0-0.051 0.027-0.094 0.078-0.118 0.32-0.132 0.652-0.203 1-0.203 0.266 0 0.574 0.055 0.922 0.16v-0.16c0-0.023 0.039-0.05 0.121-0.078 0.211-0.027 0.383-0.066 0.519-0.121 0.079-0.023 0.239-0.09 0.481-0.199 0.133-0.051 0.316-0.067 0.558-0.039h0.122c-0.59-0.188-1.055-0.403-1.403-0.641-0.453-0.293-0.801-0.668-1.039-1.121-0.082-0.16 0.012-0.226 0.281-0.199 1.414 0.242 2.493 0.949 3.239 2.121 0.535 0.16 0.922 0.277 1.16 0.359 0.398 0.16 0.707 0.332 0.922 0.52 0.133 0.105 0.093 0.16-0.121 0.16-0.215 0-0.36-0.027-0.442-0.082-0.32-0.266-0.773-0.504-1.359-0.719 0 0.028-0.028 0.055-0.078 0.082-0.055 0.024-0.094 0.024-0.121 0-0.321 0-0.696 0.039-1.121 0.117-0.692 0.082-1.04 0.215-1.04 0.403 0 0.051-0.082 0.078-0.242 0.078-0.078-0.027-0.16-0.051-0.238-0.078-1.172-0.375-1.613-0.227-1.32 0.437 0.027 0.11-0.055 0.149-0.239 0.121-0.054 0-0.109-0.011-0.16-0.039 0.024 0.078 0.094 0.239 0.199 0.481 0.106 0.211 0.161 0.398 0.161 0.558 0.027 0.106 0.011 0.266-0.039 0.481-0.028 0.215-0.043 0.375-0.043 0.48l-0.84 0.481 1.16 0.121h0.082l-2.281 0.68h-0.961v0.039c-0.024 0.027-0.067 0.05-0.117 0.082-0.055 0-0.11 0.011-0.161 0.039h-0.043c-0.105 0.051-0.265 0.066-0.476 0.039-0.27 0-0.481-0.012-0.641-0.039h-0.082c-0.054 0.133-0.121 0.238-0.199 0.32l0.121 0.199c0.051 0.106 0.078 0.239 0.078 0.399v0.8c-0.027 0.188-0.094 0.293-0.199 0.321h-0.121c0 0.027-0.027 0.054-0.078 0.078 0.238 0.242 0.437 0.426 0.597 0.562 0.348 0.348 0.668 0.614 0.961 0.797 0.028-0.211 0.039-0.476 0.039-0.797v-0.8c0.028-0.106 0.137-0.133 0.321-0.082 0.136 0.027 0.375 0.121 0.722 0.281 0.293 0.187 0.52 0.281 0.68 0.281h0.039c-0.027-0.105-0.082-0.242-0.16-0.402-0.215-0.371-0.348-0.653-0.398-0.84-0.028-0.078-0.028-0.145 0-0.199 0.16 0 0.437-0.039 0.839-0.117 0.266-0.055 0.68-0.149 1.239-0.282 0.558-0.109 0.988-0.187 1.281-0.242 0.211-0.078 0.359-0.105 0.437-0.078 0.11 0.027 0.282 0.105 0.524 0.238 0.851 0.375 1.465 0.614 1.84 0.723l0.679 0.156v0.16c0.133 0.028 0.239 0.043 0.321 0.043 0.211 0 0.359 0.051 0.437 0.157 0.028 0.054 0.016 0.093-0.039 0.121-0.055 0.027-0.105 0.043-0.16 0.043-0.133 0-0.293-0.028-0.48-0.082h-0.079c0 0.265-0.015 0.468-0.043 0.601l-1.398 0.918c-0.055 0.266-0.172 0.547-0.359 0.84-0.055 0.109-0.188 0.121-0.403 0.043-0.183-0.082-0.265-0.16-0.238-0.242l-0.039 0.039c-0.082 0-0.266-0.039-0.563-0.117-0.05 0.023-0.144 0.039-0.277 0.039-0.215 0-0.441-0.039-0.68-0.121-0.214-0.051-0.296-0.133-0.242-0.239v-0.043c-0.293-0.105-0.586-0.238-0.879-0.398s-0.508-0.238-0.64-0.238h-0.121c-0.051-0.028-0.094-0.055-0.118-0.082l-0.082-0.079c-0.187-0.027-0.386-0.082-0.597-0.16-0.297-0.16-0.524-0.265-0.684-0.32v0.84c0 0.32-0.023 0.597-0.078 0.84-0.027 0.054-0.105 0.078-0.238 0.078-0.082 0-0.16-0.024-0.242-0.078-0.321-0.106-0.653-0.293-1-0.559-0.215-0.16-0.493-0.414-0.84-0.762 0.054 0.375 0.039 0.719-0.039 1.039 0 0.082-0.055 0.106-0.161 0.082 0.079 0.211 0.2 0.454 0.36 0.719 0.215 0.32 0.359 0.559 0.441 0.719 0.106 0.187 0.184 0.336 0.239 0.441 0.105 0.16 0.175 0.305 0.199 0.442l-1-0.043c0.215 0.054 0.508 0.148 0.883 0.281 0.21 0.082 0.41 0.133 0.597 0.16h0.082c0.106-0.027 0.227 0.012 0.36 0.121h0.238c0.109 0.024 0.199 0.039 0.281 0.039-0.027-0.16-0.039-0.32-0.039-0.48 0-0.133 0.106-0.188 0.32-0.16 0.211 0.054 0.321 0.133 0.321 0.242 0 0.398 0.117 0.797 0.359 1.199-0.027-0.32 0-0.574 0.078-0.762 0.082-0.132 0.242-0.211 0.481-0.238 0.32 0 0.492-0.016 0.519-0.039 0.16-0.055 0.321-0.027 0.481 0.078 0.027 0.028 0.054 0.067 0.082 0.121 0.027 0.051 0.011 0.094-0.043 0.117-0.051 0.028-0.227 0.055-0.52 0.082-0.211 0-0.347 0.051-0.398 0.161-0.055 0.132-0.082 0.347-0.082 0.64 0.054 0.321 0.066 0.532 0.043 0.641-0.028 0.078-0.121 0.105-0.282 0.078-0.132-0.027-0.242-0.066-0.32-0.121-0.32-0.238-0.574-0.531-0.762-0.879-0.05-0.133-0.105-0.281-0.16-0.441l-4 3.043h-0.039c-0.64-0.082-1.105-0.137-1.398-0.161-0.563-0.082-1.281-0.203-2.16-0.359-0.082-0.027-0.149-0.055-0.2-0.082l-0.16-0.16c-0.16-0.188-0.414-0.465-0.761-0.84-0.321-0.32-0.598-0.574-0.84-0.762l-0.2-0.078c-0.082-0.055-0.121-0.094-0.121-0.121 0.106-0.078 0.266-0.172 0.481-0.277 0.105-0.055 0.281-0.137 0.519-0.242 0.082-0.051 0.254-0.133 0.52-0.239 0.215-0.109 0.375-0.199 0.48-0.281 0.028 0 0.067-0.039 0.121-0.121 0.028-0.024 0.051-0.051 0.079-0.078 0.082-0.028 0.203-0.055 0.363-0.082 0.078-0.024 0.183-0.039 0.316-0.039 0.082-0.028 0.16-0.039 0.242-0.039 0.559-0.082 1.266-0.133 2.122-0.161-0.27-0.054-0.641-0.148-1.122-0.281-0.507-0.133-0.867-0.226-1.082-0.277-1.359-0.297-2.531-0.524-3.519-0.684h-0.199c-0.078-0.023-0.149-0.023-0.2 0-0.105 0-0.308 0.055-0.601 0.16-0.16 1.684-0.438 3.243-0.84 4.684l0.082 0.277 0.238 0.282-0.199 0.078-0.32 0.121c-0.051 0.133-0.188 0.519-0.399 1.16l1.719 0.238c-0.215 0.028-0.48 0.043-0.801 0.043-0.105 0-0.293 0.039-0.558 0.117-0.082 0.028-0.16 0.055-0.242 0.082l0.281-0.082 1.762 0.243c0.933 0.187 1.863 0.425 2.796 0.718-0.105-0.347-0.183-0.664-0.238-0.961-0.027-0.132 0.067-0.183 0.281-0.16 0.211 0.028 0.332 0.094 0.36 0.203 0.051 0.348 0.144 0.707 0.277 1.079 0.137 0.054 0.254 0.132 0.363 0.242-0.082-0.028-0.187-0.028-0.32 0 0.106 0.238 0.211 0.476 0.32 0.718 0.133 0.348 0.438 0.973 0.918 1.879 0.055 0.055 0 0.094-0.16 0.121-0.105 0-0.187-0.015-0.238-0.039-0.535-0.269-0.973-0.453-1.32-0.562-0.614-0.238-1.055-0.266-1.321-0.078-0.082 0.054-0.215 0.054-0.398 0-0.188-0.082-0.242-0.149-0.16-0.199 0.316-0.243 0.773-0.297 1.359-0.161 0.32 0.051 0.801 0.227 1.438 0.52-0.399-0.773-0.68-1.348-0.84-1.723-0.051-0.133-0.106-0.265-0.16-0.398-0.051 0.027-0.106 0.039-0.161 0.039-0.664 0.16-1.359 0.348-2.078 0.562-1.601 0.454-2.894 0.957-3.879 1.52-0.054 0.559-0.015 1.121 0.118 1.68 0.375 0.187 0.761 0.347 1.16 0.48 0.136 0.051 0.269 0.106 0.402 0.16l-1.199 0.52c0.023 0.054 0.105 0.238 0.238 0.558 0.453 0.028 0.719 0.055 0.801 0.082 0.133 0 0.492 0.039 1.078 0.118 0.402 0.054 0.922 0.121 1.563 0.203 0.105 0.023 0.226 0.051 0.359 0.078h-0.242l-2.481 0.242-0.558 0.117c0.508 0.774 1.187 1.36 2.039 1.762 0.242-0.242 0.48-0.469 0.722-0.68 0.532-0.48 1.039-0.988 1.52-1.519 0.051-0.082 0.133-0.188 0.238-0.321 0.082-0.082 0.133-0.187 0.16-0.32 1.176 0.426 1.907 0.68 2.2 0.758 0.855 0.242 1.613 0.336 2.281 0.281 0.265-0.027 0.601-0.094 1-0.199 0.613-0.188 0.933-0.281 0.961-0.281 0-0.055-0.028-0.215-0.082-0.481-0.051-0.183-0.106-0.332-0.16-0.437-0.051-0.137-0.161-0.309-0.321-0.524-0.16-0.211-0.265-0.371-0.316-0.476 0.105-0.055 0.277-0.149 0.519-0.282 0.211-0.082 0.387-0.16 0.52-0.242 0.398-0.265 0.801-0.558 1.199-0.879 0.238-0.211 0.481-0.398 0.719-0.558 0.109 0 0.242 0.027 0.402 0.078 0.106 0.027 0.239 0.082 0.399 0.16 0.293 0.133 1.015 0.469 2.16 1 0.906 0.402 1.652 0.707 2.238 0.922 0.082 0.027 0.16 0.051 0.242 0.078 0.028 0.027 0.067 0.094 0.121 0.199 0.079 0.215 0.118 0.696 0.118 1.442v0.679l-1.36 0.039 0.082 0.082c0.16 0.106 0.414 0.2 0.758 0.282 0.215 0.023 0.481 0.066 0.801 0.117 0.133 0.027 0.32 0.082 0.558 0.16 0.243 0.055 0.442 0.094 0.602 0.121 0.133 0 0.332 0.012 0.602 0.039 0.21 0 0.386-0.066 0.519-0.199 0.133-0.16 0.211-0.305 0.238-0.441 0-0.106-0.027-0.266-0.078-0.477 0.239-0.027 0.641-0.043 1.199-0.043 0.079 0 0.266-0.012 0.559-0.039 0.266-0.027 0.469-0.039 0.602-0.039 0.05 0.16 0.16 0.293 0.32 0.398 0.559 0.536 1.359 1.133 2.398 1.801h-0.558c0.32 0.028 0.613 0.028 0.879 0h0.16l-0.762-0.32c-0.586-0.32-1.117-0.735-1.598-1.238-1.492-1.575-2.011-3.68-1.558-6.321zm-23.121-21.199c-0.293 0.023-0.586 0.066-0.879 0.117 0.133 0.266 0.266 0.547 0.398 0.84h0.442c0.476 0 0.972 0.043 1.476 0.121l-1.437-1.078zm1 7.477c0.531 0 1.398 0.082 2.597 0.242 0.028-0.16 0.043-0.281 0.043-0.36 0.024-0.082 0.079-0.214 0.161-0.402 0.05-0.078 0.093-0.144 0.117-0.199-0.024-0.078-0.051-0.16-0.078-0.238-0.106-0.028-0.215-0.043-0.321-0.043-0.242 0-0.398-0.012-0.48-0.039-0.215-0.106-0.32-0.188-0.32-0.239v-0.082c0.027-0.027 0.039-0.051 0.039-0.078 0.082-0.109 0.214-0.23 0.402-0.363 0.211-0.106 0.348-0.184 0.398-0.238v-0.36c-0.105-0.082-0.265-0.215-0.48-0.402-0.106-0.106-0.184-0.211-0.238-0.32-0.055-0.133-0.028-0.25 0.078-0.36 0.054-0.023 0.148-0.066 0.281-0.117 0.078-0.027 0.188-0.055 0.32-0.082 0.071 0 0.129-0.008 0.18-0.02l0.02-0.019c0.027-0.16 0.066-0.305 0.121-0.442-0.028-0.023-0.039-0.05-0.039-0.078-0.082-0.132-0.204-0.293-0.364-0.48-0.05-0.133-0.066-0.293-0.039-0.481 0-0.16 0.039-0.308 0.121-0.441 0.078-0.105 0.215-0.172 0.399-0.199 0.082-0.028 0.16-0.055 0.242-0.082-0.16-0.106-0.348-0.199-0.563-0.278-0.32-0.132-0.625-0.199-0.918-0.199-0.242 0.024-0.375 0.039-0.402 0.039h-0.238c-0.133 0-0.238 0.012-0.32 0.039 0.16 0.028 0.308 0.067 0.441 0.121-0.508 0.051-0.934 0.106-1.281 0.161-0.348 0.054-0.602 0.105-0.758 0.16l-0.32 0.16c0.531 1.387 0.906 3 1.117 4.84v0.16c0.269 0.027 0.64 0.066 1.121 0.121l-0.281 0.078c-0.024 0-0.079 0.016-0.161 0.043-0.16 0.051-0.359 0.133-0.597 0.238v0.239zm2.597 0.281c-0.183 0.055-0.41 0.121-0.679 0.199-0.184 0.055-0.387 0.121-0.598 0.199l-1.242 0.403c0.027 0.613 0.043 1.187 0.043 1.718l0.039-0.039c0.027-0.027 0.133-0.132 0.32-0.32l0.957-0.16c0.508-0.106 1.27-0.281 2.282-0.52v-0.121c-0.028-0.078-0.04-0.199-0.04-0.359-0.027-0.106-0.015-0.305 0.04-0.598h-0.04c-0.105 0.051-0.253 0.078-0.441 0.078-0.184 0.028-0.332 0.028-0.437 0-0.082-0.027-0.137-0.078-0.161-0.16-0.027-0.051-0.043-0.133-0.043-0.238v-0.082zm8.082 12.242c-0.16-0.535-0.148-0.855 0.04-0.961 0.425-0.242 1.054-0.281 1.878-0.121 1.149 0.215 1.79 0.32 1.922 0.32 0.133 0 0.254 0.055 0.36 0.16 0.082 0.133 0.027 0.2-0.16 0.2-0.774 0.027-1.465-0.028-2.079-0.16-0.453-0.106-0.734-0.161-0.839-0.161-0.43 0-0.614 0.161-0.563 0.481 0.027 0.187 0.094 0.398 0.199 0.64 0.188 0.399 0.282 0.614 0.282 0.641 0.054 0.133-0.012 0.199-0.2 0.199-0.187 0-0.308-0.039-0.359-0.121-0.188-0.265-0.387-0.492-0.602-0.679-0.32-0.239-0.464-0.2-0.437 0.121 0 0.132-0.082 0.199-0.242 0.199-0.16-0.027-0.282-0.067-0.36-0.121-0.132-0.16-0.293-0.371-0.48-0.637l-0.078 0.039c-0.055 0-0.188 0.039-0.403 0.117-0.187 0.055-0.332 0.067-0.437 0.043-0.43-0.109-0.656-0.043-0.684 0.199 0.457 0.481 0.789 1.067 1 1.758 0.028 0.137-0.05 0.188-0.238 0.16-0.188-0.023-0.305-0.078-0.359-0.16-0.348-0.449-0.614-0.918-0.801-1.398l-0.199-0.281c-0.403-0.477-0.653-0.731-0.762-0.758 0.242-0.028 0.496 0.027 0.762 0.16l-0.082-0.281c0-0.078 0.054-0.133 0.16-0.16 0.082-0.028 0.16-0.028 0.242 0 0.613 0.16 0.984 0.214 1.117 0.16 0.215-0.106 0.242-0.492 0.082-1.16-0.027-0.161 0.067-0.227 0.281-0.2 0.211 0.028 0.332 0.106 0.36 0.239l0.121 0.363c0.078 0.371 0.238 0.719 0.476 1.039h0.043c0.426-0.055 0.774-0.016 1.039 0.121zm4.801-5.203c-0.136-0.051-0.269-0.16-0.402-0.32l-0.16-0.239c-0.024-0.027-0.039-0.054-0.039-0.082 0 0.082-0.028 0.164-0.078 0.242-0.055 0.051-0.161 0.051-0.321 0-0.136-0.027-0.226-0.066-0.281-0.121-0.105-0.132-0.188-0.304-0.238-0.519 0-0.106 0.093-0.145 0.277-0.121 0.215 0.027 0.336 0.094 0.359 0.203 0.27-0.109 0.524-0.043 0.762 0.199l0.238 0.32c0.11 0.133 0.215 0.172 0.321 0.118 0.109-0.051 0.136-0.172 0.082-0.36-0.055-0.183-0.242-0.453-0.563-0.801-0.023-0.05-0.023-0.093 0-0.117 0.028-0.027 0.055-0.043 0.082-0.043 0.399-0.05 0.735 0 1 0.16 0.188 0.137 0.399 0.364 0.641 0.684 0.211-0.082 0.437-0.121 0.68-0.121 0.078-0.027 0.32-0.039 0.718-0.039 0.133 0 0.254 0.051 0.36 0.16 0.109 0.106 0.066 0.156-0.117 0.156h-0.723c-0.266 0.055-0.492 0.149-0.68 0.282-0.078 0.054-0.187 0.066-0.32 0.039-0.133-0.028-0.227-0.079-0.277-0.161-0.161-0.183-0.282-0.371-0.364-0.558 0 0.055 0.016 0.105 0.043 0.16 0.239 0.398 0.227 0.695-0.043 0.879-0.105 0.082-0.265 0.121-0.476 0.121-0.188 0-0.348-0.039-0.481-0.121zm-11 4.84c0.051-0.133 0.172-0.184 0.36-0.16 0.32 0.082 0.597 0.187 0.839 0.32 0.161-0.051 0.266-0.078 0.321-0.078-0.028 0.027-0.016 0.094 0.039 0.199 0.055 0.082 0.105 0.16 0.16 0.238 0.078 0.11 0.027 0.176-0.16 0.203-0.188 0-0.32-0.027-0.399-0.082l-0.882-0.398c-0.211-0.055-0.305-0.133-0.278-0.242zm-6.679 2c-0.055 0.109-0.082 0.215-0.082 0.32-0.028 0.082-0.04 0.176-0.04 0.281 0.028-0.187 0.067-0.386 0.122-0.601zm7.398-12.637c-0.027 0.023-0.055 0.051-0.078 0.078h0.078v-0.078zm2.281 0.316c0.051 0.11 0.094 0.188 0.117 0.243 0.028 0.027 0.067 0.066 0.122 0.121 0.132 0.051 0.214 0.117 0.242 0.199l0.238 0.48c0-0.187-0.027-0.402-0.078-0.64h-0.082c-0.133-0.055-0.254-0.133-0.36-0.242-0.054-0.024-0.121-0.079-0.199-0.161zm10.199-4.16 0.04 0.082c0.027 0.055 0 0.082-0.079 0.082h-0.203c-0.211-0.054-0.332-0.121-0.359-0.203-0.027-0.051-0.067-0.117-0.117-0.199-0.028-0.051-0.043-0.117-0.043-0.199l0.043-0.039c0.371-0.16 0.691-0.028 0.957 0.398 0.054 0.078-0.024 0.106-0.239 0.078zm-2.199 0.203c-0.109-0.054-0.176-0.148-0.203-0.281-0.023-0.082-0.023-0.148 0-0.199 0.11-0.109 0.242-0.176 0.402-0.199 0.079 0 0.215 0.011 0.399 0.039 0.16 0.027 0.266 0.105 0.32 0.238 0.055 0.16-0.011 0.254-0.199 0.281 0.027 0.082 0 0.149-0.078 0.2-0.082 0.082-0.188 0.093-0.32 0.043-0.161-0.055-0.27-0.098-0.321-0.122zm-0.281-4.043c0.266 0.536 0.895 0.961 1.879 1.282 0.109-0.215-0.238-0.586-1.039-1.117-0.801-0.536-1.078-0.59-0.84-0.165z" inkscape:connector-curvature="0"/>
          </g>
        </g>
      </g>
      <path id="path52" style="fill-rule:evenodd;fill:#c9be9b" d="m4.922 34.56 1.199-0.52c-0.133-0.054-0.266-0.109-0.402-0.16-0.399 0.16-0.653 0.32-0.758 0.481l-0.039 0.199zm2.117 0.758-1.32 0.203c-0.051 0.023-0.078 0.105-0.078 0.238l0.039 0.199 0.558-0.117 2.481-0.242-0.117-0.078c-0.641-0.082-1.161-0.149-1.563-0.203zm-0.879-8.84 0.199-0.078-0.238-0.282c-0.027 0.133-0.016 0.254 0.039 0.36zm-0.719 1.281c-0.082 0.105 0.039 0.238 0.36 0.398 0.265-0.078 0.453-0.117 0.558-0.117 0.321 0 0.586-0.015 0.801-0.043l-1.719-0.238zm25.797-7.16h0.922l0.121-0.52c-0.961-0.398-1.683-0.707-2.16-0.922-0.402-0.183-0.762-0.359-1.082-0.519-0.586-0.293-0.984-0.426-1.199-0.399-0.106 0-0.309 0.106-0.602 0.321-0.293 0.187-0.48 0.304-0.558 0.359-0.321 0.16-0.602 0.305-0.84 0.442-0.508 0.265-0.762 0.453-0.762 0.558l0.922 0.16c0.32 0.028 0.508 0.039 0.559 0.039l2.203 0.121c0.824 0.106 1.25 0.227 1.277 0.36h1.199zm-23.718-10.602-0.282-0.039v-0.039c-0.504-0.078-1-0.121-1.476-0.121h-0.442l0.36 0.281 0.48 0.039c0.16 0.028 0.332 0.082 0.52 0.161 0.347-0.055 0.773-0.106 1.281-0.161-0.133-0.05-0.281-0.093-0.441-0.121zm1.878 6.563c-1.199-0.16-2.066-0.242-2.597-0.242l0.48 0.32 0.957 0.082c0.11 0.027 0.27 0.051 0.481 0.078 0.269-0.078 0.496-0.144 0.679-0.199v-0.039zm-2-0.719c0.082-0.027 0.137-0.043 0.161-0.043l0.281-0.078c-0.481-0.055-0.852-0.094-1.121-0.121v-0.16c-0.051 0.082-0.039 0.16 0.043 0.242l0.277 0.117 0.359 0.043zm3.403 4.559c-0.055 0.16-0.067 0.281-0.039 0.359 0.05 0.105 0.183 0.215 0.398 0.32 0.215 0.078 0.348 0.133 0.399 0.16 0.722 0.375 1.308 0.641 1.761 0.801l2.399-0.043c-0.16-0.265-0.387-0.543-0.68-0.84-0.184-0.16-0.453-0.398-0.801-0.718-0.265-0.239-0.519-0.508-0.758-0.801-0.027 0.109-0.054 0.242-0.082 0.402 0 0.051-0.078 0.067-0.238 0.039-0.133-0.027-0.226-0.066-0.281-0.121-0.266-0.133-0.547-0.359-0.84-0.679 0.082 0.347 0.121 0.628 0.121 0.839 0.028 0.321-0.027 0.602-0.16 0.84-0.027 0.055-0.094 0.082-0.199 0.082-0.133-0.054-0.215-0.082-0.242-0.082-0.321-0.105-0.571-0.293-0.758-0.558zm0.078-0.121h0.16c0.215 0.027 0.348 0.082 0.402 0.16 0.051-0.293 0.039-0.653-0.043-1.078-0.023 0-0.039 0.011-0.039 0.039-0.105 0.187-0.199 0.332-0.281 0.441-0.078 0.184-0.144 0.332-0.199 0.438zm1.601-1.161c0.161 0.215 0.266 0.348 0.321 0.403 0.027-0.082 0.051-0.149 0.078-0.203-0.051 0-0.094-0.012-0.117-0.039-0.055-0.028-0.11-0.079-0.16-0.161h-0.122zm-1.082-10.199v-0.238h-0.117c0.024 0.105 0.067 0.183 0.117 0.238zm4.961-0.879 0.121 1.559c0.133-0.051 0.282-0.117 0.442-0.199 0.133-0.055 0.316-0.149 0.558-0.282 0.079-0.027 0.2-0.093 0.36-0.199 0.16-0.082 0.293-0.133 0.398-0.16 0.055-0.266 0.055-0.535 0-0.801-0.636 0.028-1.265 0.055-1.879 0.082z" inkscape:connector-curvature="0"/>
      <path id="path54" style="fill-rule:evenodd;fill:#d9cfb0" d="m26 20.079-0.922-0.16c0-0.105 0.254-0.293 0.762-0.558 0.238-0.137 0.519-0.282 0.84-0.442 0.082-0.055 0.265-0.172 0.558-0.359 0.293-0.215 0.496-0.321 0.602-0.321 0.215-0.027 0.613 0.106 1.199 0.399 0.32 0.16 0.68 0.336 1.082 0.519 0.481 0.215 1.199 0.524 2.16 0.922 0.133-0.586 0.239-1.172 0.317-1.761l-2.52-1.719c-0.078-0.133-0.183-0.227-0.316-0.281-0.403 0.347-1.028 0.64-1.883 0.882-0.184 0.024-0.305 0.067-0.359 0.118-0.051 0.082-0.079 0.148-0.079 0.203-0.054 0.105-0.109 0.199-0.16 0.277-0.136 0.133-0.308 0.359-0.519 0.68-0.215 0.32-0.574 0.629-1.082 0.922-0.586 0.265-1.012 0.48-1.282 0.64 0.161 0.024 0.696 0.039 1.602 0.039zm6.121 0.52h-0.883c0.348 0.055 0.617 0.082 0.801 0.082l0.082-0.082z" inkscape:connector-curvature="0"/>
      <path id="path56" style="fill-rule:evenodd;fill:#d4c8a3" d="m16.48 9.599v0.398h0.079c0.269-0.133 0.48-0.238 0.64-0.316l0.442-0.281h0.718l1.52-0.121c0.109-0.028 0.199-0.028 0.281 0 0.055-0.028 0.106-0.051 0.16-0.079 0.16-0.16 0.282-0.359 0.36-0.601 0.132-0.266 0.254-0.52 0.359-0.758-0.453 0.023-0.918 0.039-1.398 0.039-0.481 0.027-0.946 0.051-1.403 0.078 0.055 0.27 0.055 0.535 0 0.801-0.105 0.027-0.238 0.082-0.398 0.16-0.16 0.106-0.281 0.176-0.36 0.199-0.242 0.133-0.425 0.227-0.558 0.282-0.16 0.078-0.309 0.144-0.442 0.199zm16.079 2.281-1-5.199c-0.133-0.457-0.278-0.867-0.438-1.242l-1-1.68c-0.055-0.027-0.109-0.055-0.16-0.082-0.215 0.027-0.348-0.012-0.402-0.117-0.371-0.055-0.813-0.016-1.317 0.117-0.91 0.27-1.64 0.707-2.203 1.32-0.449 0.508-0.73 1.11-0.84 1.801l-0.039 0.918c-0.453 0-0.918 0.016-1.398 0.043 0 0.133 0.011 0.266 0.039 0.398 0.078 0.426 0.304 1 0.679 1.719 0.082 0.11 0.122 0.176 0.122 0.203 0.027 0.024 0.105 0.051 0.238 0.078 0.828 0.161 1.629 0.239 2.402 0.239 0.531-0.024 1.078 0.015 1.637 0.121 0.027-0.028 0.121-0.067 0.281-0.121l0.36-0.078c0.109-0.055 0.32-0.172 0.64-0.36 0.133-0.054 0.336-0.133 0.602-0.242 0.16-0.078 0.332-0.105 0.519-0.078 0.133 0.027 0.332 0.078 0.598 0.16 0.109 0.024 0.176 0.066 0.203 0.117 0.023 0.028-0.016 0.149-0.121 0.364-0.106 0.21-0.172 0.332-0.199 0.359-0.055 0.078-0.106 0.156-0.16 0.238-0.082 0.164-0.122 0.27-0.122 0.324 0 0.051 0.012 0.094 0.04 0.118 0 0.027 0.039 0.066 0.121 0.121 0.187 0.105 0.359 0.199 0.519 0.281l0.238 0.16c0.028 0.027 0.082 0.027 0.161 0zm-24.321-3.32c-0.824 0.078-1.636 0.172-2.437 0.281l1.437 1.078v0.039l0.282 0.039c0.082-0.023 0.187-0.039 0.32-0.039h0.238c0.027 0 0.16-0.011 0.402-0.039 0.293 0 0.598 0.067 0.918 0.199 0.215 0.082 0.403 0.176 0.563 0.282h0.078c0.106 0 0.254 0.027 0.441 0.082 0.028-0.055 0.051-0.094 0.079-0.121v-0.122c-0.051-0.16-0.079-0.265-0.079-0.32 0-0.051 0.012-0.211 0.04-0.48v-0.399c0.027-0.027 0.054-0.039 0.082-0.039 0.023-0.027 0.066-0.043 0.117-0.043 0.027-0.023 0.054-0.039 0.082-0.039h0.121c0.156-0.027 0.316-0.012 0.476 0.039v-0.039c-0.05-0.051-0.093-0.133-0.117-0.238-0.801 0.078-1.293 0.133-1.48 0.16-0.403 0.078-0.735 0.078-1 0-0.242-0.027-0.414-0.109-0.52-0.242-0.027 0-0.043-0.012-0.043-0.039zm16.524-1-0.082-0.481c-0.028-0.453 0.015-0.894 0.121-1.32 0.078-0.215 0.16-0.414 0.238-0.602-0.238 0.403-0.387 0.84-0.437 1.321l0.039 1 0.121 0.082z" inkscape:connector-curvature="0"/>
      <path id="path58" style="fill-rule:evenodd;fill:#f5ecd3" d="m7.719 37.72c0.136 0.051 0.281 0.105 0.441 0.16 0.133 0.051 0.266 0.106 0.399 0.16h0.121l0.961 0.199c0.105 0.028 0.214 0.04 0.32 0.04 0.105 0.027 0.199 0.039 0.277 0.039h0.364l-0.563-0.079 0.281-0.121 0.602-0.48c0.398-0.348 0.652-0.547 0.758-0.598 0.105-0.054 0.398-0.109 0.879-0.16 0.429-0.055 0.761-0.082 1-0.082 0.242 0 0.734 0.027 1.48 0.082 0.801 0.027 1.266 0.067 1.402 0.117 0.161 0.028 0.625 0.067 1.399 0.121 0.773 0.082 1.265 0.121 1.48 0.121 0.293 0 0.84-0.054 1.641-0.16l0.641-0.121c0.476-0.078 0.785-0.105 0.918-0.078 0.214 0.027 0.812 0.133 1.8 0.32 0.028 0 0.559 0.039 1.602 0.118 1.066 0.109 1.746 0.16 2.039 0.16 0.48 0 1.719 0.148 3.719 0.441h0.679c-1.039-0.668-1.839-1.265-2.398-1.801-0.16-0.105-0.266-0.238-0.32-0.398-0.133 0-0.332 0.012-0.602 0.039-0.293 0.027-0.48 0.039-0.559 0.039-0.558 0-0.96 0.016-1.199 0.043 0.051 0.211 0.078 0.371 0.078 0.477-0.027 0.136-0.105 0.281-0.238 0.441-0.133 0.133-0.309 0.199-0.519 0.199-0.27-0.027-0.469-0.039-0.602-0.039-0.16-0.027-0.359-0.066-0.602-0.121-0.238-0.078-0.425-0.133-0.558-0.16-0.32-0.051-0.586-0.094-0.801-0.117-0.344-0.082-0.598-0.176-0.758-0.282l-0.082-0.082-3.48 0.161c-0.774-0.371-1.719-0.598-2.84-0.68l-0.078-0.199c-0.028 0-0.348 0.093-0.961 0.281-0.399 0.105-0.735 0.172-1 0.199-0.668 0.055-1.426-0.039-2.281-0.281-0.293-0.078-1.024-0.332-2.2-0.758-0.027 0.133-0.078 0.238-0.16 0.32-0.105 0.133-0.187 0.239-0.238 0.321-0.481 0.531-0.988 1.039-1.52 1.519-0.242 0.211-0.48 0.438-0.722 0.68zm4.722 0.598c1.094-0.079 3.348-0.227 6.758-0.438 3.121-0.187 5.36-0.242 6.723-0.16 0.664 0.051 1.344 0.094 2.039 0.121l2.801 0.078h0.437c-4.105-0.215-6.851-0.293-8.238-0.238-2.375 0.078-4.762 0.199-7.16 0.359-1.496 0.106-2.613 0.199-3.36 0.278z" inkscape:connector-curvature="0"/>
      <path id="path60" style="fill-rule:evenodd;fill:#fff6db" d="m31.801 37.919h-0.121c-2-0.293-3.239-0.441-3.719-0.441-0.293 0-0.973-0.051-2.039-0.16-1.043-0.079-1.574-0.118-1.602-0.118-0.988-0.187-1.586-0.293-1.8-0.32-0.133-0.027-0.442 0-0.918 0.078l-0.641 0.121c-0.801 0.106-1.348 0.16-1.641 0.16-0.215 0-0.707-0.039-1.48-0.121-0.774-0.054-1.238-0.093-1.399-0.121-0.136-0.05-0.601-0.09-1.402-0.117-0.746-0.055-1.238-0.082-1.48-0.082-0.239 0-0.571 0.027-1 0.082-0.481 0.051-0.77 0.106-0.879 0.16-0.106 0.051-0.36 0.25-0.758 0.598l-0.602 0.48-0.281 0.121 0.563 0.079h0.16c0.531 0.054 0.984 0.066 1.359 0.043 0.078-0.028 0.172-0.043 0.277-0.043h0.043c0.747-0.079 1.864-0.172 3.36-0.278 2.398-0.16 4.785-0.281 7.16-0.359 1.387-0.055 4.133 0.023 8.238 0.238h0.16c0.161 0 0.336 0.012 0.52 0.039l-0.078-0.039z" inkscape:connector-curvature="0"/>
      <path id="path62" style="fill-rule:evenodd;fill:#ede7ce" d="m16.801 35.439 0.078 0.199c1.121 0.082 2.066 0.309 2.84 0.68l3.48-0.161 1.36-0.039v-0.679c0-0.746-0.039-1.227-0.118-1.442-0.054-0.105-0.093-0.172-0.121-0.199-0.082-0.023-0.16-0.051-0.242-0.078-0.586-0.215-1.332-0.52-2.238-0.922-1.145-0.531-1.867-0.867-2.16-1-0.16-0.078-0.293-0.133-0.399-0.16-0.16-0.051-0.293-0.078-0.402-0.078-0.238 0.16-0.481 0.347-0.719 0.558-0.398 0.321-0.801 0.614-1.199 0.879-0.133 0.082-0.309 0.16-0.52 0.242-0.242 0.133-0.414 0.227-0.519 0.282 0.051 0.105 0.156 0.265 0.316 0.476 0.16 0.215 0.27 0.387 0.321 0.524 0.054 0.105 0.109 0.25 0.16 0.437 0.054 0.266 0.082 0.426 0.082 0.481z" inkscape:connector-curvature="0"/>
      <path id="path64" style="fill-rule:evenodd;fill:#f0e7cc" d="m11.238 22.439c-0.133 0-0.238 0.015-0.316 0.039-0.16 0.027-0.281 0.054-0.363 0.082-0.024 0.027-0.051 0.054-0.079 0.078-0.054 0.082-0.093 0.121-0.121 0.121-0.105 0.082-0.265 0.172-0.48 0.281-0.266 0.106-0.438 0.184-0.52 0.239-0.238 0.105-0.414 0.187-0.519 0.242-0.215 0.105-0.375 0.199-0.481 0.277 0 0.027 0.039 0.066 0.121 0.121l0.2 0.078c0.242 0.188 0.519 0.442 0.84 0.762 0.347 0.375 0.601 0.652 0.761 0.84l0.16 0.16c0.051 0.027 0.118 0.055 0.2 0.082 0.879 0.156 1.597 0.277 2.16 0.359 0.293 0.028 0.758 0.079 1.398 0.161h0.039l4-3.043c-0.023-0.079-0.05-0.161-0.078-0.239-0.082 0-0.172-0.015-0.281-0.039h-0.238c0.027 0 0.039 0.012 0.039 0.039 0.16 0.106 0.148 0.188-0.039 0.239-0.028 0-0.336 0.043-0.922 0.121-0.371 0.054-0.653 0.148-0.84 0.281-0.051 0.051-0.145 0.066-0.277 0.039-0.082 0-0.161-0.039-0.243-0.121-0.078-0.078-0.238-0.133-0.48-0.16-0.027 0-0.227-0.024-0.598-0.078-0.054 0.347-0.093 0.597-0.121 0.757-0.027 0.11-0.121 0.149-0.281 0.122-0.16-0.028-0.266-0.067-0.32-0.122-0.079-0.023-0.133-0.039-0.161-0.039 0.161 0.293 0.254 0.536 0.282 0.723 0.027 0.133-0.055 0.199-0.239 0.199-0.16-0.027-0.281-0.066-0.363-0.121-0.293-0.293-0.398-0.601-0.316-0.922-0.188-0.316-0.414-0.625-0.684-0.918-0.664-0.64-0.879-0.238-0.637 1.2 0.133 0.347 0.348 0.628 0.637 0.839 0.348 0.293 0.684 0.375 1 0.243 0.11-0.028 0.242 0.011 0.402 0.117 0.161 0.109 0.145 0.203-0.039 0.281-0.64 0.238-1.347 0.027-2.121-0.641-0.8-0.691-1.027-1.386-0.679-2.078 0.16-0.32 0.359-0.519 0.597-0.601zm0.242-0.039c0.133 0 0.254 0.027 0.36 0.078 0.426 0.16 0.855 0.535 1.281 1.121 0.133-0.051 0.277-0.051 0.438 0 0.027-0.188 0.054-0.371 0.082-0.559 0-0.054 0.054-0.093 0.16-0.121h0.238c0.16 0.078 0.426 0.133 0.801 0.16 0.32 0.028 0.558 0.094 0.719 0.2 0.214-0.106 0.496-0.188 0.839-0.239 0.375-0.054 0.641-0.093 0.801-0.121-0.187-0.027-0.387-0.078-0.597-0.16-0.375-0.133-0.668-0.227-0.883-0.281-0.371-0.133-0.598-0.199-0.68-0.199-0.105-0.051-0.184-0.079-0.238-0.079l-1.199 0.039c-0.856 0.028-1.563 0.079-2.122 0.161zm17.719 6.281 0.043-0.082 0.637-1.918c0.027-0.055 0.055-0.109 0.082-0.16 0.105-0.321 0.375-0.977 0.801-1.961h-0.203c-0.614-0.082-1.348-0.387-2.2-0.922-0.078-0.051-0.226-0.145-0.437-0.277-0.16-0.137-0.32-0.188-0.481-0.161h-1.363c-0.183-0.027-0.344-0.043-0.476-0.043-0.297 0-0.481 0.016-0.563 0.043 0.027 0.106 0 0.184-0.078 0.239-0.293 0.375-0.563 0.695-0.801 0.961-0.398 0.425-0.695 0.757-0.879 1-0.347 0.398-0.547 0.773-0.601 1.121 0.027 0 0.082 0.051 0.16 0.16 0.293 0.211 0.547 0.453 0.762 0.719 0.21 0.214 0.453 0.492 0.718 0.839 0.266 0.399 0.481 0.692 0.641 0.879l1.801-0.238c1.144-0.133 1.957-0.199 2.437-0.199z" inkscape:connector-curvature="0"/>
      <path id="path66" style="fill-rule:evenodd;fill:#9d957e" d="m10.398 29.118c0.055 0.161 0.11 0.321 0.161 0.481 0.054 0.133 0.109 0.265 0.16 0.398 0.16 0.375 0.441 0.95 0.84 1.723-0.637-0.293-1.118-0.469-1.438-0.52-0.586-0.136-1.043-0.082-1.359 0.161-0.082 0.05-0.028 0.117 0.16 0.199 0.183 0.054 0.316 0.054 0.398 0 0.266-0.188 0.707-0.16 1.321 0.078 0.347 0.109 0.785 0.293 1.32 0.562 0.051 0.028 0.133 0.039 0.238 0.039 0.16-0.027 0.215-0.066 0.16-0.121-0.48-0.906-0.785-1.531-0.918-1.879-0.109-0.242-0.214-0.48-0.32-0.718-0.027-0.082-0.043-0.16-0.043-0.242-0.133-0.372-0.226-0.735-0.277-1.079-0.028-0.109-0.149-0.175-0.36-0.203-0.214-0.023-0.308 0.028-0.281 0.16 0.055 0.297 0.133 0.618 0.238 0.961zm1.082-6.718c-0.082 0-0.16 0.011-0.242 0.039-0.238 0.082-0.437 0.281-0.597 0.601-0.348 0.692-0.121 1.387 0.679 2.078 0.774 0.668 1.481 0.879 2.121 0.641 0.184-0.078 0.2-0.172 0.039-0.281-0.16-0.106-0.292-0.145-0.402-0.117-0.316 0.132-0.652 0.05-1-0.243-0.293-0.211-0.504-0.492-0.637-0.839-0.242-1.438-0.027-1.84 0.637-1.2 0.27 0.293 0.496 0.602 0.684 0.918-0.082 0.321 0.027 0.629 0.316 0.922 0.082 0.055 0.203 0.094 0.363 0.121 0.184 0 0.266-0.066 0.239-0.199-0.028-0.187-0.121-0.43-0.282-0.723 0.028 0 0.082 0.016 0.161 0.039 0.054 0.055 0.16 0.094 0.32 0.122 0.16 0.027 0.254-0.012 0.281-0.122 0.028-0.16 0.067-0.41 0.121-0.757 0.371 0.054 0.571 0.078 0.598 0.078 0.242 0.027 0.402 0.082 0.48 0.16 0.082 0.082 0.161 0.121 0.243 0.121 0.132 0.027 0.226 0.016 0.277-0.039 0.187-0.133 0.469-0.227 0.84-0.281 0.586-0.078 0.894-0.121 0.922-0.121 0.187-0.051 0.199-0.133 0.039-0.239 0-0.027-0.012-0.039-0.039-0.039-0.133-0.109-0.254-0.148-0.36-0.121h-0.082c-0.16 0.028-0.426 0.067-0.801 0.121-0.343 0.051-0.625 0.133-0.839 0.239-0.161-0.106-0.399-0.172-0.719-0.2-0.375-0.027-0.641-0.082-0.801-0.16h-0.238c-0.106 0.028-0.16 0.067-0.16 0.121-0.028 0.184-0.055 0.371-0.082 0.559-0.161-0.051-0.305-0.051-0.438 0-0.426-0.586-0.855-0.961-1.281-1.121-0.106-0.051-0.227-0.078-0.36-0.078zm6.68 0.679c0.028 0.078 0.055 0.16 0.078 0.239 0.055 0.16 0.11 0.308 0.16 0.441 0.188 0.348 0.442 0.641 0.762 0.879 0.078 0.055 0.188 0.094 0.32 0.121 0.161 0.027 0.254 0 0.282-0.078 0.027-0.109 0.011-0.32-0.043-0.641 0-0.293 0.027-0.508 0.082-0.64 0.051-0.106 0.187-0.161 0.398-0.161 0.293-0.027 0.469-0.054 0.52-0.082 0.054-0.023 0.066-0.066 0.043-0.117-0.028-0.054-0.055-0.093-0.082-0.121-0.16-0.105-0.321-0.133-0.481-0.078-0.027 0.023-0.199 0.039-0.519 0.039-0.239 0.027-0.399 0.106-0.481 0.238-0.078 0.188-0.105 0.442-0.078 0.762-0.242-0.402-0.359-0.801-0.359-1.199 0-0.109-0.11-0.188-0.321-0.242-0.214-0.028-0.32 0.027-0.32 0.16 0 0.16 0.012 0.32 0.039 0.48zm-6.801-4.8c-0.05 0.027-0.121 0.039-0.199 0.039 0.106 0.453 0.188 0.8 0.238 1.043 0.082 0.425 0.094 0.785 0.043 1.078-0.054-0.078-0.187-0.133-0.402-0.16h-0.16c-0.078 0-0.106 0.015-0.078 0.039v0.082c0.187 0.265 0.437 0.453 0.758 0.558 0.027 0 0.109 0.028 0.242 0.082 0.105 0 0.172-0.027 0.199-0.082 0.133-0.238 0.188-0.519 0.16-0.84 0-0.211-0.039-0.492-0.121-0.839 0.293 0.32 0.574 0.546 0.84 0.679 0.055 0.055 0.148 0.094 0.281 0.121 0.16 0.028 0.238 0.012 0.238-0.039 0.028-0.16 0.055-0.293 0.082-0.402 0.051-0.133 0.094-0.227 0.122-0.277 0.105-0.215 0.293-0.297 0.558-0.243h0.16c0.188 0.348 0.414 0.641 0.68 0.879 0.055 0.082 0.172 0.149 0.359 0.203h0.121c0.106 0.028 0.161 0 0.161-0.082 0.078-0.32 0.093-0.664 0.039-1.039 0.347 0.348 0.625 0.602 0.84 0.762 0.347 0.266 0.679 0.449 1 0.559 0.082 0.054 0.16 0.078 0.242 0.078 0.133 0 0.211-0.024 0.238-0.078 0.055-0.243 0.078-0.52 0.078-0.84v-0.84c0.16 0.051 0.387 0.16 0.684 0.32 0.211 0.078 0.41 0.133 0.597 0.16h0.161c0.16 0 0.16-0.066 0-0.203-0.133-0.078-0.254-0.117-0.36-0.117h-0.039c-0.16 0-0.387-0.094-0.68-0.281-0.347-0.16-0.586-0.254-0.722-0.281-0.184-0.051-0.293-0.024-0.321 0.082v0.8c0 0.321-0.011 0.586-0.039 0.797-0.293-0.183-0.613-0.449-0.961-0.797-0.16-0.136-0.359-0.32-0.597-0.562h-0.16l-0.2-0.039c-0.242 0-0.414-0.012-0.519-0.039 0.051 0.238 0.078 0.453 0.078 0.64l-0.238-0.48c-0.028-0.082-0.11-0.148-0.242-0.199h-0.161c-0.214-0.028-0.304 0-0.281 0.078l0.16 0.32c-0.078-0.027-0.16-0.055-0.238-0.078-0.133-0.027-0.266-0.043-0.398-0.043-0.028 0.055-0.055 0.094-0.082 0.121-0.106 0.133-0.188 0.227-0.239 0.281-0.054 0.051-0.121 0.079-0.203 0.079-0.051 0.054-0.117 0.066-0.199 0.039-0.027 0.054-0.051 0.121-0.078 0.203-0.055-0.055-0.16-0.188-0.321-0.403l-0.16-0.16c-0.187-0.265-0.359-0.453-0.519-0.558-0.055-0.055-0.176-0.106-0.36-0.161-0.027 0.028-0.054 0.04-0.082 0.04zm11.039 2.082 0.043-0.043c0.106-0.797-0.214-1.692-0.961-2.68 0.719-0.078 1.266 0.187 1.641 0.801 0.371 0.64 0.344 1.293-0.082 1.961-0.027 0-0.039 0.011-0.039 0.039-0.027 0.078 0.055 0.16 0.238 0.238 0.215 0.082 0.348 0.066 0.403-0.039 0.187-0.293 0.304-0.574 0.359-0.84 0.16-0.641-0.039-1.226-0.602-1.758-0.718-0.75-1.57-1-2.558-0.761-0.078 0.027-0.121 0.066-0.121 0.121 0 0.023 0.015 0.078 0.043 0.16 0.316 0.347 0.558 0.719 0.718 1.117 0.215 0.48 0.305 0.922 0.282 1.32-0.11-0.023-0.188-0.039-0.242-0.039-0.188-0.051-0.293-0.039-0.321 0.039v0.043c-0.054 0.106 0.028 0.184 0.242 0.239 0.239 0.082 0.465 0.121 0.68 0.121 0.133 0 0.227-0.016 0.277-0.039zm-2.277-1.204c0.184 0.028 0.371-0.011 0.559-0.117 0.16-0.109 0.16-0.226 0-0.359-0.188-0.109-0.348-0.121-0.481-0.043-0.078 0.027-0.133 0-0.16-0.078-0.133-0.133-0.277-0.149-0.437-0.039-0.188 0.078-0.204 0.199-0.043 0.359 0.16 0.133 0.347 0.227 0.562 0.277zm5.32-1.16c-0.082-0.023-0.187-0.05-0.32-0.078-0.242-0.055-0.453-0.082-0.641-0.082-0.402 0.055-0.519 0.375-0.359 0.961 0.024 0.082 0.145 0.133 0.359 0.16 0.215 0.055 0.305 0.028 0.282-0.078-0.137-0.508-0.055-0.734 0.238-0.683 0.027 0 0.172 0.027 0.441 0.082h0.079c0.187 0.054 0.347 0.082 0.48 0.082 0.055 0 0.105-0.016 0.16-0.043 0.055-0.024 0.067-0.067 0.039-0.118-0.078-0.109-0.226-0.16-0.437-0.16-0.082 0-0.188-0.015-0.321-0.043zm-7.882-5.039c-0.024-0.051-0.039-0.117-0.039-0.199-0.079-0.719 0.253-0.934 1-0.641 0.292 0.106 0.828 0.403 1.601 0.879 0.024 0.028 0.078 0.055 0.16 0.082 0.051 0.028 0.106 0.039 0.16 0.039 0.184 0.028 0.266-0.011 0.239-0.117-0.293-0.668 0.148-0.816 1.32-0.441 0.078 0.027 0.16 0.054 0.238 0.082 0.16 0 0.242-0.028 0.242-0.082 0-0.188 0.348-0.321 1.04-0.399 0.425-0.082 0.8-0.121 1.121-0.121 0.027 0.028 0.066 0.028 0.121 0 0.05-0.027 0.078-0.054 0.078-0.082 0.586 0.215 1.039 0.453 1.359 0.723 0.082 0.051 0.227 0.078 0.442 0.078 0.214 0 0.254-0.051 0.121-0.16-0.215-0.184-0.524-0.36-0.922-0.52-0.238-0.078-0.625-0.199-1.16-0.359-0.746-1.172-1.828-1.879-3.239-2.121-0.269-0.024-0.363 0.043-0.281 0.203 0.238 0.453 0.586 0.824 1.039 1.117 0.348 0.242 0.813 0.453 1.403 0.641h-0.122c-0.242-0.028-0.425-0.012-0.558 0.039-0.242 0.109-0.402 0.176-0.481 0.203-0.136 0.051-0.308 0.094-0.519 0.117-0.082 0.028-0.121 0.055-0.121 0.082v0.16c-0.348-0.109-0.656-0.16-0.922-0.16-0.348 0-0.68 0.067-1 0.199-0.051 0.028-0.078 0.067-0.078 0.122l0.039 0.078c-1.387-0.907-2.305-1.2-2.762-0.879l-0.039 0.039c-0.027 0.105-0.066 0.226-0.117 0.359-0.055 0.215-0.094 0.36-0.121 0.442v0.039l0.238 0.121c0.215 0.133 0.387 0.277 0.52 0.437zm4.722 10.68c0.133 0.082 0.293 0.121 0.481 0.121 0.211 0 0.371-0.039 0.476-0.121 0.27-0.184 0.282-0.481 0.043-0.879-0.027-0.055-0.043-0.105-0.043-0.16 0.082 0.187 0.203 0.375 0.364 0.558 0.05 0.082 0.144 0.137 0.277 0.161 0.133 0.027 0.242 0.015 0.32-0.039 0.188-0.133 0.414-0.227 0.68-0.282h0.723c0.183 0 0.226-0.05 0.117-0.156-0.106-0.109-0.227-0.16-0.36-0.16-0.398 0-0.64 0.012-0.718 0.039-0.243 0-0.469 0.039-0.68 0.121-0.242-0.32-0.453-0.551-0.641-0.684-0.265-0.16-0.601-0.21-1-0.16-0.027 0-0.054 0.016-0.082 0.043-0.023 0.024-0.023 0.067 0 0.117 0.321 0.348 0.508 0.618 0.563 0.801 0.051 0.188 0.027 0.309-0.082 0.36-0.106 0.054-0.211 0.015-0.321-0.118l-0.238-0.32c-0.238-0.242-0.492-0.308-0.762-0.199-0.023-0.109-0.144-0.176-0.359-0.203-0.184-0.024-0.277 0.015-0.277 0.121 0.05 0.215 0.133 0.387 0.238 0.519 0.055 0.055 0.145 0.094 0.281 0.121 0.16 0.051 0.266 0.051 0.321 0 0.05-0.082 0.078-0.16 0.078-0.242 0 0.028 0.015 0.055 0.039 0.082l0.16 0.239c0.133 0.16 0.266 0.269 0.402 0.32zm-4.801 5.203c-0.265-0.137-0.613-0.176-1.039-0.121h-0.043c-0.238-0.32-0.398-0.668-0.476-1.039l-0.121-0.363c-0.028-0.133-0.149-0.211-0.36-0.239-0.214-0.027-0.308 0.039-0.281 0.2 0.16 0.668 0.133 1.054-0.082 1.16-0.133 0.054-0.504 0-1.117-0.16-0.082-0.028-0.16-0.028-0.242 0-0.106 0.027-0.16 0.082-0.16 0.16l0.082 0.281c-0.266-0.133-0.52-0.188-0.762-0.16 0.109 0.027 0.359 0.281 0.762 0.758l0.199 0.281c0.187 0.48 0.453 0.949 0.801 1.398 0.054 0.082 0.171 0.137 0.359 0.16 0.188 0.028 0.266-0.023 0.238-0.16-0.211-0.691-0.543-1.277-1-1.758 0.028-0.242 0.254-0.308 0.684-0.199 0.105 0.024 0.25 0.012 0.437-0.043 0.215-0.078 0.348-0.117 0.403-0.117l0.078-0.039c0.187 0.266 0.348 0.477 0.48 0.637 0.078 0.054 0.2 0.094 0.36 0.121 0.16 0 0.242-0.067 0.242-0.199-0.027-0.321 0.117-0.36 0.437-0.121 0.215 0.187 0.414 0.414 0.602 0.679 0.051 0.082 0.172 0.121 0.359 0.121 0.188 0 0.254-0.066 0.2-0.199 0-0.027-0.094-0.242-0.282-0.641-0.105-0.242-0.172-0.453-0.199-0.64-0.051-0.32 0.133-0.481 0.563-0.481 0.105 0 0.386 0.055 0.839 0.161 0.614 0.132 1.305 0.187 2.079 0.16 0.187 0 0.242-0.067 0.16-0.2-0.106-0.105-0.227-0.16-0.36-0.16-0.132 0-0.773-0.105-1.922-0.32-0.824-0.16-1.453-0.121-1.878 0.121-0.188 0.106-0.2 0.426-0.04 0.961zm-6.199-0.363c-0.027 0.109 0.067 0.187 0.278 0.242l0.882 0.398c0.079 0.055 0.211 0.082 0.399 0.082 0.187-0.027 0.238-0.093 0.16-0.203-0.055-0.078-0.105-0.156-0.16-0.238-0.051-0.105-0.067-0.172-0.039-0.199-0.055 0-0.16 0.027-0.321 0.078-0.242-0.133-0.519-0.238-0.839-0.32-0.188-0.024-0.309 0.027-0.36 0.16zm13.199-14.481c0.215 0.028 0.293 0 0.239-0.078-0.266-0.426-0.586-0.558-0.957-0.398l-0.043 0.039c0 0.078 0.015 0.148 0.043 0.199 0.05 0.082 0.093 0.148 0.117 0.199 0.027 0.082 0.148 0.149 0.359 0.199h0.203c0.079 0 0.106-0.023 0.079-0.078l-0.04-0.082zm-6.679-0.558v0.039c0.027 0.16-0.028 0.308-0.16 0.441 0.054 0.028 0.105 0.067 0.16 0.121 0.558 0.481 1.226 0.852 2 1.117 0.16 0.055 0.293 0.055 0.398 0 0.106-0.05 0.055-0.117-0.16-0.199-0.559-0.215-1.066-0.48-1.519-0.801-0.321-0.238-0.559-0.476-0.719-0.718zm4.48 0.761c0.051 0.024 0.16 0.067 0.321 0.118 0.132 0.054 0.238 0.043 0.32-0.039 0.078-0.055 0.105-0.122 0.078-0.2 0.188-0.027 0.254-0.121 0.199-0.281-0.054-0.133-0.16-0.215-0.32-0.238-0.184-0.028-0.32-0.043-0.399-0.043-0.16 0.027-0.292 0.094-0.402 0.203-0.023 0.051-0.023 0.117 0 0.199 0.027 0.133 0.094 0.227 0.203 0.281zm-0.281-4.043c-0.238-0.425 0.039-0.371 0.84 0.161 0.801 0.535 1.148 0.906 1.039 1.121-0.984-0.321-1.613-0.746-1.879-1.282z" inkscape:connector-curvature="0"/>
      <path id="path68" style="fill-rule:evenodd;fill:#e0d6b6" d="m13.602 22.239 1.199-0.039c0.051 0 0.133 0.028 0.238 0.079 0.082 0 0.309 0.066 0.68 0.199l1 0.043c-0.024-0.137-0.094-0.282-0.199-0.442-0.055-0.105-0.133-0.254-0.239-0.441-0.082-0.16-0.226-0.399-0.441-0.719-0.16-0.265-0.281-0.508-0.36-0.719h-0.121c-0.187-0.054-0.304-0.121-0.359-0.203-0.266-0.238-0.492-0.531-0.68-0.879h-0.16c-0.265-0.054-0.453 0.028-0.558 0.243-0.028 0.05-0.067 0.144-0.122 0.277 0.239 0.293 0.493 0.562 0.758 0.801 0.348 0.32 0.617 0.558 0.801 0.718 0.293 0.297 0.52 0.575 0.68 0.84l-2.399 0.043c-0.453-0.16-1.039-0.426-1.761-0.801-0.051-0.027-0.184-0.082-0.399-0.16-0.215-0.105-0.348-0.215-0.398-0.32-0.028-0.078-0.016-0.199 0.039-0.359v-0.082c-0.028-0.028 0-0.039 0.078-0.039 0.055-0.106 0.121-0.254 0.199-0.438 0.082-0.109 0.176-0.254 0.281-0.441 0-0.028 0.016-0.039 0.039-0.039-0.05-0.243-0.132-0.586-0.238-1.043h-0.039c-0.133 0.054-0.226 0.082-0.281 0.082-0.106 0-0.188-0.039-0.238-0.121-0.028-0.051-0.055-0.118-0.082-0.2-1.012 0.243-1.774 0.414-2.282 0.52l-0.957 0.16-0.359 0.359v0.161c0 0.453-0.016 0.894-0.043 1.32v0.441c0 0.051-0.012 0.094-0.039 0.117h0.039c0.293-0.105 0.496-0.16 0.601-0.16 0.051-0.023 0.122-0.023 0.2 0h0.199c0.988 0.16 2.16 0.387 3.519 0.684 0.215 0.051 0.575 0.144 1.082 0.277 0.481 0.133 0.852 0.227 1.122 0.281zm-1.122-3.121h0.122c-0.11-0.078-0.215-0.199-0.321-0.359-0.109-0.16-0.187-0.375-0.242-0.641-0.027-0.05-0.039-0.121-0.039-0.199h-0.078l-0.242 0.238c-0.055 0.028-0.133 0.055-0.239 0.082 0.184 0.055 0.305 0.106 0.36 0.161 0.16 0.105 0.332 0.293 0.519 0.558l0.16 0.16zm1.481-1.039c-0.055 0.239-0.172 0.481-0.359 0.719 0.132 0 0.265 0.016 0.398 0.039 0.078 0.027 0.16 0.055 0.238 0.082l-0.16-0.32c-0.023-0.082 0.067-0.106 0.281-0.082h0.161l-0.122-0.117-0.117-0.243c-0.027-0.027-0.066-0.066-0.121-0.117-0.082 0.028-0.148 0.039-0.199 0.039z" inkscape:connector-curvature="0"/>
      <path id="path70" style="fill-rule:evenodd;fill:#ede4ca" d="m24 19.798 1.398-0.918c0.028-0.133 0.043-0.336 0.043-0.601-0.269-0.055-0.414-0.082-0.441-0.082-0.293-0.051-0.375 0.175-0.238 0.683 0.027 0.106-0.067 0.133-0.282 0.078-0.214-0.027-0.335-0.078-0.359-0.16-0.16-0.586-0.043-0.906 0.359-0.961 0.188 0 0.399 0.027 0.641 0.082 0.133 0.028 0.238 0.055 0.32 0.078v-0.156l-0.679-0.16c-0.375-0.109-0.989-0.348-1.84-0.723-0.242-0.133-0.414-0.211-0.524-0.238-0.078-0.027-0.226 0-0.437 0.078-0.293 0.055-0.723 0.137-1.281 0.242-0.559 0.133-0.973 0.227-1.239 0.282-0.402 0.078-0.679 0.117-0.839 0.117-0.028 0.054-0.028 0.121 0 0.203 0.05 0.183 0.183 0.465 0.398 0.84 0.078 0.16 0.133 0.293 0.16 0.398 0.106 0 0.227 0.039 0.36 0.121 0.16 0.133 0.16 0.199 0 0.199h-0.161l0.082 0.079c0.024 0.027 0.067 0.054 0.118 0.082h0.121c0.132 0 0.347 0.078 0.64 0.238s0.586 0.293 0.879 0.402c0.028-0.082 0.133-0.094 0.321-0.043 0.054 0 0.132 0.016 0.242 0.043 0.027-0.402-0.067-0.84-0.282-1.32-0.16-0.402-0.402-0.774-0.718-1.121-0.028-0.078-0.043-0.133-0.043-0.16 0-0.051 0.043-0.094 0.121-0.118 0.988-0.242 1.84 0.012 2.558 0.758 0.563 0.532 0.762 1.117 0.602 1.758zm-3.879-0.641c-0.215-0.05-0.402-0.144-0.562-0.277-0.161-0.16-0.145-0.281 0.043-0.359 0.16-0.11 0.304-0.094 0.437 0.039 0.027 0.078 0.082 0.105 0.16 0.078 0.133-0.078 0.293-0.066 0.481 0.043 0.16 0.133 0.16 0.25 0 0.359-0.188 0.106-0.375 0.145-0.559 0.117zm2.879 1.282c0-0.028 0.012-0.039 0.039-0.039 0.426-0.668 0.453-1.321 0.082-1.961-0.375-0.614-0.922-0.879-1.641-0.801 0.747 0.988 1.067 1.883 0.961 2.684l-0.043 0.039c0.297 0.078 0.481 0.117 0.563 0.117l0.039-0.039z" inkscape:connector-curvature="0"/>
      <path id="path72" style="fill-rule:evenodd;fill:#dbd5b8" d="m4.48 31.079c-0.027 0.215-0.054 0.426-0.082 0.641h0.043c0.985-0.563 2.278-1.066 3.879-1.52 0.719-0.214 1.414-0.402 2.078-0.562 0.055 0 0.11-0.012 0.161-0.039-0.051-0.16-0.106-0.32-0.161-0.481-0.933-0.293-1.863-0.531-2.796-0.718l-1.762-0.243-0.281 0.082-0.321 0.079c-0.238 0.695-0.426 1.269-0.558 1.722l-0.078 0.438c-0.055 0.215-0.094 0.414-0.122 0.601zm6.598-1.8c0 0.082 0.016 0.16 0.043 0.242 0.133-0.028 0.238-0.028 0.32 0-0.109-0.11-0.226-0.188-0.363-0.242z" inkscape:connector-curvature="0"/>
      <g id="g74">
        <g id="g76">
          <g id="g82">
            <path id="path90" style="fill-rule:evenodd;fill:url(#linearGradient84)" d="m15.879 18.56c0.082-0.055 0.121-0.133 0.121-0.242v-0.84c0-0.133-0.027-0.254-0.078-0.36l-0.082-0.238c-0.188 0.266-0.399 0.492-0.641 0.68-0.32 0.238-0.664 0.398-1.039 0.48l0.121 0.117c0.078 0.082 0.145 0.137 0.199 0.161 0.106 0.109 0.227 0.187 0.36 0.242h0.082c0.105 0.027 0.277 0.039 0.519 0.039l0.2 0.039h0.16c0.054-0.024 0.078-0.051 0.078-0.078zm1.562-2.039c0.024-0.028 0.051-0.055 0.079-0.082v-0.121c0-0.426-0.172-0.786-0.52-1.079-0.055-0.027-0.16-0.132-0.32-0.32-0.078 0.32-0.172 0.625-0.282 0.918-0.105 0.27-0.21 0.508-0.32 0.723 0.027-0.028 0.067-0.043 0.121-0.043h0.082c0.16 0.027 0.371 0.043 0.641 0.043 0.211 0.023 0.371 0.012 0.476-0.043h0.043v0.004zm-7.722-0.922c-0.024 0.055-0.067 0.121-0.117 0.199-0.082 0.188-0.137 0.32-0.161 0.402 0 0.079-0.015 0.2-0.043 0.36v0.121c0 0.105 0.016 0.183 0.043 0.238 0.024 0.082 0.079 0.133 0.161 0.16 0.105 0.028 0.25 0.028 0.437 0 0.188 0 0.336-0.027 0.441-0.082h0.04c-0.055 0.297-0.067 0.496-0.04 0.602 0 0.16 0.012 0.281 0.04 0.359v0.121c0.027 0.078 0.054 0.145 0.082 0.2 0.05 0.082 0.132 0.121 0.238 0.121 0.055 0 0.148-0.028 0.281-0.082h0.039c0.078 0 0.149-0.012 0.199-0.039 0.055-0.028 0.094-0.055 0.121-0.082l0.399-0.399c-0.774-0.32-1.399-0.879-1.879-1.68-0.105-0.16-0.199-0.332-0.281-0.519zm2.281 2.242v0.078c0 0.082 0.012 0.149 0.039 0.199 0.055 0.27 0.133 0.481 0.242 0.641 0.106 0.16 0.211 0.281 0.321 0.359 0.05 0.082 0.105 0.137 0.16 0.161 0.027 0.027 0.066 0.043 0.117 0.043 0.082 0.023 0.148 0.011 0.199-0.043 0-0.024 0.082-0.118 0.242-0.278 0.188-0.215 0.305-0.414 0.36-0.601 0.027-0.078 0.054-0.172 0.082-0.282h-0.403c-0.504-0.027-0.961-0.121-1.359-0.277zm-2.641-3.562c-0.05 0.054-0.187 0.132-0.398 0.242-0.188 0.133-0.32 0.25-0.402 0.359 0 0.027-0.012 0.051-0.039 0.078v0.082c0 0.051 0.105 0.133 0.32 0.239 0.082 0.027 0.238 0.043 0.48 0.043 0.106 0 0.215 0.011 0.321 0.039-0.133-0.348-0.227-0.707-0.282-1.082zm0-0.36c0-0.426 0.055-0.867 0.161-1.32l-0.02 0.019c-0.102 0.043-0.215 0.075-0.34 0.102h-0.16c-0.133 0.051-0.227 0.094-0.281 0.117-0.106 0.11-0.133 0.227-0.078 0.36 0.054 0.109 0.132 0.214 0.238 0.32 0.215 0.191 0.375 0.324 0.48 0.402zm1.082-3.398c-0.214-0.028-0.386-0.043-0.519-0.043h-0.203c-0.184 0.027-0.321 0.094-0.399 0.203-0.082 0.133-0.121 0.277-0.121 0.437-0.027 0.188-0.011 0.348 0.039 0.481 0.16 0.187 0.282 0.348 0.364 0.48 0 0.028 0.011 0.055 0.039 0.082 0.054-0.136 0.105-0.269 0.16-0.402 0.16-0.48 0.371-0.895 0.64-1.238zm1.321-1.16-0.203-0.204c-0.239-0.16-0.52-0.226-0.84-0.199-0.051 0-0.094 0.016-0.117 0.039-0.028 0-0.055 0.016-0.082 0.043v0.399c-0.028 0.269-0.04 0.425-0.04 0.48s0.028 0.16 0.079 0.32v0.122c0.347-0.43 0.746-0.762 1.203-1zm2.238-0.321c-0.027-0.054-0.055-0.109-0.078-0.16-0.055-0.133-0.094-0.226-0.121-0.281l-0.082-0.117c-0.051 0.023-0.117 0.039-0.199 0.039-0.426 0.027-0.813 0.051-1.161 0.078-0.027 0.082-0.066 0.176-0.121 0.281-0.05 0.133-0.093 0.242-0.117 0.32 0.266-0.082 0.547-0.148 0.84-0.199 0.344-0.054 0.691-0.043 1.039 0.039zm0.84-0.679h-0.121c-0.266 0.211-0.453 0.398-0.559 0.558-0.027 0.055-0.055 0.094-0.082 0.121 0.215 0.051 0.43 0.133 0.641 0.239 0.347 0.187 0.656 0.425 0.922 0.718-0.028-0.105-0.028-0.238 0-0.398 0.027-0.266 0.011-0.481-0.039-0.641 0-0.051-0.016-0.148-0.043-0.281-0.024-0.133-0.051-0.238-0.079-0.32h-0.64v0.004zm1.121 1.757h-0.039c-0.055 0.028-0.11 0.039-0.16 0.039l0.238 0.481c0.293 0.586 0.508 1.16 0.641 1.723 0.027-0.082 0.054-0.204 0.078-0.364 0.054-0.183 0.109-0.332 0.16-0.437 0.055-0.082 0.121-0.176 0.199-0.281 0.055-0.055 0.137-0.133 0.242-0.239 0.133-0.109 0.227-0.242 0.282-0.402-0.028-0.051-0.055-0.078-0.082-0.078 0-0.028-0.028-0.055-0.079-0.082-0.109-0.082-0.242-0.16-0.402-0.239-0.027 0-0.172-0.054-0.437-0.16-0.188-0.054-0.403-0.039-0.641 0.039zm0.801 4.403c0.105-0.082 0.265-0.203 0.476-0.364 0.27-0.16 0.387-0.371 0.364-0.636-0.028-0.11-0.11-0.27-0.243-0.481-0.105-0.16-0.281-0.308-0.519-0.441-0.078-0.055-0.133-0.094-0.16-0.121 0.132 0.695 0.16 1.375 0.082 2.043z" inkscape:connector-curvature="0"/>
          </g>
        </g>
      </g>
      <path id="path92" style="fill-rule:evenodd;fill:#4b571b" d="m16.199 16.521c-0.054 0-0.094 0.011-0.121 0.039-0.078 0.105-0.156 0.215-0.238 0.32l0.082 0.238c0.051 0.106 0.078 0.227 0.078 0.36v0.84c0 0.109-0.039 0.187-0.121 0.242h0.121c0.105-0.028 0.172-0.133 0.199-0.321v-0.8c0-0.16-0.027-0.293-0.078-0.399l-0.121-0.199c0.078-0.082 0.145-0.187 0.199-0.32zm1.602-3.082c-0.106-0.16-0.188-0.321-0.242-0.481-0.133-0.16-0.305-0.304-0.52-0.437l-0.238-0.121v-0.039c0.027-0.082 0.066-0.227 0.121-0.442 0.051-0.133 0.09-0.254 0.117-0.359l0.039-0.039c0.055-0.11 0.121-0.203 0.203-0.282 0.051-0.054 0.133-0.148 0.239-0.281 0.132-0.105 0.214-0.226 0.242-0.359 0-0.055-0.016-0.094-0.043-0.121l-0.078-0.039c-0.106-0.106-0.243-0.188-0.403-0.242-0.05-0.024-0.199-0.079-0.437-0.157-0.082-0.027-0.16-0.043-0.242-0.043h-0.079c-0.16 0-0.335 0.043-0.519 0.121 0.238-0.082 0.453-0.093 0.641-0.039 0.265 0.106 0.41 0.16 0.437 0.16 0.16 0.079 0.293 0.157 0.402 0.239 0.051 0.027 0.079 0.054 0.079 0.082 0.027 0 0.054 0.023 0.082 0.078-0.055 0.16-0.149 0.293-0.282 0.402-0.105 0.106-0.187 0.184-0.242 0.239-0.078 0.105-0.144 0.199-0.199 0.281-0.051 0.105-0.106 0.254-0.16 0.437-0.024 0.16-0.051 0.282-0.078 0.364 0 0.05 0.011 0.089 0.039 0.117 0.027 0.027 0.082 0.066 0.16 0.121 0.238 0.133 0.414 0.281 0.519 0.441 0.133 0.211 0.215 0.371 0.243 0.481 0.023 0.265-0.094 0.476-0.364 0.636-0.211 0.161-0.371 0.282-0.476 0.364-0.028 0.133-0.055 0.265-0.082 0.398 0.16 0.188 0.265 0.293 0.32 0.32 0.348 0.293 0.52 0.653 0.52 1.079v0.121c-0.028 0.027-0.055 0.054-0.079 0.082 0.051-0.028 0.106-0.039 0.161-0.039 0.05-0.028 0.093-0.055 0.117-0.082v-0.161c0-0.187-0.051-0.375-0.16-0.558-0.079-0.16-0.184-0.309-0.321-0.442-0.023 0-0.05-0.015-0.078-0.039-0.055-0.054-0.16-0.175-0.32-0.359l0.082-0.359 0.519-0.364c0.079-0.05 0.145-0.117 0.2-0.199 0.132-0.133 0.187-0.281 0.16-0.437v-0.043zm-5.922 4.359-0.399 0.402c-0.027 0.024-0.066 0.051-0.121 0.079 0.028 0 0.055-0.012 0.082-0.04 0.106-0.027 0.184-0.054 0.239-0.082l0.242-0.238c0.023-0.027 0.051-0.055 0.078-0.082-0.055 0.004-0.094-0.012-0.121-0.039zm1.723 1c0.183-0.238 0.304-0.48 0.359-0.719-0.055 0.028-0.121 0.039-0.199 0.039-0.028 0.11-0.055 0.204-0.082 0.282-0.055 0.187-0.172 0.386-0.36 0.601-0.16 0.16-0.242 0.254-0.242 0.278 0.082 0 0.149-0.024 0.203-0.079 0.051-0.054 0.133-0.148 0.239-0.281 0.027-0.027 0.054-0.066 0.082-0.121zm-3.883-8.32h0.203c0.133 0 0.305 0.015 0.519 0.043l0.039-0.043c-0.187-0.051-0.335-0.078-0.441-0.078h-0.078c-0.082 0.027-0.16 0.05-0.242 0.078zm2.242-1.199c-0.055-0.028-0.121-0.082-0.199-0.161-0.11-0.078-0.227-0.132-0.364-0.16-0.16-0.051-0.32-0.066-0.476-0.039h-0.121c-0.028 0-0.055 0.012-0.082 0.039 0.32-0.027 0.601 0.039 0.84 0.199l0.203 0.204c0.05-0.028 0.117-0.055 0.199-0.082zm2.199-0.36c-0.055-0.105-0.105-0.238-0.16-0.398l-0.078-0.082c-0.027 0.027-0.067 0.043-0.121 0.043h-0.082l0.082 0.117c0.027 0.055 0.066 0.148 0.121 0.281 0.023 0.051 0.051 0.106 0.078 0.16h0.078c0.027-0.027 0.055-0.066 0.082-0.121zm1.602 1.238c0.05 0 0.105-0.011 0.16-0.039l-0.082-0.121c-0.028-0.078-0.028-0.265 0-0.558 0-0.215-0.012-0.387-0.039-0.52-0.082-0.371-0.121-0.574-0.121-0.597h-0.758c-0.027 0.023-0.055 0.039-0.082 0.039h0.64c0.028 0.078 0.051 0.187 0.079 0.32 0.027 0.133 0.043 0.226 0.043 0.277 0.05 0.16 0.066 0.375 0.039 0.641-0.028 0.16-0.028 0.293 0 0.402 0.027 0.051 0.066 0.106 0.121 0.156zm-6.762 2.563h0.16c0.125-0.027 0.238-0.059 0.34-0.102-0.051 0.016-0.109 0.02-0.18 0.02-0.132 0.027-0.242 0.055-0.32 0.082z" inkscape:connector-curvature="0"/>
      <g id="g94">
        <g id="g96">
          <g id="g102">
            <path id="path110" style="fill-rule:evenodd;fill:url(#linearGradient104)" d="m13.961 18.079c0.051 0 0.117-0.015 0.199-0.039 0.375-0.082 0.719-0.242 1.039-0.48 0.242-0.188 0.453-0.414 0.641-0.68 0.082-0.109 0.16-0.215 0.238-0.32 0.11-0.215 0.215-0.453 0.32-0.723 0.11-0.293 0.204-0.598 0.282-0.918 0.027-0.133 0.054-0.265 0.082-0.398 0.078-0.668 0.05-1.348-0.082-2.043-0.028-0.028-0.039-0.067-0.039-0.117-0.133-0.563-0.348-1.137-0.641-1.723-0.078-0.156-0.16-0.316-0.238-0.481-0.055-0.05-0.094-0.105-0.121-0.16-0.266-0.289-0.575-0.531-0.922-0.718-0.211-0.106-0.426-0.184-0.641-0.239h-0.078c-0.348-0.082-0.695-0.093-1.039-0.043-0.293 0.055-0.574 0.121-0.84 0.203-0.055 0.024-0.109 0.051-0.16 0.079-0.082 0.027-0.149 0.054-0.199 0.082-0.453 0.238-0.856 0.574-1.203 1-0.024 0.027-0.051 0.066-0.079 0.121l-0.039 0.039c-0.269 0.347-0.48 0.758-0.64 1.238-0.055 0.133-0.106 0.266-0.16 0.402-0.055 0.133-0.094 0.278-0.121 0.438-0.106 0.453-0.161 0.894-0.161 1.32v0.36c0.055 0.375 0.149 0.734 0.282 1.082 0.027 0.078 0.054 0.16 0.078 0.238 0.082 0.187 0.176 0.359 0.281 0.519 0.48 0.801 1.105 1.364 1.879 1.68 0.027 0.027 0.066 0.043 0.121 0.043 0.398 0.16 0.852 0.254 1.359 0.281h0.403c0.078-0.004 0.144-0.015 0.199-0.043zm-0.121-0.359c-0.215 0.051-0.426 0.078-0.641 0.078-1.359-0.078-2.371-0.707-3.039-1.879-0.719-1.199-0.785-2.558-0.199-4.082 0.586-1.492 1.547-2.344 2.879-2.558 0.586-0.082 1.121 0.015 1.601 0.281 0.532 0.265 0.918 0.691 1.161 1.281 0.796 1.707 0.918 3.316 0.359 4.84-0.266 0.664-0.641 1.183-1.121 1.558-0.293 0.239-0.625 0.399-1 0.481z" inkscape:connector-curvature="0"/>
          </g>
        </g>
      </g>
      <g id="g112">
        <g id="g114">
          <g id="g120">
            <path id="path128" style="fill-rule:evenodd;fill:url(#linearGradient122)" d="m13.84 17.72c0.375-0.082 0.707-0.242 1-0.481 0.48-0.375 0.855-0.894 1.121-1.558 0.559-1.524 0.437-3.137-0.359-4.844-0.243-0.586-0.629-1.012-1.161-1.277-0.48-0.27-1.015-0.363-1.601-0.281-1.332 0.214-2.293 1.066-2.879 2.558-0.586 1.52-0.52 2.883 0.199 4.082 0.668 1.172 1.68 1.801 3.039 1.879 0.215 0 0.426-0.023 0.641-0.078zm-0.719-0.199c-1.226-0.055-2.148-0.629-2.762-1.723-0.64-1.117-0.691-2.398-0.16-3.84 0.535-1.414 1.403-2.211 2.602-2.398 0.531-0.082 1.027 0 1.48 0.238 0.453 0.27 0.797 0.668 1.039 1.199 0.719 1.602 0.825 3.121 0.321 4.563-0.508 1.387-1.348 2.039-2.52 1.961z" inkscape:connector-curvature="0"/>
          </g>
        </g>
      </g>
      <g id="g130">
        <g id="g132">
          <g id="g138">
            <path id="path146" style="fill-rule:evenodd;fill:url(#linearGradient140)" d="m13.199 14.439 0.321-0.039-0.079-1.481c0-0.16 0.067-0.238 0.2-0.238 0.16 0 0.238 0.078 0.238 0.238l0.082 1.481h0.32c0.133-0.028 0.199 0.027 0.199 0.16 0.028 0.051 0.012 0.105-0.039 0.16-0.027 0.027-0.066 0.039-0.121 0.039l-1.121 0.082c-0.133 0-0.199-0.066-0.199-0.203-0.027-0.133 0.039-0.199 0.199-0.199zm-0.48 0c0.109 0 0.176 0.066 0.203 0.199 0 0.137-0.067 0.203-0.203 0.203l-1.078 0.039c-0.133 0-0.2-0.066-0.2-0.199s0.051-0.199 0.161-0.199h0.32l-0.043-1.485c-0.024-0.156 0.043-0.238 0.199-0.238 0.137-0.027 0.215 0.039 0.242 0.199l0.039 1.481h0.36zm2.402 1.082c0 0.051-0.016 0.09-0.043 0.117-0.051 0.055-0.105 0.082-0.156 0.082l-3.723 0.121c-0.054 0-0.105-0.016-0.16-0.043-0.027-0.051-0.051-0.105-0.078-0.16l0.199-0.316c0.055-0.137 0.149-0.204 0.281-0.204l3.161-0.117c0.132 0 0.238 0.051 0.32 0.16l0.199 0.36zm-2 2c1.172 0.078 2.012-0.574 2.52-1.961 0.504-1.442 0.398-2.961-0.321-4.563-0.242-0.531-0.586-0.929-1.039-1.199-0.453-0.238-0.949-0.32-1.48-0.238-1.199 0.187-2.067 0.984-2.602 2.398-0.531 1.442-0.48 2.723 0.16 3.84 0.614 1.094 1.536 1.668 2.762 1.723zm-2.32-5.524c0-0.05 0.011-0.09 0.039-0.117 0.055-0.055 0.105-0.082 0.16-0.082l3.719-0.16c0.054 0 0.109 0.016 0.16 0.043 0.055 0.027 0.082 0.066 0.082 0.117l-0.199 0.359c-0.028 0.11-0.121 0.176-0.282 0.204l-3.199 0.117c-0.109 0.027-0.203-0.012-0.281-0.117l-0.199-0.364z" inkscape:connector-curvature="0"/>
          </g>
        </g>
      </g>
      <path id="path148" style="fill-rule:evenodd;fill:#606e23" d="m12.719 14.439h-0.36l-0.039-1.481c-0.027-0.16-0.105-0.226-0.242-0.199-0.156 0-0.226 0.082-0.199 0.238l0.043 1.485h-0.32c-0.11 0-0.161 0.066-0.161 0.199s0.067 0.199 0.2 0.199l1.078-0.039c0.136 0 0.203-0.066 0.203-0.203-0.027-0.133-0.094-0.199-0.203-0.199zm0.48 0c-0.16 0-0.226 0.066-0.199 0.199 0 0.137 0.066 0.203 0.199 0.203l1.121-0.082c0.055 0 0.094-0.012 0.121-0.039 0.051-0.055 0.067-0.109 0.039-0.16 0-0.133-0.066-0.188-0.199-0.16h-0.32l-0.082-1.481c0-0.16-0.078-0.238-0.238-0.238-0.133 0-0.2 0.078-0.2 0.238l0.079 1.481-0.321 0.039zm1.922 1.082-0.199-0.364c-0.082-0.105-0.188-0.16-0.32-0.16l-3.161 0.121c-0.136 0-0.226 0.067-0.281 0.2l-0.199 0.32c0.027 0.055 0.051 0.109 0.078 0.16 0.055 0.027 0.106 0.043 0.16 0.043l3.723-0.121c0.051 0 0.105-0.027 0.156-0.082 0.027-0.027 0.043-0.066 0.043-0.117zm-4.32-3.524 0.199 0.364c0.078 0.105 0.172 0.144 0.281 0.117l3.199-0.117c0.161-0.028 0.254-0.094 0.282-0.204l0.199-0.359c0-0.051-0.027-0.09-0.082-0.117-0.051-0.027-0.106-0.043-0.16-0.043l-3.719 0.16c-0.055 0-0.105 0.027-0.16 0.082-0.028 0.027-0.039 0.067-0.039 0.117z" inkscape:connector-curvature="0"/>
      <g id="g150">
        <g id="g152">
          <g id="g158">
            <path id="path166" style="fill-rule:evenodd;fill:url(#linearGradient160)" d="m11.398 8.958c0.137 0.028 0.254 0.082 0.364 0.16 0.078 0.082 0.144 0.133 0.199 0.161 0.051-0.028 0.105-0.055 0.16-0.082 0.024-0.079 0.067-0.184 0.117-0.317 0.055-0.109 0.094-0.199 0.121-0.281-0.347 0.027-0.664 0.051-0.961 0.082v0.277zm4.961-0.918-2.039 0.117 0.121 0.043v0.039c-0.027 0.028-0.054 0.04-0.082 0.04v0.043c-0.05 0.023-0.105 0.05-0.16 0.078l-0.16 0.039h-0.117l0.078 0.082c0.055 0.16 0.105 0.293 0.16 0.398 0.106-0.16 0.293-0.344 0.559-0.558h0.121c0.027 0 0.055-0.016 0.082-0.039h0.758c0 0.027 0.039 0.226 0.121 0.597 0.027 0.133 0.039 0.309 0.039 0.52-0.028 0.293-0.028 0.48 0 0.562l0.082 0.117h0.039c0.184-0.078 0.359-0.117 0.519-0.117v-0.402l-0.121-1.559z" inkscape:connector-curvature="0"/>
          </g>
        </g>
      </g>
      <path id="path168" style="fill-rule:evenodd;fill:#dfe866" d="m11.398 8.681c0.297-0.027 0.614-0.055 0.961-0.082 0.348-0.027 0.735-0.055 1.161-0.082 0.082 0 0.148-0.012 0.199-0.039h0.082c-0.16-0.082-0.266-0.199-0.321-0.36l-0.519 0.079c-0.402 0.027-0.895 0.042-1.481 0.042l-0.761-0.039c0.027 0.024 0.027 0.067 0 0.118v0.043c-0.051 0.078-0.145 0.117-0.278 0.117-0.375 0.054-0.695 0.082-0.961 0.082-0.16 0-0.308-0.028-0.441-0.082-0.184-0.028-0.332-0.094-0.437-0.199l-0.082-0.082c-0.188-0.266-0.375-0.758-0.559-1.477-0.082-0.297-0.149-0.574-0.199-0.84-0.028 0.051-0.055 0.09-0.082 0.117-0.055 0.641 0 1.227 0.16 1.762 0.055 0.211 0.133 0.398 0.238 0.559 0.055 0.078 0.11 0.16 0.16 0.238 0 0.027 0.016 0.043 0.043 0.043 0.106 0.133 0.278 0.211 0.52 0.238 0.265 0.082 0.597 0.082 1 0 0.187-0.027 0.679-0.078 1.48-0.16 0.024 0.004 0.067 0.004 0.117 0.004zm2.883-0.563-0.082-0.039-0.121-0.039 0.203 0.078z" inkscape:connector-curvature="0"/>
      <g id="g170">
        <g id="g172">
          <g id="g178">
            <path id="path186" style="fill-rule:evenodd;fill:url(#linearGradient180)" d="m25.039 5.157c0.188-0.293 0.414-0.546 0.68-0.757 0.535-0.481 1.121-0.868 1.761-1.161 0.106-0.054 0.227-0.105 0.36-0.16 0.215-0.054 0.398-0.105 0.558-0.16 0.082-0.027 0.161-0.039 0.243-0.039 0.05-0.027 0.105-0.039 0.16-0.039 0.105-0.027-2.215 0.133-6.961 0.481-0.668 0.05-3 0.277-7 0.679-0.106 0.051-0.227 0.172-0.36 0.36-0.269 0.347-0.441 0.824-0.519 1.437-0.055 0.617-0.027 1.203 0.078 1.762l0.082 0.281c0.613-0.027 1.238-0.066 1.879-0.121 0.746-0.027 1.48-0.051 2.199-0.078 1.039-0.055 2.039-0.094 3-0.121 0.879-0.028 1.735-0.039 2.559-0.039h0.883l-0.043-1c0.054-0.485 0.203-0.922 0.441-1.325zm-17.359 0.84c0-0.105 0.015-0.211 0.039-0.316l0.121-0.961c-1.52 0.16-3.172 0.32-4.961 0.48-0.16 0.028-0.359 0.106-0.598 0.239-0.508 0.269-1 0.668-1.48 1.203-0.453 0.531-0.723 1.183-0.801 1.957l0.039 1 0.199-0.121c1.364-0.293 2.883-0.547 4.563-0.758h0.039l0.558-0.082c0.028 0 0.067-0.012 0.122-0.039 0.906-0.133 1.761-0.227 2.558-0.281-0.105-0.161-0.183-0.348-0.238-0.559-0.16-0.535-0.215-1.121-0.16-1.762z" inkscape:connector-curvature="0"/>
          </g>
        </g>
      </g>
      <path id="path188" style="fill-rule:evenodd;fill:#fff8e0" d="m14.32 8.157 2.039-0.117c0.614-0.027 1.243-0.054 1.879-0.082 0.457-0.027 0.922-0.051 1.403-0.078 0.48 0 0.945-0.016 1.398-0.043 0.988-0.023 1.895-0.051 2.723-0.078 0.476-0.027 0.945-0.039 1.398-0.039l-0.398-0.16-0.121-0.082h-0.879c-0.828 0-1.684 0.015-2.563 0.039-0.961 0.027-1.961 0.066-3 0.121-0.719 0.027-1.453 0.055-2.199 0.082-0.641 0.051-1.266 0.09-1.879 0.117l0.078 0.242 0.082 0.039 0.039 0.039zm-9.398 0.801c0.293-0.051 0.586-0.094 0.879-0.117 0.801-0.109 1.613-0.203 2.437-0.281-0.05-0.082-0.105-0.16-0.16-0.242-0.797 0.054-1.652 0.148-2.558 0.281-0.055 0.027-0.094 0.039-0.122 0.039l-0.558 0.082h-0.039c-1.68 0.215-3.199 0.465-4.563 0.762l-0.199 0.117 0.402 0.16 2.2-0.441c0.746-0.133 1.504-0.25 2.281-0.36z" inkscape:connector-curvature="0"/>
      <path id="path190" style="fill-rule:evenodd;fill:#697529" d="m13 0.079v0.961c-0.027 0.399-0.055 0.84-0.078 1.317-0.027 0.136-0.043 0.269-0.043 0.402-0.027 0.426-0.027 0.879 0 1.359 0 0.481 0.043 0.973 0.121 1.481 0.027 0.16 0.055 0.308 0.078 0.441 0.137 0.692 0.227 1.211 0.281 1.559v0.199c0.028 0.109 0.067 0.215 0.121 0.32 0.051 0.161 0.161 0.282 0.321 0.36 0.051 0 0.094-0.012 0.121-0.039h0.117l0.16-0.043c0.055-0.024 0.106-0.051 0.16-0.078v-0.039c0.028 0 0.055-0.016 0.082-0.043v-0.039l-0.121-0.04-0.039-0.039-0.203-0.078-0.117-0.043c-0.055-0.023-0.094-0.078-0.121-0.156-0.028-0.055-0.051-0.133-0.078-0.242-0.028-0.106-0.067-0.254-0.121-0.442l-0.082-0.398c-0.024-0.105-0.039-0.215-0.039-0.32l-0.04-0.239v-0.082c-0.027 0-0.039-0.011-0.039-0.039v-0.121l-0.16-1.359v-0.438l0.078-1.722v-0.078l0.039-0.719v-0.563l0.043-1.078c-0.054 0.024-0.109 0.039-0.16 0.039l-0.281 0.039zm-5.199 0.801c0.531 0.211 1.105 0.359 1.719 0.438 0.32 0.054 0.585 0.082 0.8 0.082l0.2-0.321c-0.133-0.027-0.426-0.039-0.879-0.039-0.266 0-0.668-0.054-1.2-0.16l-0.679-0.121c0 0.027 0.011 0.066 0.039 0.121z" inkscape:connector-curvature="0"/>
      <g id="g192">
        <g id="g194">
          <g id="g200">
            <path id="path208" style="fill-rule:evenodd;fill:url(#linearGradient202)" d="m14.199 8.079-0.078-0.242-0.082-0.277c-0.105-0.563-0.133-1.149-0.078-1.762 0.078-0.613 0.254-1.094 0.519-1.441 0.133-0.184 0.254-0.305 0.36-0.36-0.453 0.028-0.906 0.067-1.36 0.121-0.082 0-0.148 0.012-0.199 0.039v0.442l0.16 1.359v0.121c0 0.028 0.012 0.039 0.039 0.039v0.079l0.04 0.242c0 0.105 0.015 0.215 0.039 0.32l0.082 0.398c0.054 0.188 0.093 0.336 0.121 0.442 0.027 0.105 0.05 0.187 0.078 0.238 0.027 0.082 0.066 0.137 0.121 0.16l0.117 0.043 0.121 0.039z" inkscape:connector-curvature="0"/>
          </g>
        </g>
      </g>
      <g id="g210">
        <g id="g212">
          <g id="g218">
            <path id="path226" style="fill-rule:evenodd;fill:url(#linearGradient220)" d="m13.359 7.599h-2.238c-0.453 0-0.789-0.012-1-0.039-0.133 0-0.199-0.028-0.199-0.082-0.055-0.106 0.039-0.199 0.277-0.281 0.746-0.372 1.242-0.598 1.481-0.68 0.453-0.184 0.922-0.344 1.398-0.481-0.023-0.132-0.051-0.277-0.078-0.437-0.078-0.508-0.121-1-0.121-1.481-0.133-0.027-0.238-0.054-0.32-0.082-0.211-0.05-0.454-0.093-0.719-0.117h-0.16c-0.028-0.027-0.039-0.07-0.039-0.121-0.082-0.16-0.254-0.348-0.52-0.559-0.109-0.054-0.215-0.082-0.32-0.082-0.055-0.027-0.176-0.027-0.36 0-0.242 0-0.414 0.016-0.519 0.04-0.215 0.054-0.375 0.132-0.481 0.242-0.214 0.183-0.347 0.519-0.402 1v0.277c-0.027 0.109-0.066 0.176-0.117 0.203-0.188 0.106-0.32 0.184-0.402 0.238-0.161 0.082-0.293 0.172-0.399 0.282-0.16 0.183-0.281 0.332-0.359 0.441 0.05 0.266 0.117 0.543 0.199 0.84 0.184 0.719 0.371 1.211 0.559 1.477l0.082 0.082c0.105 0.105 0.25 0.171 0.437 0.199 0.133 0.054 0.281 0.082 0.441 0.082 0.266 0 0.586-0.028 0.961-0.082 0.133 0 0.227-0.039 0.278-0.117v-0.043c0.027-0.051 0.027-0.094 0-0.118l0.761 0.039c0.586 0 1.079-0.015 1.481-0.039l0.519-0.082c-0.054-0.105-0.093-0.211-0.121-0.32v-0.199z" inkscape:connector-curvature="0"/>
          </g>
        </g>
      </g>
      <path id="path228" style="fill-rule:evenodd;fill:#929937" d="m12.922 2.361c-0.188 0-0.402 0.011-0.641 0.039-0.48 0.027-0.84 0.05-1.082 0.082-0.187 0.023-0.492 0.039-0.918 0.039h-0.84c-0.109-0.028-0.253-0.067-0.441-0.121-0.215-0.078-0.348-0.133-0.398-0.161-0.11-0.027-0.282-0.105-0.524-0.238h-0.039c0.027 0.078 0.039 0.172 0.039 0.281l-0.039 1.2-0.039 0.039v0.117l-0.16 1.082-0.121 0.961c-0.024 0.105-0.039 0.211-0.039 0.316 0.027-0.023 0.054-0.066 0.082-0.117 0.078-0.105 0.199-0.254 0.359-0.441 0.106-0.106 0.238-0.2 0.399-0.282 0.082-0.05 0.214-0.132 0.402-0.238 0.051-0.027 0.09-0.094 0.117-0.199v-0.281c0.055-0.481 0.188-0.813 0.402-1 0.106-0.106 0.266-0.188 0.481-0.239 0.105-0.027 0.277-0.043 0.519-0.043 0.184-0.023 0.305-0.023 0.36 0 0.105 0 0.211 0.028 0.32 0.082 0.266 0.215 0.438 0.399 0.52 0.559 0 0.055 0.011 0.094 0.039 0.121h0.16c0.265 0.028 0.508 0.067 0.719 0.121 0.082 0.024 0.187 0.051 0.32 0.078-0.027-0.48-0.027-0.933 0-1.359 0-0.133 0.016-0.266 0.043-0.398z" inkscape:connector-curvature="0"/>
      <path id="path230" style="fill-rule:evenodd;fill:#aab23f" d="m13.078 6.04c-0.476 0.133-0.945 0.293-1.398 0.481-0.239 0.078-0.735 0.304-1.481 0.679-0.238 0.082-0.332 0.172-0.277 0.282 0 0.05 0.066 0.078 0.199 0.078 0.211 0.027 0.547 0.039 1 0.039h2.238c-0.054-0.348-0.144-0.867-0.281-1.559z" inkscape:connector-curvature="0"/>
      <path id="path232" style="fill-rule:evenodd;fill:#a3b541" d="m10.52 1.079-0.2 0.321c-0.215 0-0.48-0.028-0.8-0.082-0.614-0.079-1.188-0.227-1.719-0.438 0.051 0.16 0.105 0.399 0.16 0.719 0.211 0 0.348-0.027 0.398-0.082 0.028-0.024 0.039-0.051 0.039-0.078 0.028-0.028 0.082-0.043 0.161-0.043 0.242-0.051 0.629-0.012 1.16 0.121 0.187 0.055 0.386 0.082 0.601 0.082 0.239 0 0.426-0.043 0.559-0.121 0.055-0.055 0.133-0.149 0.242-0.281 0.078-0.106 0.16-0.184 0.238-0.239 0.106-0.082 0.227-0.121 0.36-0.121 0.109-0.027 0.254-0.039 0.441-0.039 0.16 0.027 0.348 0.082 0.559 0.16 0.082 0.028 0.176 0.051 0.281 0.078v-0.957c-0.348 0.051-0.652 0.106-0.922 0.16-0.238 0.051-0.57 0.211-1 0.481l-0.558 0.359z" inkscape:connector-curvature="0"/>
      <path id="path234" style="fill-rule:evenodd;fill:#868c32" d="m8.039 1.997h0.039c0.242 0.137 0.414 0.215 0.524 0.242 0.05 0.028 0.183 0.083 0.398 0.161 0.188 0.05 0.332 0.093 0.441 0.121h0.84c0.426 0 0.731-0.016 0.918-0.043 0.242-0.028 0.602-0.051 1.082-0.078 0.239-0.028 0.453-0.043 0.641-0.043 0.023-0.477 0.051-0.918 0.078-1.317-0.105-0.027-0.199-0.054-0.281-0.082-0.211-0.078-0.399-0.133-0.559-0.16-0.187 0-0.332 0.016-0.441 0.039-0.133 0-0.254 0.043-0.36 0.121-0.078 0.055-0.16 0.133-0.238 0.239-0.109 0.136-0.187 0.226-0.242 0.281-0.133 0.082-0.32 0.121-0.559 0.121-0.215 0-0.414-0.027-0.601-0.082-0.531-0.133-0.918-0.172-1.16-0.117-0.079 0-0.133 0.011-0.161 0.039 0 0.027-0.011 0.054-0.039 0.082-0.05 0.051-0.187 0.078-0.398 0.078l0.078 0.398z" inkscape:connector-curvature="0"/>
      <path id="path236" style="fill-rule:evenodd;fill:#d9d0b0" d="m17.559 12.958c0.054 0.16 0.136 0.321 0.242 0.481 0.16 0.242 0.398 0.48 0.719 0.718 0.453 0.321 0.96 0.59 1.519 0.801 0.215 0.082 0.266 0.149 0.16 0.199-0.105 0.055-0.238 0.055-0.398 0-0.774-0.265-1.442-0.636-2-1.117-0.055-0.054-0.106-0.093-0.16-0.121-0.055 0.082-0.121 0.149-0.2 0.199l-0.519 0.364-0.082 0.359c0.16 0.184 0.265 0.305 0.32 0.359 0.028 0.024 0.055 0.039 0.078 0.039l2.481 0.321 0.84-0.481c0-0.105 0.015-0.265 0.043-0.48 0.05-0.215 0.066-0.375 0.039-0.481 0-0.16-0.055-0.347-0.161-0.558-0.105-0.242-0.175-0.403-0.199-0.481-0.082-0.027-0.136-0.054-0.16-0.082-0.773-0.48-1.309-0.773-1.601-0.879-0.747-0.293-1.079-0.078-1 0.641 0 0.082 0.015 0.148 0.039 0.199z" inkscape:connector-curvature="0"/>
      <path id="path238" style="fill-rule:evenodd;fill:#e6dcbc" d="m19.719 15.56-2.481-0.321c0.137 0.133 0.242 0.282 0.321 0.442 0.109 0.183 0.16 0.371 0.16 0.558v0.122h0.961l2.281-0.68h-0.082l-1.16-0.121z" inkscape:connector-curvature="0"/>
    </g>
  </g>
<metadata><rdf:RDF><cc:Work><dc:format>image/svg+xml</dc:format><dc:type rdf:resource="http://purl.org/dc/dcmitype/StillImage"/><cc:license rdf:resource="http://creativecommons.org/licenses/publicdomain/"/><dc:publisher><cc:Agent rdf:about="http://openclipart.org/"><dc:title>Openclipart</dc:title></cc:Agent></dc:publisher></cc:Work><cc:License rdf:about="http://creativecommons.org/licenses/publicdomain/"><cc:permits rdf:resource="http://creativecommons.org/ns#Reproduction"/><cc:permits rdf:resource="http://creativecommons.org/ns#Distribution"/><cc:permits rdf:resource="http://creativecommons.org/ns#DerivativeWorks"/></cc:License></rdf:RDF></metadata></svg>
