<?xml version="1.0" encoding="iso-8859-1"?>
<!-- Generator: Adobe Illustrator 19.0.0, SVG Export Plug-In . SVG Version: 6.00 Build 0)  -->
<svg version="1.1" id="Layer_1" xmlns="http://www.w3.org/2000/svg" xmlns:xlink="http://www.w3.org/1999/xlink" x="0px" y="0px"
	 viewBox="0 0 511.998 511.998" style="enable-background:new 0 0 511.998 511.998;" xml:space="preserve">
<polygon style="fill:#E54728;" points="290.704,245.863 290.704,366.817 259.867,343.977 259.867,245.863 "/>
<g>
	<polygon style="fill:#F95428;" points="259.867,245.863 259.867,395.212 229.041,372.372 198.204,395.212 198.204,245.863 	"/>
	<path style="fill:#F95428;" d="M337.325,159.387v43.884c0,23.521-19.071,42.592-42.604,42.592h-4.016h-30.837h-26.81
		c23.521,0,42.592-19.071,42.592-42.592v-43.884c0-23.533-19.071-42.604-42.592-42.604h61.663
		C318.254,116.783,337.325,135.854,337.325,159.387z"/>
</g>
<g>
	<path style="fill:#E09B2D;" d="M43.664,203.271h50.343c0,17.309-10.334,32.211-25.166,38.881
		C53.998,235.482,43.664,220.58,43.664,203.271z"/>
	<path style="fill:#E09B2D;" d="M94.007,159.387v43.884H43.664c0,17.309,10.334,32.211,25.177,38.881
		c-5.331,2.384-11.226,3.711-17.439,3.711c-23.521,0-42.592-19.071-42.592-42.592v-43.884c0-23.533,19.071-42.604,42.592-42.604
		c11.755,0,22.418,4.768,30.121,12.471C89.239,136.969,94.007,147.62,94.007,159.387z"/>
</g>
<g>
	<path style="fill:#F7B239;" d="M275.65,159.387v43.884c0,23.521-19.071,42.592-42.592,42.592h-34.854H86.257
		c-6.2,0-12.095-1.327-17.415-3.711c14.832-6.67,25.166-21.572,25.166-38.881v-43.884c0-11.767-4.768-22.418-12.483-30.133
		c-7.703-7.703-18.366-12.471-30.121-12.471h181.654C256.579,116.783,275.65,135.854,275.65,159.387z"/>
	<path style="fill:#F7B239;" d="M503.196,159.387v43.884c0,23.521-19.071,42.592-42.604,42.592H294.721
		c23.533,0,42.604-19.071,42.604-42.592v-43.884c0-23.533-19.071-42.604-42.604-42.604h165.872
		C484.125,116.783,503.196,135.854,503.196,159.387z"/>
</g>
<g>
	<path style="fill:#FFFFFF;" d="M473.838,212.078c-4.864,0-8.807-3.943-8.807-8.807v-43.884c0-2.447-1.992-4.439-4.439-4.439
		c-4.864,0-8.807-3.943-8.807-8.807s3.943-8.807,8.807-8.807c12.16,0,22.054,9.894,22.054,22.054v43.884
		C482.646,208.135,478.702,212.078,473.838,212.078z"/>
	<path style="fill:#FFFFFF;" d="M312.958,212.078c-4.864,0-8.807-3.943-8.807-8.807v-43.884c0-4.864,3.943-8.807,8.807-8.807
		c4.864,0,8.807,3.943,8.807,8.807v43.884C321.765,208.135,317.822,212.078,312.958,212.078z"/>
</g>
<rect x="198.2" y="245.865" style="fill:#E54728;" width="61.663" height="50.378"/>
<path style="fill:#333333;" d="M460.596,107.979H51.404C23.06,107.979,0,131.039,0,159.383v43.889
	c0,28.344,23.06,51.404,51.404,51.404h137.989v140.535c0,3.327,1.874,6.369,4.845,7.866c2.97,1.496,6.532,1.192,9.204-0.788
	l25.593-18.958l25.593,18.958c1.547,1.145,3.389,1.73,5.243,1.73c1.352,0,2.709-0.311,3.961-0.942
	c2.971-1.496,4.845-4.539,4.845-7.866v-33.752l16.787,12.438c1.547,1.146,3.39,1.731,5.244,1.731c1.35,0,2.708-0.311,3.961-0.942
	c2.971-1.496,4.845-4.539,4.845-7.866V254.678h161.078c28.344,0,51.404-23.06,51.404-51.404v-43.889
	C512,131.039,488.94,107.979,460.596,107.979z M328.514,159.383v43.889c0,18.632-15.158,33.79-33.79,33.79h-22.982
	c7.908-9.042,12.715-20.862,12.715-33.79v-43.889c0-12.928-4.808-24.746-12.715-33.79h22.981
	C313.356,125.594,328.514,140.752,328.514,159.383z M266.842,159.383v43.889c0,18.632-15.158,33.79-33.79,33.79H90.093
	c7.908-9.042,12.715-20.862,12.715-33.79v-43.889c0-12.928-4.808-24.746-12.715-33.79h142.96
	C251.684,125.594,266.842,140.752,266.842,159.383z M53.631,212.078h30.391c-2.295,8.489-7.815,15.664-15.167,20.117
	C61.486,227.745,55.928,220.583,53.631,212.078z M17.615,203.271v-43.889c0-18.632,15.158-33.79,33.79-33.79
	s33.79,15.158,33.79,33.79v35.081H43.66c-4.864,0-8.807,3.943-8.807,8.807c0,12.808,4.72,24.528,12.497,33.538
	C30.624,234.799,17.615,220.53,17.615,203.271z M251.064,377.726l-16.786-12.434c-3.114-2.306-7.37-2.306-10.485,0l-16.786,12.434
	V254.677h44.057L251.064,377.726L251.064,377.726z M268.679,339.535v-84.858h13.223v94.655L268.679,339.535z M494.385,203.271
	c0,18.632-15.158,33.79-33.79,33.79H333.413c7.908-9.042,12.715-20.862,12.715-33.79v-43.889c0-12.928-4.808-24.746-12.715-33.79
	h127.182c18.632,0,33.79,15.158,33.79,33.79v43.889H494.385z"/>
<g>
</g>
<g>
</g>
<g>
</g>
<g>
</g>
<g>
</g>
<g>
</g>
<g>
</g>
<g>
</g>
<g>
</g>
<g>
</g>
<g>
</g>
<g>
</g>
<g>
</g>
<g>
</g>
<g>
</g>
</svg>
