<?xml version="1.0" encoding="UTF-8"?>
<svg xmlns="http://www.w3.org/2000/svg" xmlns:xlink="http://www.w3.org/1999/xlink" width="256px" height="256px" viewBox="0 0 256 256" version="1.1">
<defs>
<linearGradient id="linear0" gradientUnits="userSpaceOnUse" x1="40.605217" y1="12.89941" x2="17.594276" y2="36.913795" gradientTransform="matrix(0.963756,0,0,0.793102,-1.778688,-2.560245)">
<stop offset="0" style="stop-color:rgb(24.705882%,24.705882%,24.705882%);stop-opacity:1;"/>
<stop offset="1" style="stop-color:rgb(100%,100%,100%);stop-opacity:1;"/>
</linearGradient>
<linearGradient id="linear1" gradientUnits="userSpaceOnUse" x1="40.605217" y1="12.89941" x2="17.594276" y2="36.913795" gradientTransform="matrix(0.963756,0,0,0.793102,-1.778688,-2.560245)">
<stop offset="0" style="stop-color:rgb(24.705882%,24.705882%,24.705882%);stop-opacity:1;"/>
<stop offset="1" style="stop-color:rgb(100%,100%,100%);stop-opacity:1;"/>
</linearGradient>
</defs>
<g id="surface1">
<path style="fill-rule:evenodd;fill:url(#linear0);stroke-width:0.417746;stroke-linecap:butt;stroke-linejoin:miter;stroke:rgb(19.607843%,19.607843%,19.607843%);stroke-opacity:1;stroke-miterlimit:4;" d="M 24.424707 26.020446 C 26.434147 25.311741 27.050437 23.094368 27.956678 21.268602 C 29.018291 20.155006 29.936661 22.723554 32.007903 22.486164 C 33.434554 22.323861 35.702755 19.915306 34.81904 18.347723 C 32.877178 16.648449 31.493847 18.843296 30.287837 17.42993 C 30.103585 15.906822 34.298631 14.808821 33.31557 13.697535 C 31.521572 12.364454 28.180783 12.712164 24.971109 11.475541 C 23.53926 9.857708 28.207353 10.531757 27.179818 8.951467 C 26.759331 8.316695 23.9661 6.771638 20.799167 7.436445 C 18.765468 8.11165 21.154963 10.174806 17.977055 9.961097 C 15.803579 9.690784 12.110461 8.273953 10.001097 8.951467 C 8.367091 10.069684 7.558463 11.631491 7.424462 12.182513 C 7.092347 13.888718 11.03152 12.744509 11.605068 13.188677 C 13.302609 14.587603 9.678224 16.322688 8.653577 15.733544 C 8.243487 14.908166 7.250607 14.479016 5.886914 14.768967 C 4.502428 14.855028 2.177623 18.978452 2.870732 20.062591 C 4.032269 21.416465 10.322815 23.129024 11.878846 22.934953 C 13.915433 22.987514 12.797217 22.094558 12.943347 20.950927 C 13.256979 19.495397 20.519612 21.561441 18.972823 22.547967 C 16.902736 22.930332 16.330343 23.639614 17.089875 24.367379 C 18.466275 25.534691 23.260861 26.572623 24.424707 26.020446 Z M 24.424707 26.020446 " transform="matrix(6.763,0,0,6.763,-0.395232,61.758101)"/>
<path style="fill-rule:evenodd;fill:url(#linear1);stroke-width:0.417746;stroke-linecap:butt;stroke-linejoin:miter;stroke:rgb(19.607843%,19.607843%,19.607843%);stroke-opacity:1;stroke-miterlimit:4;" d="M 24.425123 26.020675 C 26.434564 25.31197 27.050276 23.094597 27.956517 21.268831 C 29.018707 20.155235 29.9365 22.723784 32.00832 22.485816 C 33.434393 22.323513 35.702594 19.915535 34.818879 18.347952 C 32.877017 16.648678 31.493686 18.843525 30.287675 17.429582 C 30.104001 15.907051 34.298469 14.808472 33.315409 13.697187 C 31.52141 12.364684 28.180622 12.712394 24.971525 11.475771 C 23.539098 9.85736 28.207191 10.531409 27.180234 8.951119 C 26.75917 8.316924 23.966516 6.771867 20.799005 7.436675 C 18.765306 8.111301 21.155379 10.175035 17.976894 9.961326 C 15.803996 9.690436 12.110299 8.273604 10.000936 8.951119 C 8.36693 10.069913 7.558302 11.631143 7.424301 12.182742 C 7.092186 13.888947 11.031936 12.744161 11.605484 13.188906 C 13.302448 14.587833 9.678062 16.322339 8.653415 15.733196 C 8.243903 14.908396 7.251024 14.478668 5.886753 14.769196 C 4.502266 14.85468 2.177461 18.978682 2.870571 20.06282 C 4.032685 21.416117 10.322654 23.129253 11.879263 22.935182 C 13.91585 22.987165 12.797055 22.094787 12.943763 20.951156 C 13.256818 19.495048 20.520029 21.561092 18.973239 22.548196 C 16.902574 22.929984 16.330181 23.639843 17.089714 24.367608 C 18.466691 25.534343 23.260699 26.572852 24.425123 26.020675 Z M 24.425123 26.020675 " transform="matrix(6.763,0,0,6.763,0.0902343,59.33077)"/>
<path style="fill-rule:nonzero;fill:rgb(81.176471%,7.843137%,16.862745%);fill-opacity:1;stroke-width:2;stroke-linecap:butt;stroke-linejoin:miter;stroke:rgb(0%,0%,0%);stroke-opacity:1;stroke-miterlimit:4;" d="M 524.005896 249.030058 C 525.56136 249.436113 525.703846 250.79469 524.326488 252.065984 C 522.949131 253.337277 520.574377 254.039335 519.018913 253.63328 C 517.463449 253.227225 517.320964 251.868648 518.698321 250.59356 C 520.075678 249.326061 522.462306 248.624003 524.005896 249.030058 Z M 524.005896 249.030058 " transform="matrix(0.328981,0,0,-1.02934,40.674286,287.024135)"/>
<path style="fill-rule:nonzero;fill:rgb(81.176471%,7.843137%,16.862745%);fill-opacity:1;stroke-width:2;stroke-linecap:butt;stroke-linejoin:miter;stroke:rgb(0%,0%,0%);stroke-opacity:1;stroke-miterlimit:4;" d="M 518.983292 246.51783 C 521.096823 247.071886 521.310551 248.897236 519.470116 250.601149 C 517.617808 252.301268 514.41189 253.234815 512.298359 252.680758 C 510.184828 252.130497 509.9711 250.301352 511.811534 248.601234 C 513.663843 246.901115 516.869761 245.967568 518.983292 246.51783 Z M 518.983292 246.51783 " transform="matrix(0.328981,0,0,-1.02934,40.674286,287.024135)"/>
<path style="fill-rule:nonzero;fill:rgb(81.176471%,7.843137%,16.862745%);fill-opacity:1;stroke-width:2;stroke-linecap:butt;stroke-linejoin:miter;stroke:rgb(0%,0%,0%);stroke-opacity:1;stroke-miterlimit:4;" d="M 513.68759 243.929703 C 516.359188 244.624171 516.656033 246.923885 514.340647 249.056622 C 512.025262 251.18936 507.98818 252.350602 505.304708 251.652339 C 502.63311 250.954076 502.336266 248.658157 504.651651 246.525419 C 506.967036 244.392682 511.015992 243.227645 513.68759 243.929703 Z M 513.68759 243.929703 " transform="matrix(0.328981,0,0,-1.02934,40.674286,287.024135)"/>
<path style="fill-rule:nonzero;fill:rgb(81.176471%,7.843137%,16.862745%);fill-opacity:1;stroke-width:2;stroke-linecap:butt;stroke-linejoin:miter;stroke:rgb(0%,0%,0%);stroke-opacity:1;stroke-miterlimit:4;" d="M 506.503959 240.776136 C 509.745498 241.626195 510.113585 244.392682 507.335123 246.954244 C 504.556661 249.519601 499.664668 250.912332 496.423128 250.066068 C 493.181589 249.216008 492.801628 246.449521 495.591964 243.887959 C 498.370427 241.322602 503.250546 239.929871 506.503959 240.776136 Z M 506.503959 240.776136 " transform="matrix(0.328981,0,0,-1.02934,40.674286,287.024135)"/>
<path style="fill-rule:nonzero;fill:rgb(81.176471%,7.843137%,16.862745%);fill-opacity:1;stroke-width:2;stroke-linecap:butt;stroke-linejoin:miter;stroke:rgb(0%,0%,0%);stroke-opacity:1;stroke-miterlimit:4;" d="M 497.622379 237.140615 C 501.433859 238.13488 501.896936 241.368141 498.643523 244.358528 C 495.39011 247.352709 489.678827 248.969339 485.867347 247.975074 C 482.055866 246.980808 481.604663 243.747548 484.858076 240.757161 C 488.099615 237.766774 493.822773 236.146349 497.622379 237.140615 Z M 497.622379 237.140615 " transform="matrix(0.328981,0,0,-1.02934,40.674286,287.024135)"/>
<path style="fill-rule:nonzero;fill:rgb(81.176471%,7.843137%,16.862745%);fill-opacity:1;stroke-width:2;stroke-linecap:butt;stroke-linejoin:miter;stroke:rgb(0%,0%,0%);stroke-opacity:1;stroke-miterlimit:4;" d="M 488.289596 234.08951 C 492.49291 235.186238 493.003482 238.726886 489.453225 242.00189 C 485.902968 245.276895 479.621743 247.041527 475.430303 245.948594 C 471.238862 244.851866 470.716416 241.311217 474.278547 238.036213 C 477.828804 234.761208 484.098155 232.996576 488.289596 234.08951 Z M 488.289596 234.08951 " transform="matrix(0.328981,0,0,-1.02934,40.674286,287.024135)"/>
<path style="fill-rule:nonzero;fill:rgb(81.176471%,7.843137%,16.862745%);fill-opacity:1;stroke-width:2;stroke-linecap:butt;stroke-linejoin:miter;stroke:rgb(0%,0%,0%);stroke-opacity:1;stroke-miterlimit:4;" d="M 477.425096 230.066908 C 482.055866 231.273689 482.625807 235.190033 478.695589 238.806579 C 474.777245 242.423125 467.842963 244.377502 463.212193 243.166927 C 458.581423 241.960146 457.999608 238.043803 461.929826 234.427256 C 465.860044 230.806915 472.794326 228.852538 477.425096 230.066908 Z M 477.425096 230.066908 " transform="matrix(0.328981,0,0,-1.02934,40.674286,287.024135)"/>
<path style="fill-rule:nonzero;fill:rgb(81.176471%,7.843137%,16.862745%);fill-opacity:1;stroke-width:2;stroke-linecap:butt;stroke-linejoin:miter;stroke:rgb(0%,0%,0%);stroke-opacity:1;stroke-miterlimit:4;" d="M 467.937954 226.894366 C 472.770578 228.154275 473.364267 232.24139 469.267816 236.013527 C 465.171365 239.785665 457.928365 241.82353 453.107615 240.559826 C 448.27499 239.299917 447.669428 235.216597 451.765879 231.440665 C 455.862329 227.668527 463.105329 225.630662 467.937954 226.894366 Z M 467.937954 226.894366 " transform="matrix(0.328981,0,0,-1.02934,40.674286,287.024135)"/>
<path style="fill-rule:nonzero;fill:rgb(81.176471%,7.843137%,16.862745%);fill-opacity:1;stroke-width:2;stroke-linecap:butt;stroke-linejoin:miter;stroke:rgb(0%,0%,0%);stroke-opacity:1;stroke-miterlimit:4;" d="M 458.201462 223.949518 C 463.069708 225.224607 463.67527 229.338286 459.543198 233.144578 C 455.411126 236.950869 448.120631 239.003914 443.252385 237.73262 C 438.38414 236.457531 437.778577 232.340057 441.910649 228.537561 C 446.030848 224.731269 453.333216 222.678225 458.201462 223.949518 Z M 458.201462 223.949518 " transform="matrix(0.328981,0,0,-1.02934,40.674286,287.024135)"/>
<path style="fill-rule:nonzero;fill:rgb(81.176471%,7.843137%,16.862745%);fill-opacity:1;stroke-width:2;stroke-linecap:butt;stroke-linejoin:miter;stroke:rgb(0%,0%,0%);stroke-opacity:1;stroke-miterlimit:4;" d="M 448.037515 221.403136 C 452.680159 222.613711 453.238226 226.52626 449.319882 230.146601 C 445.389664 233.763148 438.455382 235.717525 433.824612 234.506949 C 429.193842 233.296374 428.623901 229.383825 432.542245 225.763484 C 436.472463 222.146938 443.406744 220.196355 448.037515 221.403136 Z M 448.037515 221.403136 " transform="matrix(0.328981,0,0,-1.02934,40.674286,287.024135)"/>
<path style="fill-rule:nonzero;fill:rgb(96.862745%,85.098039%,9.019608%);fill-opacity:1;stroke-width:2;stroke-linecap:butt;stroke-linejoin:miter;stroke:rgb(0%,0%,0%);stroke-opacity:1;stroke-miterlimit:4;" d="M 399.748192 416.899612 C 404.902633 422.023895 404.263653 430.977614 398.308356 436.882477 C 392.361579 442.805707 383.356217 443.439355 378.201775 438.315073 C 373.055854 433.19079 373.694834 424.246254 379.641611 418.332207 C 385.596908 412.418161 394.593751 411.784513 399.748192 416.899612 Z M 399.748192 416.899612 " transform="matrix(0.458494,0,0,-0.425364,37.288101,206.697546)"/>
<path style="fill-rule:nonzero;fill:rgb(13.72549%,6.27451%,0.784314%);fill-opacity:1;stroke-width:2;stroke-linecap:butt;stroke-linejoin:miter;stroke:rgb(0%,0%,0%);stroke-opacity:1;stroke-miterlimit:4;" d="M 394.005889 422.611626 C 396.408455 425.008468 396.110264 429.177687 393.332829 431.941861 C 390.563915 434.696852 386.355164 434.999901 383.952598 432.603059 C 381.541512 430.2154 381.848223 426.036998 384.617138 423.282007 C 387.394572 420.517833 391.603323 420.223968 394.005889 422.611626 Z M 394.005889 422.611626 " transform="matrix(0.458494,0,0,-0.425364,37.288101,206.697546)"/>
<path style="fill-rule:nonzero;fill:rgb(100%,100%,100%);fill-opacity:1;stroke-width:2;stroke-linecap:butt;stroke-linejoin:miter;stroke:rgb(0%,0%,0%);stroke-opacity:1;stroke-miterlimit:4;" d="M 380.803613 252.056142 L 395.162365 246.445593 L 34.480177 105.433217 L 43.120656 114.421681 Z M 380.803613 252.056142 " transform="matrix(0.371616,0,0,-0.876558,39.460063,267.871411)"/>
<path style="fill-rule:nonzero;fill:rgb(61.568627%,61.568627%,61.568627%);fill-opacity:1;stroke-width:2;stroke-linecap:butt;stroke-linejoin:miter;stroke:rgb(0%,0%,0%);stroke-opacity:1;stroke-miterlimit:4;" d="M 409.521117 240.830589 L 395.162365 246.445593 L 34.480177 105.433217 L 57.479409 108.806676 Z M 409.521117 240.830589 " transform="matrix(0.371616,0,0,-0.876558,39.460063,267.871411)"/>
<path style="fill-rule:nonzero;fill:rgb(96.862745%,85.098039%,9.019608%);fill-opacity:1;stroke-width:2;stroke-linecap:butt;stroke-linejoin:miter;stroke:rgb(0%,0%,0%);stroke-opacity:1;stroke-miterlimit:4;" d="M 215.642302 413.408652 C 213.290764 416.155286 213.167681 420.032886 215.422048 422.287795 C 217.702328 424.563778 221.602125 424.43031 224.348826 422.020859 C 224.36826 422.00681 224.413606 421.957637 224.439519 421.936563 L 225.197452 421.177902 L 285.683171 360.688742 L 285.728518 360.639569 C 285.864557 360.527175 286.000597 360.372633 286.130158 360.239165 C 288.889815 357.485507 289.187806 353.305847 286.797399 350.91747 C 284.406992 348.529093 280.235116 348.824128 277.468981 351.577786 C 274.715803 354.338469 274.417811 358.518129 276.808219 360.906506 C 277.592065 361.693265 278.583209 362.192015 279.639134 362.402754 L 226.91414 415.129689 C 226.700364 414.075993 226.201553 413.078494 225.417707 412.291735 C 223.0273 409.903358 218.848946 410.205417 216.089289 412.9661 C 215.940294 413.113618 215.778342 413.25411 215.642302 413.408652 Z M 215.642302 413.408652 " transform="matrix(0.602996,0,0,-0.556078,33.675551,267.950144)"/>
<path style="fill-rule:nonzero;fill:rgb(81.176471%,7.843137%,16.862745%);fill-opacity:1;stroke-width:2;stroke-linecap:butt;stroke-linejoin:miter;stroke:rgb(0%,0%,0%);stroke-opacity:1;stroke-miterlimit:4;" d="M 50.824281 252.031829 C 49.446924 252.487218 44.839901 252.532757 40.529722 252.126702 C 36.20767 251.716852 33.832916 251.018589 35.198399 250.559405 C 36.587631 250.100222 41.194653 250.058478 45.504832 250.468328 C 49.826884 250.874383 52.201638 251.572646 50.824281 252.031829 Z M 50.824281 252.031829 " transform="matrix(0.328981,0,0,-1.02934,40.674286,287.024135)"/>
<path style="fill-rule:nonzero;fill:rgb(81.176471%,7.843137%,16.862745%);fill-opacity:1;stroke-width:2;stroke-linecap:butt;stroke-linejoin:miter;stroke:rgb(0%,0%,0%);stroke-opacity:1;stroke-miterlimit:4;" d="M 59.349648 250.551816 C 57.473592 251.17418 51.275484 251.234899 45.492958 250.692227 C 39.722306 250.145761 36.563883 249.200829 38.428065 248.578464 C 40.304121 247.956099 46.502229 247.895381 52.272881 248.438053 C 58.055407 248.980724 61.21383 249.929451 59.349648 250.551816 Z M 59.349648 250.551816 " transform="matrix(0.328981,0,0,-1.02934,40.674286,287.024135)"/>
<path style="fill-rule:nonzero;fill:rgb(81.176471%,7.843137%,16.862745%);fill-opacity:1;stroke-width:2;stroke-linecap:butt;stroke-linejoin:miter;stroke:rgb(0%,0%,0%);stroke-opacity:1;stroke-miterlimit:4;" d="M 68.136238 248.988314 C 65.761484 249.777655 57.972291 249.864938 50.741165 249.181854 C 43.498165 248.498771 39.556073 247.30717 41.930827 246.51783 C 44.305581 245.732284 52.094774 245.641206 59.3259 246.324289 C 66.5689 247.011168 70.510992 248.202768 68.136238 248.988314 Z M 68.136238 248.988314 " transform="matrix(0.328981,0,0,-1.02934,40.674286,287.024135)"/>
<path style="fill-rule:nonzero;fill:rgb(81.176471%,7.843137%,16.862745%);fill-opacity:1;stroke-width:2;stroke-linecap:butt;stroke-linejoin:miter;stroke:rgb(0%,0%,0%);stroke-opacity:1;stroke-miterlimit:4;" d="M 78.822631 246.870756 C 75.949179 247.827073 66.5689 247.937125 57.865427 247.117425 C 49.161953 246.297725 44.436193 244.85566 47.321519 243.899344 C 50.194971 242.946822 59.57525 242.832975 68.278723 243.65647 C 76.970323 244.472375 81.696083 245.914439 78.822631 246.870756 Z M 78.822631 246.870756 " transform="matrix(0.328981,0,0,-1.02934,40.674286,287.024135)"/>
<path style="fill-rule:nonzero;fill:rgb(81.176471%,7.843137%,16.862745%);fill-opacity:1;stroke-width:2;stroke-linecap:butt;stroke-linejoin:miter;stroke:rgb(0%,0%,0%);stroke-opacity:1;stroke-miterlimit:4;" d="M 91.159478 244.256065 C 87.787328 245.379358 76.815964 245.512179 66.66389 244.555863 C 56.511817 243.599546 51.026135 241.914608 54.398286 240.791315 C 57.770437 239.668023 68.7418 239.535201 78.893874 240.491517 C 89.045947 241.447834 94.531629 243.136568 91.159478 244.256065 Z M 91.159478 244.256065 " transform="matrix(0.328981,0,0,-1.02934,40.674286,287.024135)"/>
<path style="fill-rule:nonzero;fill:rgb(81.176471%,7.843137%,16.862745%);fill-opacity:1;stroke-width:2;stroke-linecap:butt;stroke-linejoin:miter;stroke:rgb(0%,0%,0%);stroke-opacity:1;stroke-miterlimit:4;" d="M 101.513406 241.504758 C 97.796916 242.741897 85.78066 242.893694 74.666811 241.846299 C 63.564836 240.798905 57.568582 238.950785 61.273199 237.713646 C 64.989689 236.476506 77.017818 236.32471 88.119793 237.372104 C 99.233642 238.419498 105.229896 240.271413 101.513406 241.504758 Z M 101.513406 241.504758 " transform="matrix(0.328981,0,0,-1.02934,40.674286,287.024135)"/>
<path style="fill-rule:nonzero;fill:rgb(81.176471%,7.843137%,16.862745%);fill-opacity:1;stroke-width:2;stroke-linecap:butt;stroke-linejoin:miter;stroke:rgb(0%,0%,0%);stroke-opacity:1;stroke-miterlimit:4;" d="M 115.168242 238.301856 C 111.059917 239.664228 97.785042 239.834999 85.507564 238.677552 C 73.230085 237.520105 66.604522 235.474651 70.712846 234.112279 C 74.82117 232.746113 88.096046 232.575342 100.373524 233.736583 C 112.651002 234.890235 119.276566 236.939485 115.168242 238.301856 Z M 115.168242 238.301856 " transform="matrix(0.328981,0,0,-1.02934,40.674286,287.024135)"/>
<path style="fill-rule:nonzero;fill:rgb(81.176471%,7.843137%,16.862745%);fill-opacity:1;stroke-width:2;stroke-linecap:butt;stroke-linejoin:miter;stroke:rgb(0%,0%,0%);stroke-opacity:1;stroke-miterlimit:4;" d="M 125.925877 235.501215 C 121.65132 236.9281 107.79463 237.102666 94.994706 235.895885 C 82.182908 234.689105 75.272374 232.556367 79.558805 231.133277 C 83.833362 229.710187 97.690052 229.531826 110.489976 230.738607 C 123.301774 231.949182 130.212308 234.08192 125.925877 235.501215 Z M 125.925877 235.501215 " transform="matrix(0.328981,0,0,-1.02934,40.674286,287.024135)"/>
<path style="fill-rule:nonzero;fill:rgb(81.176471%,7.843137%,16.862745%);fill-opacity:1;stroke-width:2;stroke-linecap:butt;stroke-linejoin:miter;stroke:rgb(0%,0%,0%);stroke-opacity:1;stroke-miterlimit:4;" d="M 135.911718 232.63606 C 131.601539 234.07433 117.626112 234.248896 104.719324 233.030731 C 91.812536 231.812565 84.842633 229.664648 89.152811 228.226378 C 93.474863 226.791904 107.438417 226.617338 120.357079 227.831708 C 133.263867 229.049873 140.23377 231.201585 135.911718 232.63606 Z M 135.911718 232.63606 " transform="matrix(0.328981,0,0,-1.02934,40.674286,287.024135)"/>
<path style="fill-rule:nonzero;fill:rgb(81.176471%,7.843137%,16.862745%);fill-opacity:1;stroke-width:2;stroke-linecap:butt;stroke-linejoin:miter;stroke:rgb(0%,0%,0%);stroke-opacity:1;stroke-miterlimit:4;" d="M 144.555823 229.641879 C 140.447498 231.00425 127.172623 231.175021 114.895145 230.017574 C 102.617666 228.860128 95.992103 226.814673 100.100427 225.448507 C 104.208752 224.086135 117.483627 223.915364 129.761105 225.072811 C 142.038583 226.230257 148.652273 228.275712 144.555823 229.641879 Z M 144.555823 229.641879 " transform="matrix(0.328981,0,0,-1.02934,40.674286,287.024135)"/>
<path style="fill-rule:nonzero;fill:rgb(96.862745%,85.098039%,9.019608%);fill-opacity:1;stroke-width:2;stroke-linecap:butt;stroke-linejoin:miter;stroke:rgb(0%,0%,0%);stroke-opacity:1;stroke-miterlimit:4;" d="M 40.717924 437.323276 C 35.563483 442.447558 26.55812 441.813911 20.611343 435.899864 C 14.664566 429.985818 14.025586 421.032098 19.180027 415.907816 C 24.334468 410.783533 33.331311 411.426364 39.278088 417.340411 C 45.224865 423.254457 45.872365 432.198993 40.717924 437.323276 Z M 40.717924 437.323276 " transform="matrix(0.458494,0,0,-0.425364,37.288101,206.697546)"/>
<path style="fill-rule:nonzero;fill:rgb(13.72549%,6.27451%,0.784314%);fill-opacity:1;stroke-width:2;stroke-linecap:butt;stroke-linejoin:miter;stroke:rgb(0%,0%,0%);stroke-opacity:1;stroke-miterlimit:4;" d="M 34.975621 431.611262 C 32.564535 434.008104 28.364304 433.705055 25.58687 430.950064 C 22.817955 428.195074 22.519764 424.007488 24.92233 421.61983 C 27.324896 419.232171 31.525127 419.526037 34.302561 422.290211 C 37.079996 425.045201 37.378187 429.223604 34.975621 431.611262 Z M 34.975621 431.611262 " transform="matrix(0.458494,0,0,-0.425364,37.288101,206.697546)"/>
<path style="fill-rule:nonzero;fill:rgb(100%,100%,100%);fill-opacity:1;stroke-width:2;stroke-linecap:butt;stroke-linejoin:miter;stroke:rgb(0%,0%,0%);stroke-opacity:1;stroke-miterlimit:4;" d="M 95.64678 240.349303 L 110.005533 245.964307 L 470.68772 104.951931 L 447.688489 108.32539 Z M 95.64678 240.349303 " transform="matrix(0.371616,0,0,-0.876558,39.460063,267.871411)"/>
<path style="fill-rule:nonzero;fill:rgb(61.568627%,61.568627%,61.568627%);fill-opacity:1;stroke-width:2;stroke-linecap:butt;stroke-linejoin:miter;stroke:rgb(0%,0%,0%);stroke-opacity:1;stroke-miterlimit:4;" d="M 124.374797 251.574856 L 110.005533 245.964307 L 470.68772 104.951931 L 462.057753 113.940394 Z M 124.374797 251.574856 " transform="matrix(0.371616,0,0,-0.876558,39.460063,267.871411)"/>
<path style="fill-rule:nonzero;fill:rgb(96.862745%,85.098039%,9.019608%);fill-opacity:1;stroke-width:2;stroke-linecap:butt;stroke-linejoin:miter;stroke:rgb(0%,0%,0%);stroke-opacity:1;stroke-miterlimit:4;" d="M 52.595814 350.376573 C 49.855592 348.023319 45.975229 347.896876 43.720861 350.151784 C 41.440582 352.434792 41.576621 356.333466 43.986462 359.0801 C 44.005896 359.101174 44.051243 359.150346 44.070677 359.17142 L 44.828611 359.930081 L 105.320808 420.412217 L 105.366155 420.461389 C 105.48276 420.594857 105.638233 420.73535 105.767795 420.861794 C 108.520974 423.622476 112.699327 423.917511 115.096212 421.529134 C 117.480141 419.140757 117.18215 414.961097 114.428971 412.200415 C 111.669314 409.446756 107.490961 409.144697 105.100554 411.540099 C 104.316708 412.319833 103.817896 413.317332 103.60412 414.371028 L 50.879126 361.644093 C 51.935051 361.433354 52.926196 360.934604 53.710042 360.147845 C 56.100449 357.759468 55.802458 353.579808 53.042801 350.819125 C 52.893805 350.671608 52.751288 350.510041 52.595814 350.376573 Z M 52.595814 350.376573 " transform="matrix(0.602996,0,0,-0.556078,33.675551,267.950144)"/>
</g>
</svg>
