<?xml version="1.0"?>
<svg xmlns:rdf="http://www.w3.org/1999/02/22-rdf-syntax-ns#" xmlns="http://www.w3.org/2000/svg" xmlns:cc="http://creativecommons.org/ns#" xmlns:xlink="http://www.w3.org/1999/xlink" xmlns:dc="http://purl.org/dc/elements/1.1/" id="svg2" viewBox="0 0 128 128" version="1.0">
  <defs id="defs4">
    <linearGradient id="linearGradient2338">
      <stop id="stop2340" stop-color="#b1b1b1" offset="0"/>
      <stop id="stop2342" stop-color="#e4e4e4" offset="1"/>
    </linearGradient>
    <linearGradient id="linearGradient2888">
      <stop id="stop2890" stop-color="#007dff" offset="0"/>
      <stop id="stop2892" stop-color="#58abff" offset="1"/>
    </linearGradient>
    <linearGradient id="linearGradient2422" x1="56.653" xlink:href="#linearGradient2338" gradientUnits="userSpaceOnUse" x2="58.693" y1="98.43" y2="123.99"/>
    <linearGradient id="linearGradient3005" x1="42.724" xlink:href="#linearGradient2338" gradientUnits="userSpaceOnUse" x2="69.535" y1="114.03" y2="62.4"/>
    <linearGradient id="linearGradient3009" x1="63.741" xlink:href="#linearGradient2338" gradientUnits="userSpaceOnUse" x2="96.086" y1="90.378" y2="113.04"/>
    <linearGradient id="linearGradient3013" x1="59.589" xlink:href="#linearGradient2338" gradientUnits="userSpaceOnUse" x2="58.551" y1="113.17" y2="57.038"/>
    <linearGradient id="linearGradient3017" x1="52.843" xlink:href="#linearGradient2888" gradientUnits="userSpaceOnUse" x2="89.859" y1="64.173" y2="84.93"/>
    <linearGradient id="linearGradient3021" x1="40.303" xlink:href="#linearGradient2338" gradientUnits="userSpaceOnUse" x2="44.195" y1="59.286" y2="65.6"/>
    <linearGradient id="linearGradient3025" x1="95.135" xlink:href="#linearGradient2338" gradientUnits="userSpaceOnUse" x2="101.54" y1="57.574" y2="69.596"/>
    <linearGradient id="linearGradient3030" x1="64.951" xlink:href="#linearGradient2338" gradientUnits="userSpaceOnUse" x2="78.876" y1="76.627" y2="79.827"/>
    <linearGradient id="linearGradient3034" x1="67.286" xlink:href="#linearGradient2338" gradientUnits="userSpaceOnUse" x2="94.876" y1="70.443" y2="75.027"/>
    <linearGradient id="linearGradient3040" x1="62.616" xlink:href="#linearGradient2338" gradientUnits="userSpaceOnUse" x2="66.162" y1="73.081" y2="37.535"/>
    <linearGradient id="linearGradient3044" x1="58.119" xlink:href="#linearGradient2888" gradientUnits="userSpaceOnUse" x2="80.432" y1="51.382" y2="65.739"/>
    <linearGradient id="linearGradient3048" x1="53.572" xlink:href="#linearGradient2338" gradientUnits="userSpaceOnUse" x2="55.04" y1="51.22" y2="53.666"/>
    <linearGradient id="linearGradient3052" x1="81.887" xlink:href="#linearGradient2338" gradientUnits="userSpaceOnUse" x2="85.067" y1="50.119" y2="54.4"/>
    <linearGradient id="linearGradient3056" x1="65.742" xlink:href="#linearGradient2338" gradientUnits="userSpaceOnUse" x2="74.181" y1="58.436" y2="62.105"/>
    <linearGradient id="linearGradient3061" x1="65.62" xlink:href="#linearGradient2338" gradientUnits="userSpaceOnUse" x2="77.606" y1="54.522" y2="56.418"/>
    <linearGradient id="linearGradient3065" x1="67.087" xlink:href="#linearGradient2338" gradientUnits="userSpaceOnUse" x2="65.253" y1="55.317" y2="39.294"/>
    <linearGradient id="linearGradient3069" x1="61.461" xlink:href="#linearGradient2888" gradientUnits="userSpaceOnUse" x2="71.613" y1="46.602" y2="52.596"/>
    <linearGradient id="linearGradient3073" x1="68.127" xlink:href="#linearGradient2338" gradientUnits="userSpaceOnUse" x2="70.94" y1="43.912" y2="48.131"/>
    <linearGradient id="linearGradient3079" x1="67.087" xlink:href="#linearGradient2338" gradientUnits="userSpaceOnUse" x2="71.185" y1="45.441" y2="49.11"/>
    <linearGradient id="linearGradient3083" x1="68.31" xlink:href="#linearGradient2338" gradientUnits="userSpaceOnUse" x2="66.904" y1="45.318" y2="41.894"/>
    <linearGradient id="linearGradient3087" x1="67.087" xlink:href="#linearGradient2888" gradientUnits="userSpaceOnUse" x2="68.738" y1="42.75" y2="44.462"/>
    <linearGradient id="linearGradient3091" x1="62.439" xlink:href="#linearGradient2888" gradientUnits="userSpaceOnUse" x2="67.76" y1="36.573" y2="41.343"/>
    <linearGradient id="linearGradient3095" x1="69.014" xlink:href="#linearGradient2888" gradientUnits="userSpaceOnUse" x2="74.09" y1="37.032" y2="49.171"/>
    <filter id="filter3177">
      <feGaussianBlur id="feGaussianBlur3179" stdDeviation="1.4081173"/>
    </filter>
    <filter id="filter3197" y="-.10603" width="1.1564" x="-.078178" height="1.2121">
      <feGaussianBlur id="feGaussianBlur3199" stdDeviation="0.49535895"/>
    </filter>
    <filter id="filter3201">
      <feGaussianBlur id="feGaussianBlur3203" stdDeviation="0.80813571"/>
    </filter>
  </defs>
  <g id="layer2" fill-rule="evenodd">
    <path id="path3111" filter="url(#filter3177)" fill-opacity=".62745" d="m45.25 99.5c2.125 6.38-23.147-0.684-27.27-17.981-3.155-13.236 24.699-34.312 44.52-27.019 16.769 6.169 11.25 52.5-17.25 45z"/>
    <path id="path2420" fill="url(#linearGradient2422)" d="m21.795 79.222l0.432 4.929 0.692 2.422 2.422 4.151 4.151 4.411 3.286 2.422 7.352 4.323 7.956 2.94 9.082 2.08 8.994 0.6 9.773-0.52 7.351-1.47 6.573-1.64 10.461-4.584 6.14-3.891 5.45-5.19 1.47-2.162 1.13-2.681 0.69-3.459-0.09-3.2-0.52-1.817-0.17 4.152-1.47 4.67-1.73 2.768-3.8 4.583-7.27 5.363-9.512 3.978-11.416 2.94-12.541 0.87-7.957-0.52-10.292-2.08-8.302-3.29-3.46-1.639-4.411-3.286-4.583-3.979-2.768-3.632-1.989-4.325-0.346-2.075-0.173-4.325-0.605 2.163z"/>
    <path id="path2424" fill-opacity=".15686" d="m22.227 84.151l0.692 2.422 2.422 4.151 4.151 4.411 3.286 2.422 7.352 4.323 7.956 2.94 9.082 2.08 8.994 0.6 9.773-0.52 8.208-1.77-0.127-1.1-4.794 1.23-12.541 0.87-7.957-0.52-10.292-2.08-8.302-3.29-3.46-1.639-4.411-3.286-4.583-3.979-2.768-3.632-1.989-4.325-0.692 0.692z"/>
    <path id="path3003" d="m29.059 65.47l-2.594 2.508-2.595 4.238-1.902 6.4 0.864 4.757 2.941 5.622s1.903 1.989 2.422 2.854 5.708 4.929 5.708 4.929l7.611 4.322 6.918 2.42 7.438 1.65 10.552 1.21 10.119-0.61 7.956-1.64 9.081-2.77 6.662-3.198 5.19-3.459 3.37-3.027 2.77-3.373 1.99-3.892 0.95-3.892 0.08-3.978-0.43-1.471-1.99-3.027-1.55-1.557-2.34-1.47 1.21 4.843-0.69 7.006-2.16 4.843-5.19 5.103-6.574 3.892-8.39 2.94-5.967 1.471-12.281 1.036-10.638-0.864-7.438-1.643-7.611-2.94-6.054-3.2-4.756-4.152-3.719-5.448-0.865-3.114 0.173-3.286-0.087-2.854 1.038-4.325 0.778-2.854z" fill="url(#linearGradient3005)"/>
    <path id="path3007" d="m27.243 74.638l-0.173 3.632 2.076 5.622 5.622 6.054 7.351 4.93 10.119 3.373 12.021 1.729 10.725-0.086 7.178-0.951 10.724-3.287 7.354-3.719 5.97-5.708 3.02-6.227 0.09-7.178-0.26 1.729-0.69 2.335-0.78 2.163-1.3 2.421-1.81 2.681-2.77 2.854-3.98 2.941-6.4 2.854-7.698 2.076-11.675 1.383-10.206-0.259-10.292-1.989-8.648-3.373-5.708-3.027-4.152-3.2-2.075-2.422-2.422-3.546-1.211-3.805z" fill="url(#linearGradient3009)"/>
    <path id="path3011" d="m44.281 56.908c-0.346 0.26 2.076-3.546 2.076-3.546l-2.941 1.038-7.438 3.719-3.546 3.027-2.854 3.719-1.556 4.065-0.692 5.016 0.173 1.903 1.038 2.594 1.47 2.768 3.027 3.373 3.546 2.594 5.708 3.373 7.438 2.941 9.773 2.249 13.059 0.432 7.957-0.865 5.622-1.124 6.486-1.73 6.4-3.286 3.373-2.768 1.99-2.249 1.82-2.508 1.9-3.632 0.52-1.903 0.52-2.076-0.96-5.621-3.71-6.4-6.664-5.449-5.448-2.162-2.509-0.605 1.644 4.064 1.038 2.682-1.038-3.633 1.47 0.433 2.076 1.383 3.719 2.854 2.332 2.422 1.65 3.632 0.77 4.065-0.43 2.941-1.47 3.632-3.544 4.757-5.535 3.978-5.363 2.422-8.216 2.076-7.265 0.692-7.265 0.259-9.254-1.211-7.005-2.162-5.968-2.681-5.967-4.67-2.854-5.103-1.211-3.892-0.173-1.297 0.951-4.67 2.249-3.373 3.978-3.806 5.103-2.681z" fill="url(#linearGradient3013)"/>
    <path id="path3015" fill="url(#linearGradient3017)" d="m43.07 61.405l-4.497 2.076-2.941 2.768-1.902 2.854-1.038 4.324 0.086 1.816c0.957 3.133 2.512 5.27 4.152 7.265l7.524 5.189 9.168 3.287 12.8 1.643 10.119-0.778 11.848-2.681 7.525-4.065 2.854-2.768 3.282-4.497 1.73-5.362c-0.8-2.661-1.68-5.14-2.94-6.66-2.351-2.634-5.126-3.583-7.694-5.362l-50.076 0.951z"/>
    <path id="path3019" d="m44.195 57.254l-4.152 1.643-4.411 3.633-1.989 3.027-1.384 4.324 0.087 3.892 0.605 0.173v-1.557l0.779-2.94 1.643-2.941 2.854-2.681 5.016-2.422 0.26-2.075 0.692-2.076z" fill="url(#linearGradient3021)"/>
    <path id="path3023" d="m91.416 56.649l1.298 4.065 3.027 1.037 3.373 2.335 2.166 1.99 1.38 3.546s0.86 2.335 0.86 1.989-1.03-5.276-1.03-5.276l-2.08-3.2-2.594-2.681-2.767-2.162-3.633-1.643z" fill="url(#linearGradient3025)"/>
    <path id="path3113" filter="url(#filter3201)" fill-opacity=".58824" d="m57 79.75c-0.978-4.003-2.921-4.15-4.5-5.75 0 0-9.302-3.444-10.25-5.5-3.649-7.915 4.343-11.762 10.25-11.25 5.734 0.497 15.5 4 16 7.25s-10.5 15.25-11.5 15.25z"/>
    <path id="path3028" d="m56.908 79.481l0.692-3.286 4.497 1.47 5.622 0.432 4.497-0.605 5.449-1.384 0.605 3.806-3.2 2.075-5.535 1.384-4.93 0.173-4.151-1.384-2.681-1.557-0.865-1.124z" fill="url(#linearGradient3030)"/>
    <path id="path3032" d="m43.935 58.119l-0.865 2.854 0.173 2.422 0.865 2.508 2.249 3.2 6.054 4.756 5.448 2.682 6.227 1.124 5.19 0.259 6.4-1.038 4.151-1.47 5.708-3.113 4.843-4.325 1.99-3.286 0.518-2.422-0.778-3.719-0.605 2.768-1.471 3.459-1.729 2.336-3.287 2.594-5.189 2.681-6.486 1.47-4.671 0.865-2.767-0.086-4.757-0.779-4.584-1.297-5.103-2.162-3.373-2.595-1.989-2.335-1.47-3.027-0.605-1.643-0.087-2.681z" fill="url(#linearGradient3034)"/>
    <path id="path3036" d="m56.995 47.135l-5.017 2.422-3.459 1.643-2.076 2.335-1.989 2.854-0.692 3.287 0.606 2.594 1.816 3.546 2.767 3.027 7.006 3.546 3.373 1.125 5.275 1.037 3.633 0.26 4.411-0.606 5.275-1.21 4.844-1.903 2.594-1.643 1.73-1.211 1.643-1.557 1.989-3.113 1.125-4.238-1.125-4.065-2.594-3.546-5.449-3.114-4.67-1.383-21.016-0.087z" fill="url(#linearGradient3040)"/>
    <path id="path3042" fill="url(#linearGradient3044)" d="m56.649 50.508l-4.411 2.249-1.73 1.47-2.162 2.249-1.369 3.657 1.196 3.521 3.892 3.546 3.978 1.903 5.362 1.297s4.671 0.173 6.141 0.605c1.47 0.433 7.005-0.605 7.005-0.605l5.276-1.47 5.016-2.768 2.249-2.594 1.903-3.892-1.471-2.941-1.124-1.816-3.027-2.335-3.805-1.816-22.919-0.26z"/>
    <path id="path3046" d="m46.539 58.956l0.979-2.874 1.406-2.386 3.058-2.935 4.342-1.835v1.774l-2.507 0.917-2.508 1.651-1.834 1.896-1.407 1.896-1.04 3.058-0.489-1.162z" fill="url(#linearGradient3048)"/>
    <path id="path3050" d="m79.318 48.743l3.853 1.957 2.874 2.324 2.08 2.752 0.917 3.302-1.712-2.63-1.774-2.323-2.813-1.835-3.302-1.468-0.123-2.079z" fill="url(#linearGradient3052)"/>
    <path id="path3115" filter="url(#filter3197)" fill-opacity=".54902" d="m60.75 60l-2.5-3.5s-3.75-0.75-3.75-2.75 5.75-5.75 9.5-4.75 6.5 5.75 5.5 6.75-8 4.75-8.75 4.25z"/>
    <path id="path3054" d="m60.482 60.179l0.857-3.058 1.957 0.917 3.485 0.612h2.691l5.565-1.957 0.428 3.18-1.712 1.651-4.77 1.59-2.813-0.183s-1.835-0.367-2.141-0.489c-0.305-0.123-3.485-2.202-3.547-2.263z" fill="url(#linearGradient3056)"/>
    <path id="path3058" d="m56.507 48.926l-0.244 1.04 0.122 1.162 0.856 2.507 1.896 2.202 2.018 1.223s3.303 1.04 3.914 1.284c0.612 0.245 3.853 0.367 3.853 0.367l2.385-0.428 4.342-1.896 2.63-2.507 1.039-2.385 0.061-1.774-0.611-1.712-22.261 0.917z" fill="url(#linearGradient3061)"/>
    <path id="path3109" fill-opacity=".15686" d="m56.507 48.926l-0.244 1.04 0.122 1.162 0.856 2.507 1.896 2.202 2.018 1.223s3.303 1.04 3.914 1.284c0.612 0.245 3.853 0.367 3.853 0.367l2.385-0.428 4.342-1.896 2.63-2.507 1.039-2.385 0.061-1.774-0.611-1.712-22.261 0.917z"/>
    <path id="path3063" d="m56.569 47.764l0.061 1.774 0.795 2.018 1.406 1.345 1.896 1.285 4.097 1.467 2.324 0.245 2.569-0.183 4.464-1.346 3.119-1.957 1.59-3.791-1.406-2.875-2.752-2.385-3.364-1.467-6.115-0.123-4.771 1.529-2.752 2.202-1.161 2.568v-0.306z" fill="url(#linearGradient3065)"/>
    <path id="path3067" fill="url(#linearGradient3069)" d="m58.954 48.437l0.428 2.324 2.262 1.712 1.957 0.734 4.098 0.489 4.036-0.489 2.997-1.59 1.284-1.529 0.306-0.978c-0.533-1.075-1.272-1.738-1.957-2.508l-3.303-1.161-7.338 0.305c-1.366-0.071-2.732 0.901-4.098 1.774l-0.672 0.917z"/>
    <path id="path3097" fill-opacity=".12549" fill="#fff" d="m61.553 47.459l-0.856 0.091-0.306 0.245-0.123 0.459 0.826 1.253 0.612 0.123 0.978 0.122 0.948-0.275 0.367-0.275 0.061-0.612-0.245-0.795-0.428-0.275-1.834-0.061z"/>
    <path id="path3071" fill="url(#linearGradient3073)" d="m58.403 48.07l1.407-2.507 3.791-1.774 7.278-0.244 4.403 1.896 1.223 2.079-0.244 1.651c-0.388-0.936-0.797-1.787-1.346-2.079l-3.119-1.529-7.461-0.245-3.853 1.284-1.651 1.896-0.428-0.428z"/>
    <path id="path3099" fill-opacity=".12549" fill="#fff" d="m71.766 49.324l-0.367 0.336-0.123 0.367-0.275 0.642 0.214 0.398 0.489 0.397 0.887 0.306h0.948l0.52-0.275 0.55-0.489 0.245-0.612-0.336-0.459-0.857-0.305-1.895-0.306z"/>
    <path id="path3075" fill-opacity=".15686" d="m58.403 48.07l1.407-2.507 3.791-1.774 7.278-0.244 4.403 1.896 1.223 2.079-0.244 1.651c-0.388-0.936-0.797-1.787-1.346-2.079l-3.119-1.529-7.461-0.245-3.853 1.284-1.651 1.896-0.428-0.428z"/>
    <path id="path3077" fill="url(#linearGradient3079)" d="m64.458 48.437l0.672-5.504c0.066 1.265 0.839 1.586 1.346 2.263 1.582 0.395 2.738 0.153 3.669-0.428 0.811-0.41 0.555-1.246 0.612-1.957l0.428 5.871-2.691 1.101-3.058-0.612-0.978-0.734z"/>
    <path id="path3081" d="m66.72 45.196l-1.651-1.407-0.061-0.672 1.407-0.979 2.813-0.244 1.712 1.161-0.367 1.04-1.406 1.223-2.447-0.122z" fill="url(#linearGradient3083)"/>
    <path id="path3085" d="m67.699 42.75l-1.346 0.305 0.428 1.101 1.407 0.306 1.407-0.795-0.49-0.673-1.406-0.244z" fill="url(#linearGradient3087)"/>
    <path id="path3089" fill="url(#linearGradient3091)" d="m67.393 43.3l0.367-0.734-0.184-1.223 0.031-2.568-0.611-2.416-0.826-1.376-1.315-0.856-1.498-0.214-1.101 0.489-0.887 0.978-0.52 1.927-0.214 1.59 0.092 2.201 0.581 4.801 0.245 1.621 0.122 0.703 0.306 0.367 0.55 0.183 0.581-0.091 0.306-0.367-0.367-2.997-0.367-3.455-0.061-1.957 0.428-1.865 0.978-1.315 0.979-0.367 0.489 0.795 0.306 1.162 0.367 1.59 0.275 1.896 0.489 1.253c0.156 0.387 0.222 0.425 0.459 0.245z"/>
    <path id="path3093" fill="url(#linearGradient3095)" d="m67.913 43.361l-0.122-1.07-0.245-0.673 0.153-2.171 0.428-1.957 0.459-1.009 0.519-0.52 0.734-0.428 0.948-0.183 0.979 0.245 0.856 0.428 0.764 0.703 0.306 0.52 0.428 1.009 0.336 1.162 0.184 1.101 0.061 1.804-0.336 3.577-0.459 2.936-0.245 1.131-0.152 0.581-0.215 0.183-0.451 0.137-0.68-0.167-0.275-0.765 0.703-4.219 0.153-2.783-0.183-2.324-0.887-1.926-1.284-1.223-0.398 0.489-0.306 0.917-0.367 1.682-0.183 1.376-0.184 1.223-0.183 0.551-0.275 0.122s-0.612 0.428-0.581-0.459z"/>
    <path id="path3101" fill-opacity=".15686" d="m27.243 74.638l-0.173 3.632 2.076 5.622 5.622 6.054 7.351 4.93 10.119 3.373 12.021 1.729 10.725-0.086 7.178-0.951 10.724-3.287 7.354-3.719 5.97-5.708 3.02-6.227 0.09-7.178-0.26 1.729-0.69 2.335-0.78 2.163-1.3 2.421-1.81 2.681-2.77 2.854-3.98 2.941-6.4 2.854-7.698 2.076-11.675 1.383-10.206-0.259-10.292-1.989-8.648-3.373-5.708-3.027-4.152-3.2-2.075-2.422-2.422-3.546-1.211-3.805z"/>
    <path id="path3103" fill-opacity=".15686" d="m56.908 79.481l0.692-3.286 4.497 1.47 5.622 0.432 4.497-0.605 5.449-1.384 0.605 3.806-3.2 2.075-5.535 1.384-4.93 0.173-4.151-1.384-2.681-1.557-0.865-1.124z"/>
    <path id="path3105" fill-opacity=".15686" d="m43.935 58.119l-0.865 2.854 0.173 2.422 0.865 2.508 2.249 3.2 6.054 4.756 5.448 2.682 6.227 1.124 5.19 0.259 6.4-1.038 4.151-1.47 5.708-3.113 4.843-4.325 1.99-3.286 0.518-2.422-0.778-3.719-0.605 2.768-1.471 3.459-1.729 2.336-3.287 2.594-5.189 2.681-6.486 1.47-4.671 0.865-2.767-0.086-4.757-0.779-4.584-1.297-5.103-2.162-3.373-2.595-1.989-2.335-1.47-3.027-0.605-1.643-0.087-2.681z"/>
    <path id="path3107" fill-opacity=".15686" d="m60.482 60.179l0.857-3.058 1.957 0.917 3.485 0.612h2.691l5.565-1.957 0.428 3.18-1.712 1.651-4.77 1.59-2.813-0.183s-1.835-0.367-2.141-0.489c-0.305-0.123-3.485-2.202-3.547-2.263z"/>
  </g>
  <g id="layer1">
    <path id="path2309" d="m63.469 33.875c-0.531 0.075-1.09 0.324-1.688 0.75-1.5 2.477-1.332 5.431-0.969 8.281-1.783 0.873-3.273 2.198-4.187 4.125-3.406 1.99-5.009 1.454-10.219 5.969-7.235 2.196-13.838 6.126-17.156 12.062-3.092 2.569-5.226 5.553-6.281 8.813v-0.281c-1.992 5.974-1.383 11.01 0.781 14.781s5.682 7.172 10.062 10.031c4.208 2.744 9.206 5.004 14.563 6.594v0.03l0.063-0.03c5.782 1.71 11.974 2.68 18.031 2.66 11.63-0.05 24.625-3.15 34.311-8.504 8.55-4.668 16.95-11.88 13.78-23.031-0.85-2.937-3.22-5.454-6.15-7.219-2.48-8.13-10.345-13.277-18.472-15.468-2.806-3.227-7.068-5.057-11.219-6.469-0.811-1.9-2.23-3.183-3.938-4.031 0.082-1.979-0.136-4.03-1.187-6.094-1.593-1.635-2.819-1.868-4.344-1.063-1.2 0.936-1.494 2.223-1.562 3.781-0.042-1.733-0.271-3.245-1.563-4.656-0.953-0.801-1.771-1.156-2.656-1.031zm0.469 0.156c0.672 0.027 1.378 0.325 2.156 0.938 1.333 1.823 1.59 4.102 1.437 6.281-0.053 0.762 0.495 1.11-0.281 2.219 0.193-0.137 0.328-0.287 0.406-0.469 0.042 0.265 0.182 0.502 0.375 0.75-0.029-0.114 0.024-0.203 0.031-0.406-0.744-1.343-0.325-6.573 1.25-7.5 0.389-0.185 0.765-0.303 1.126-0.344 0.135-0.015 0.275-0.036 0.406-0.031 0.918 0.03 1.738 0.552 2.531 1.406 1.977 3.539 1.083 7.126 0.687 10.281-0.098 0.601-0.206 1.766-0.437 2.563-0.024 0.278-0.104 0.636-0.219 0.875-0.669 0.65-1.833-0.111-1.344-0.75 0.121-1.553 0.869-3.855 0.813-5.469-0.117-2.428 0.248-5.286-2.437-6.969-1.019 0.397-0.664 1.137-1.282 3.156 0.062 0.508-0.219 3.119-0.594 3.157-0.044 0.064-0.041 0.051-0.062 0.125 0.318-0.094 0.311-0.254 0.438-0.594 0.093 0.034 0.178 0.076 0.281 0.125-0.695 1.373-2.45 0.664-2.594-0.125 0.065-0.041 0.126-0.066 0.187-0.094 0.05 0.053 0.098 0.11 0.157 0.156 0.001-0.083 0-0.166 0-0.25-0.364-0.437-0.808-2.855-0.75-3.312-0.618-2.212-0.263-2.847-1.281-3.562-2.686 0.842-2.321 3.796-2.438 6.187-0.056 1.597 0.692 4.159 0.812 5.75 0.24 0.513-1.055 0.897-1.562 0.219-0.117-0.157 0.115-0.403 0.031-0.688-0.26-0.886-0.364-2.207-0.469-2.875-0.395-3.278-1.258-7.141 0.719-10.062 0.605-0.462 1.234-0.714 1.907-0.688zm1.093 2.5c0.843 1.279 0.952 3.376 1.219 4.969-1.149 0.098-2.269 0.318-3.344 0.625-0.451-2.311 0.029-5.1 2.125-5.594zm5.313 1.219c1.538 0.843 2.206 2.646 2.281 4.406-1.078-0.303-2.209-0.519-3.344-0.625 0.192-1.375 0.365-2.94 1.063-3.781zm-4.75 4.531c-0.295 0.184-0.591 0.398-0.875 0.688-0.003 0.056 0 0.103 0 0.156l-0.031 0.219c-0.57 0.084-1.13 0.186-1.688 0.312-0.024-0.274-0.026-0.536-0.031-0.812 0.796-0.234 1.666-0.41 2.625-0.563zm3.562 0c0.62 0.184 1.168 0.504 1.563 1-0.362 0.902-1.275 1.67-2.157 1.938-1.58 0.218-2.813-0.763-3.343-2.094 0.354-0.298 0.775-0.512 1.219-0.687 0.039 0.131 0.067 0.261 0.124 0.374l-0.562 0.188c0.241 1.647 1.071 1.625 2.562 1.531 0.896-0.074 0.746-0.587 1.25-1.125-0.284-0.393-0.495-0.603-0.718-0.75 0.023-0.114 0.041-0.253 0.062-0.375zm1.438 0c0.701 0.118 1.372 0.315 2.031 0.531-0.014 0.324-0.041 0.633-0.094 0.938-0.413-0.105-0.83-0.204-1.25-0.281-0.004-0.603-0.27-0.959-0.687-1.188zm-9.688 1.344c0.034 0.249 0.06 0.504 0.094 0.75-1.577 0.824-2.453 2.158-2.812 4.063 0.722 4.569 5.39 5.262 9.343 5.406 3.801 0.019 7.389-0.789 8.781-4.188 0.128-0.377 0.227-0.772 0.344-1.156-0.094-1.818-0.873-3.076-2-3.875 0.035-0.305 0.07-0.598 0.094-0.906 1.779 1.04 3.165 2.626 3.781 4.937-1.207 5.41-6.248 6.46-11.062 7.063-10.947-0.811-14.097-8.579-6.563-12.094zm3.75 0.187l-0.125 1.25c-0.447 0.066-0.883 0.177-1.312 0.282-0.051-0.372-0.11-0.722-0.157-1.125 0.542-0.155 1.071-0.304 1.594-0.407zm6.594 0.188c0.395 0.11 0.791 0.232 1.188 0.375 0.004 0.363-0.002 0.711-0.032 1.063-0.363-0.114-0.739-0.209-1.125-0.282l-0.031-1.156zm-0.438 0.031l0.032 4.407c-2.103 1.306-4.072 1.273-6.063-0.126l0.5-3.718c0.753 0.662 2.009 1.324 3.281 1.25 1.053 0.047 1.978-0.977 2.25-1.813zm-9.718 0.969c0.052 0.325 0.09 0.664 0.125 1-0.913 0.434-1.684 1.014-2.188 1.812 0.25-1.354 0.987-2.189 2.063-2.812zm13.468 0.375c0.954 0.667 1.665 1.648 1.75 3.125-0.031 0.163-0.081 0.316-0.124 0.469-0.393-1.147-1.008-1.944-1.782-2.531 0.051-0.353 0.109-0.705 0.156-1.063zm-3.281 0.406c0.361 0.059 0.717 0.13 1.063 0.219-0.098 0.818-0.265 1.578-0.313 2.219-0.035 0.309-0.083 0.637-0.125 0.969-0.402 0.172-0.503 0.221-0.812 1-0.206 0.345-0.334 0.684-0.032 0.937 0.844 0.578 1.585 0.894 2.657 0.719 0.747-0.687 1.632-0.963 1.062-1.906-0.354-0.081-0.553-0.297-0.812-0.313 0.152-0.669 0.189-1.487 0.312-2.219 0.026-0.182 0.036-0.378 0.063-0.562 0.824 0.519 1.481 1.234 1.812 2.25-1.092 3.482-5.312 4.162-8.625 4.281-3.477-0.025-7.115-0.925-8.343-4.313h0.031c0.023-1.111 0.889-1.876 2.093-2.406 0.034 0.268 0.07 0.508 0.126 0.75-0.319-0.139-0.574 0.084-1 0.094-0.745 0.812 0.09 1.241 0.687 2.062 1.016 0.385 1.809 0.244 2.75-0.156 0.347-0.187 0.29-0.558 0.156-0.937-0.148-0.816-0.243-0.883-0.593-1.125-0.041-0.283-0.065-0.579-0.094-0.844-0.01-0.128-0.047-0.299-0.063-0.438 0.392-0.091 0.786-0.189 1.188-0.25l-0.25 2.813c2.491 1.929 4.612 1.698 7.125 0.281l-0.063-3.125zm-10.25 1.781c0.157-0.003 0.32 0.03 0.469 0.094-0.011 1.044 0.667 1.148 1.75 1.094 0.254-0.399 0.269-0.642 0.219-1.125 0.12 0.099 0.244 0.177 0.343 0.25-0.048 0.157 0.301 0.904-0.031 1.344-0.974 0.76-2.107 0.447-2.656 0.062-1.157-1.163-0.701-1.706-0.094-1.719zm17.969 0.063c6.003 1.69 11.36 5.001 12.469 11.594-0.236 10.666-14.641 14.769-24 15.312-9.33-0.312-23.362-5.13-23.25-15.312 0.413-6.043 6.064-8.934 12.093-11.438-0.227 0.332-0.274 0.812-0.343 1.157-4.966 0.87-8.17 4.913-9.657 10 1.32 9.859 13.186 11.999 21.376 12.374 8.238-0.239 19.999-2.612 21.374-12.374-0.443-5.458-4.973-8.457-9.624-10.376-0.047-0.599-0.277-0.592-0.438-0.937zm-22.875 1.531c0.008 0.412 0.058 0.798 0.094 1.188-5.275 2.01-8.623 5.207-9.125 9.125-0.034-0.177-0.068-0.349-0.094-0.531 0.478-5.067 4.728-8.054 9.125-9.782zm23.437 0.063c4.234 1.616 7.667 4.422 8.844 8.812-1.166-3.932-4.918-5.796-8.812-7.406 0.044-0.464 0.035-0.928-0.032-1.406zm-0.437 0.062c0.364 2.625-0.794 4.188-3.031 6.25-5.136 3.999-11.812 3.644-16.782-0.062-1.403-1.693-3.01-3.214-2.906-5.407 1.491 4.276 6.881 5.758 11.063 6 4.463-0.169 10.485-1.913 11.656-6.781zm-7.25 0.157c-0.03 0.421-0.007 0.855 0.219 1.281 1.12 0.406 1.579-0.066 1.812-0.844 0.725-0.019 1.444 0.639-0.125 1.687-0.614 0.269-1.82 0.345-2.625-0.593-0.239-0.497 0.267-1.149 0.25-1.313 0.131-0.06 0.316-0.135 0.469-0.218zm-15.594 1.468c0.272 1.939 0.997 3.634 2.781 5.219 0.632 0.438 1.273 0.825 1.938 1.156l-0.625 2.875c3.851 4.455 11.385 4.152 15.25-0.094l-0.375-3.124c0.021-0.085 0.937-0.632 1.281-0.844 1.662-1.605 2.739-3.287 3.031-5.063 4.089 1.6 8.084 4.23 8.969 8.657-1.733 8.866-13.251 10.768-20.843 11.124-7.317-0.251-18.091-2.339-20.376-10.406 0.156-3.866 3.518-7.42 8.969-9.5zm-10.531 3c-0.643 0.88-1.158 1.852-1.562 2.906-7.538 2.681-11.753 7.359-12.376 15.25 2.224 16.598 22.252 20.207 36.032 20.844 13.854-0.413 33.726-4.405 36.036-20.844 0.08-7.719-5.984-12.46-12.38-15.656-0.302-0.802-0.693-1.563-1.156-2.25 9.261 2.374 16.386 9.122 18.496 18.5 0.46 6.094-4.64 13.294-11.934 17.375-7.298 4.082-17.792 6-28.968 6-11.177 0-21.02-3.122-28.344-7.156-7.6-4.186-12.52-9.695-11.844-16.313 0.423-10.585 9.323-15.511 18-18.656zm10.094 1.406c-4.335 1.608-3.527 3.703-0.063 5.657l0.063-0.313c-3.039-1.328-2.967-3.628 0-5.031v-0.313zm35.844 1.626l0.187 0.343c5.936 2.513 10.065 6.604 11.125 12.657-1.49-5.154-4.771-7.352-10.312-9.938-0.221-1.055-0.629-2.056-1-3.062zm-16.813 0.124l0.25 2.844c-4.07 3.844-10.9 3.835-14.313 0.156l0.657-2.5c3.031 1.676 9.068 2.016 13.406-0.5zm-30.937 0.438c-0.087 0.315-0.212 0.795-0.25 0.938-0.361 0.821-0.476 1.805-0.594 2.718-6.562 2.51-9.747 5.46-10.438 12.156-0.084-0.408-0.19-0.823-0.25-1.25-0.015-7.324 5.424-11.591 11.5-14.531 0.01-0.03 0.023-0.006 0.032-0.031zm35.343 0.781l-0.312 0.125c3.698 2.86-2.18 4.107-4.5 4.344l0.125 0.312c3.808 0.016 8.757-2.347 4.687-4.781zm12.844 1.094c1.33 4.908-1.141 8.484-7.687 13.156-10.417 6.763-23.062 6.811-33.376 0-4.264-2.962-9.033-6.967-7.437-12.406 2.002 10.591 14.414 14.129 23.844 14.687 9.736-0.364 22.924-4.314 24.656-15.437zm0.687 1.437c6.466 2.792 9.428 4.81 10.378 11.813-2.55 15.721-22.123 18.95-35.346 19.563-12.575-0.4-30.826-3.704-34.844-17.376-0.078-7.406 3.948-10.399 10.094-13.187-0.14 4.832 3.401 8.036 7.437 11.281 2.14 1.56 4.385 2.757 6.688 3.625l-0.594 3.219c5.969 6.414 16.195 4.648 21.906 0.312l-0.625-3.687c2.375-0.839 4.708-1.921 6.938-3.25 3.834-3.203 8.667-6.619 7.968-12.313zm-37.343 3.344v0.25c4.606 4.224 10.082 5.074 15.812 2.782v-0.376c-5.376 2.243-11.441 1.055-15.812-2.656zm-26.657 1.719c-0.7 1.423-1.198 2.949-1.5 4.594l-1.937-0.219c0.953-1.543 2.099-3.02 3.437-4.375zm65.594 1.469l-0.687 0.375c3.313 0.898 3.496 4.01 3.406 7l0.125 0.312c0.363-3.698 0.741-6.389-2.844-7.687zm-49.531 0.156l-0.25 0.125c-1.092 1.606-0.858 2.462 0.531 3.906l0.25-0.187c-1.259-1.063-0.735-2.387-0.531-3.844zm-4.813 1.469l-0.25 0.062c-1.759 3.681-1.173 7.115 1.094 11.657h0.313c-1.964-4.423-2.729-8.43-1.157-11.719zm68.468 0.5l0.13 0.031c0 0.009-0.01 0.022 0 0.031 1.26 0.531 2.49 1.772 3.56 3.188l-2.6 0.5c-0.15-1.245-0.48-2.475-0.96-3.688-0.05-0.017-0.09-0.046-0.13-0.062zm-83.342 1.062l2.062 0.313c-0.09 0.557-0.181 1.134-0.219 1.718 0 0.34 0.037 0.665 0.063 1-0.076 1.327-0.138 2.664-0.094 3.938 0.036 0.946 0.196 1.873 0.438 2.781l-4.438 2.188c-0.922-4.217 0.017-8.296 2.188-11.938zm87.342 2.563c0.7 0.974 1.3 2.012 1.78 2.937 0.48 4.927-0.74 8.814-2.97 12.125l-4.68-2.25c1.89-2.647 2.96-5.543 2.96-8.594 0.15-1.248 0.19-2.459 0.07-3.656l2.84-0.562zm-3.5 0.844c0.09 1.062 0.09 2.164-0.12 3.374 0 6.111-4.42 11.7-11.722 15.782-7.298 4.081-17.324 6.687-28.5 6.687-11.177 0-21.2-2.449-28.438-6.531s-12.548-9.761-12.781-15.875l0.031-1.25c1.374 5.006 5.619 9.436 11.656 12.813 7.43 4.155 17.281 7.468 28.563 7.468s22.101-1.938 29.531-6.094c6.89-3.854 11.16-10.488 11.78-16.374zm-24.936 0.468l-0.375 0.125c2.589 3.996-0.544 6.398-4.157 8l0.313 0.063c4.744-1.708 6.68-3.651 4.219-8.188zm-6.313 2l-0.187 0.406 0.562 2.969c-5.631 4.301-16.193 4.813-21.062-0.219l0.562-2.874c6.527 2.334 13.52 2.026 20.125-0.282zm36.909 1.656c1.19 4.351-0.15 8.314-2.81 11.782l-0.29-1.25c1.98-3.045 3.15-6.549 3.1-10.532zm-92.471 0.094c-0.063 1.469 0.07 2.979 0.406 4.5l-0.094 0.032-0.062 1.374c-0.39-1.94-0.478-4.023-0.25-5.906zm5.312 2.438c1.19 4.074 4.323 7.738 8.657 10.812l-3.532 4.219c-2.982-2.299-5.626-5.038-7.781-8.313-0.893-1.561-1.487-3.113-1.844-4.656l4.5-2.062zm-4.812 2.406c0.344 1.429 0.854 2.865 1.562 4.312 2.277 3.53 5.111 6.444 8.313 8.844l-0.032 1c-3.596-2.579-6.551-5.56-8.468-8.687-0.657-1.071-1.165-2.398-1.5-3.813l0.125-1.656zm30.5 0.875v0.313c6.915 6.153 16.733 5.181 22.406 3.593v-0.25c-5.426 1.519-15.91 2.125-22.406-3.656zm53.251 2.344l4.72 2.219c-2.43 3.491-6.01 6.326-9.97 9.031-0.27 0.15-0.54 0.29-0.81 0.437l-4.785-3.25c0.639-0.316 1.272-0.631 1.875-0.968 3.79-2.118 6.86-4.637 8.97-7.469zm4.94 2.656l0.28 1.219c-2.72 3.426-6.74 6.35-10.97 8.625l-0.16-0.5c0.08-0.041 0.15-0.084 0.22-0.125 4.32-2.41 8.1-5.464 10.63-9.219zm-74.816 2.781c1.018 0.703 2.088 1.394 3.218 2.032 2.929 1.651 6.302 3.037 10 4.124l-1.5 5.468c-5.579-1.62-10.875-4.035-15.406-7.468l3.688-4.156zm58.718 3.156l4.688 3.313c-4.548 2.415-9.968 4.375-15.625 5.755l-2.125-4.786c4.83-0.963 9.249-2.434 13.062-4.282zm-62.406 1.563c4.548 3.338 9.824 5.665 15.375 7.245l0.063 1c-5.216-1.54-10.089-3.71-14.156-6.37-0.402-0.262-0.8-0.541-1.188-0.812l-0.094-1.063zm17.313 1.563c4.672 1.335 9.858 2.182 15.375 2.402l0.5 5.75c-5.745-0.26-11.728-1.09-17.438-2.71l1.563-5.442zm50.001 0.437l0.28 0.469c-0.02 0.011-0.04 0.02-0.06 0.031-4.764 2.625-10.344 4.715-16.159 6.155l0.031-0.59c5.739-1.4 11.204-3.47 15.908-6.065zm-18.376 0.813l2.125 4.782c-5.697 1.36-11.605 2.14-17.063 2.15-0.103 0-0.209-0.02-0.312-0.03l-0.75-5.75c0.909 0.04 1.824 0.07 2.75 0.07 4.641 0 9.093-0.423 13.25-1.222zm-33.219 4.532c5.74 1.61 11.742 2.44 17.5 2.81v0.75c-5.863-0.02-11.878-0.92-17.5-2.56v-1zm35.344 0.78l-0.031 0.59c-5.751 1.4-11.714 2.17-17.376 2.19h-0.062l0.094-0.72c0.135 0.01 0.271 0.03 0.406 0.03 5.567-0.02 11.382-0.76 16.969-2.09z"/>
  </g>
  <metadata>
    <rdf:RDF>
      <cc:Work>
        <dc:format>image/svg+xml</dc:format>
        <dc:type rdf:resource="http://purl.org/dc/dcmitype/StillImage"/>
        <cc:license rdf:resource="http://creativecommons.org/licenses/publicdomain/"/>
        <dc:publisher>
          <cc:Agent rdf:about="http://openclipart.org/">
            <dc:title>Openclipart</dc:title>
          </cc:Agent>
        </dc:publisher>
      </cc:Work>
      <cc:License rdf:about="http://creativecommons.org/licenses/publicdomain/">
        <cc:permits rdf:resource="http://creativecommons.org/ns#Reproduction"/>
        <cc:permits rdf:resource="http://creativecommons.org/ns#Distribution"/>
        <cc:permits rdf:resource="http://creativecommons.org/ns#DerivativeWorks"/>
      </cc:License>
    </rdf:RDF>
  </metadata>
</svg>
